<svg width="199" height="138" fill="none" xmlns="http://www.w3.org/2000/svg"><path d="M112.706 78.19c-4.214-.719-4.903 2.268-2.115 5.377l8.793 9.429c.647.693 1.804.535 2.401.673l41.586 2.724c.446-.132.563.713.141 1.02l-31.584 2.591c-.043.032-3.457.196-4.53.974-1.073.777-1.915 2.161-2.282 3.75l-3.619 15.676c-.358 1.551.778 2.568 1.734 1.552l15.184-8.303 6.691 6.347c2.365 2.147 4.864 1.414 6.257.426l46.479-24.978c.565-.864.195-2.09-.573-1.896L112.706 78.19zM6.677 20.055c-6 1.03-5.796 2.412-3.293 6.025l13.01 11.859c.732.779 2.686-.095 3.592-.19L83.28 20.46c.66-.438.788.834.152 1.537L39.187 44.315c-.08.073-5.743 2.166-7.796 3.993-2.07 1.83 20.613 20.95 20.613 20.95 3.94 2.102 4.498 1.586 6.984-.734L131.103 3.21c.52-1.62-.255-3.33-1.199-2.649L6.677 20.055z" fill="#DB3340"/></svg>