<svg width="229" height="80" fill="none" xmlns="http://www.w3.org/2000/svg"><path fill-rule="evenodd" clip-rule="evenodd" d="M90.519 17.905L77.53 22.19l-6.254 19.334-.006.033c-.01.028-.032.062-.09.062l-.006.034a.086.086 0 01-.043.051l-.048.01-.192.19a.317.317 0 01-.23.095l-.25.001s-.097 0-.097-.095l-.096-.096-12.7-12.857-8.275 2.762h-.193c-.288 0-.48-.095-.673-.38L30 1.046v-.76s0-.096.096-.096c0 0 0-.06.05-.085l.053-.01h.09s.061 0 .086-.049l.01-.046h.48l59.558 16.476c.288.095.577.381.577.667 0 .38-.192.666-.481.762zm-24.15 6.762c.048 0 .072.023.096.047.012.012.024.024.04.033l.056.015c0 .047.025.071.049.095a.208.208 0 01.033.039l3.96 13.77L75.99 22 37.407 4.667l28.961 20zm-.962 1.523l3.56 12.572L58.768 28.38l6.639-2.19zm-16.356 4l15.298-5.047L32.79 3.429 49.05 30.19zm15.49-14.857L39.333 4l48.396 13.238-10.873 3.62-12.315-5.525zM57.29 59.665l7.62 18.36c.09.265.09.443.09.709-.09.177-.359.266-.538.266h-.09l-3.855-.266c-.18.089-.358.177-.538.177h-.09L.629 73.59h-.36l-.09-.089c-.09 0-.09-.089-.09-.089-.089 0-.089-.088-.089-.088v-.799l.09-.088.09-.089 39.448-31.397c.179-.089.448-.177.627-.089l2.152-1.685c.18-.177.359-.177.538-.177.18 0 .358.089.448.266l10.759 15.078c.09 0 .09.088.09.088v.444l-.897 5.055 3.138-.71c.358 0 .717.178.807.444zm-22.414 4.257l.448.267 16.407-3.903.807-4.435-19.007 6.475.269 1.596.538-.088c.18 0 .358 0 .538.088zm-2.51-.62l.179 1.064L18.2 67.913l14.165-4.611zm20.082-8.78l-9.772-13.748-2.242 1.685-6.275 18.27 18.29-6.208zm-13.807-10.91l-6.276 18.182-3.048.975-25.283 8.249 34.607-27.406zm-4.213 21.73L4.752 72.614l51.82 4.612-22.144-11.885zM59.53 77.225L37.117 65.164l19.097-4.434 6.993 16.762-3.676-.266zM138 55.084V54.8h-.477L85.674 44h-.381l-10.79 3.979c-.287.095-.382.284-.478.568-.095.285.096.474.287.664l10.026 8.242-1.623 19.8v.284c0 .095.095.19.095.19.096.094.19.189.286.189h.096c.04 0 .064 0 .085.007.028.01.051.033.106.087h.095c.096 0 .191 0 .287-.094l11.744-4.832 3.342 4.074c.096.095.287.19.478.284L111.837 80h.096a.73.73 0 00.477-.19l25.399-24.063.096-.094.095-.095v-.474zM91.022 66.168c-.096 0-.191.095-.287.19l-.095.095-.096.094-6.302 8.432 1.432-16.958 44.687-1.705-39.34 9.852zm40.103-11.463l-45.546-9.19-9.357 3.411 9.07 7.484 45.833-1.705zM85.484 75.642l5.633-7.579 3.247 3.98-8.88 3.6zm14.227.569l12.031 2.273L134.849 56.6l-15.85 3.979-26.45 6.726 7.162 8.905zm63.253-46.042l.021-.053c.028-.076.018-.1-.045-.245l-.15-.348-20.724-26.876c-.075-.174-.202-.224-.328-.274l-7.614-2.37c-.214-.013-.518.01-.746.208l-9.244 8.366-.045.08a.673.673 0 01-.051.063.501.501 0 00-.095.142l-.03.074c-.038.098-.064.191-.034.26l.035.082 1.771 7.479-8.951-3.045c-.123-.102-.304-.066-.461-.01l-.146.058-14.796 8.83c-.139.162-.279.323-.292.533-.102.248.011.509.175.646l4.936 5.127a.761.761 0 00.505.2l20.628.542 2.39 3.11c.164.136.328.273.631.25l31.989-2.447.575-.24c.047-.023.056-.043.096-.142zm-14.713.074l-17.512 1.342-1.434-1.866 18.946.524zm-31.434-15.129l-13.718 8.178 4.042 4.268 50.417 1.474-40.741-13.92zm38.007 11.467l-27.27-9.371-1.607-6.617 17.207 9.56 11.67 6.428zM141.14 3.649l-6.894-2.157-8.104 7.378 33.368 18.632L141.14 3.65zm87.379 14.256L215.53 22.19l-6.254 19.334-.006.033c-.009.028-.032.062-.09.062l-.006.034a.092.092 0 01-.043.051l-.048.01-.192.19a.317.317 0 01-.231.095l-.25.001s-.096 0-.096-.095l-.096-.096-12.701-12.857-8.274 2.762h-.193c-.288 0-.481-.095-.673-.38L168 1.046v-.76s0-.096.096-.096c0 0 0-.06.049-.085l.054-.01h.09s.061 0 .086-.049l.01-.046h.481l59.557 16.476c.288.095.577.381.577.667 0 .38-.192.666-.481.762zm-24.15 6.762c.048 0 .072.023.096.047.012.012.024.024.039.033l.058.015c0 .047.024.071.048.095a.208.208 0 01.033.039l3.96 13.77L213.991 22 175.409 4.667l28.96 20zm-.962 1.523l3.56 12.572-10.199-10.381 6.639-2.19zm-16.357 4l15.299-5.047L170.79 3.429l16.26 26.762zm15.491-14.857L177.333 4l48.396 13.238-10.873 3.62-12.315-5.525zm-7.251 44.332l7.62 18.36c.09.265.09.443.09.709-.09.177-.359.266-.538.266h-.09l-3.855-.266c-.179.089-.358.177-.538.177h-.089l-59.262-5.321h-.359l-.09-.089c-.089 0-.089-.089-.089-.089-.09 0-.09-.088-.09-.088v-.799l.09-.088.089-.089 39.449-31.397c.179-.089.448-.177.627-.089l2.152-1.685c.179-.177.359-.177.538-.177.179 0 .358.089.448.266l10.759 15.078c.089 0 .089.088.089.088v.444l-.896 5.055 3.138-.71c.358 0 .717.178.807.444zm-22.414 4.257l.448.267 16.407-3.903.807-4.435-19.007 6.475.269 1.596.538-.088c.179 0 .359 0 .538.088zM156.2 67.914l14.166-4.612.179 1.064-14.345 3.547zm34.248-13.393l-9.772-13.747-2.242 1.685-6.275 18.27 18.289-6.208zm-13.807-10.909l-6.275 18.182-3.049.975-25.283 8.249 34.607-27.406zm-4.213 21.73l-29.676 7.272 51.82 4.612-22.144-11.885zm25.103 11.884l-22.414-12.062 19.097-4.434 6.993 16.762-3.676-.266z" fill="#E9E9E9"/></svg>