<svg width="286" height="501" fill="none" xmlns="http://www.w3.org/2000/svg"><path fill-rule="evenodd" clip-rule="evenodd" d="M92.6 170l58.133 16.079c.282.093.564.372.564.651 0 .372-.188.65-.47.743l-12.678 4.183-6.105 18.867-.006.033c-.009.027-.031.06-.088.06l-.006.033a.08.08 0 01-.042.05l-.046.011-.187.185a.314.314 0 01-.226.092l-.244.001s-.094 0-.094-.093l-.094-.093-12.397-12.547-8.077 2.695h-.187c-.282 0-.47-.093-.658-.372l-17.938-29.556v-.743s0-.093.094-.093c0 0 0-.06.048-.083l.052-.01h.088s.06 0 .084-.048l.01-.045h.47zm11.79 38.06c.146 0 .292.06.387.181l.05.079 10.502 14.714a.08.08 0 01.082.056l.006.031v.433l-.876 4.933 3.063-.692c.311 0 .623.136.749.349l.039.083 7.439 17.917c.087.26.087.433.087.693-.075.148-.279.233-.445.254l-.08.005h-.088l-3.763-.259-.21.098a.995.995 0 01-.21.065l-.105.01h-.087l-57.846-5.193h-.35l-.088-.087c-.087 0-.087-.087-.087-.087-.053 0-.074-.031-.082-.056l-.006-.03v-.779l.175-.173 38.506-30.641c.15-.074.364-.148.533-.113l.079.027 2.101-1.645c.175-.173.35-.173.525-.173zm-93.367 4.88h.373l50.609 10.54h.465l.001.739-.186.185-24.792 23.483a.717.717 0 01-.355.175l-.111.01h-.094l-12.21-2.496-.217-.111a1.62 1.62 0 01-.182-.111l-.066-.055-3.262-3.976-11.464 4.715-.056.045a.315.315 0 01-.168.047l-.15.001c-.074-.074-.089-.089-.14-.092l-.139-.001c-.074 0-.149-.059-.224-.13l-.065-.065a.378.378 0 01-.074-.12l-.01-.055v-.277l1.585-19.323-9.787-8.043-.12-.125c-.135-.147-.232-.307-.16-.522.082-.243.164-.415.37-.516l.097-.039 10.532-3.883zM92.6 253.928l58.133 16.079c.282.093.564.372.564.65 0 .372-.188.651-.47.744l-12.678 4.182-6.105 18.868-.006.033c-.009.026-.031.06-.088.06l-.006.033a.086.086 0 01-.042.05l-.046.01-.187.186a.314.314 0 01-.226.092l-.244.001s-.094 0-.094-.093l-.094-.093-12.397-12.548-8.077 2.696h-.187c-.282 0-.47-.093-.658-.372l-17.938-29.557v-.742s0-.093.094-.093c0 0 0-.06.048-.084l.052-.009h.088s.06 0 .084-.048l.01-.045h.47zm11.79 38.06a.49.49 0 01.387.18l.05.08 10.502 14.714a.08.08 0 01.082.056l.006.03v.433l-.876 4.934 3.063-.693c.311 0 .623.137.749.35l.039.083 7.439 17.917c.087.26.087.433.087.692-.075.149-.279.234-.445.255l-.08.005h-.088l-3.763-.26c-.14.07-.28.139-.42.164l-.105.01h-.087l-57.846-5.194h-.35l-.088-.086c-.087 0-.087-.087-.087-.087-.053 0-.074-.031-.082-.056l-.006-.03v-.779l.175-.173 38.506-30.641c.15-.074.364-.148.533-.113l.079.027 2.101-1.645c.175-.173.35-.173.525-.173zm-93.367 4.879L.49 300.751l-.097.039c-.206.101-.288.273-.37.515-.072.216.025.376.16.523l.12.124 9.787 8.044-1.585 19.323v.277l.01.055c.018.053.056.1.074.12l.121.115c.056.047.112.08.168.08l.14.001c.05.003.065.017.14.091h.149a.315.315 0 00.168-.047l.056-.045 11.463-4.715 3.263 3.975.066.056c.05.037.113.074.182.111l.218.111L36.934 332h.093l.11-.01a.717.717 0 00.355-.175l24.793-23.483.186-.185v-.74h-.466l-50.61-10.54h-.372zm185.685 10.54l-50.609-10.54h-.373l-10.532 3.884-.097.039c-.206.101-.288.273-.369.515-.073.216.024.376.158.523l.121.124 9.787 8.044-1.585 19.323v.277l.01.055c.018.053.056.1.074.12l.121.115c.056.047.112.08.168.08l.14.001c.05.003.065.017.14.091h.149a.315.315 0 00.168-.047l.056-.045 11.464-4.715 3.262 3.975.066.056c.101.074.251.148.4.222L171.636 332h.094l.111-.01a.72.72 0 00.355-.175l24.792-23.483.186-.185v-.74h-.466zm42.772-15.239a.49.49 0 00-.387-.18c-.175 0-.35 0-.525.173l-2.101 1.645-.079-.027c-.169-.035-.383.039-.533.113l-38.506 30.641-.175.173.001.788c.003.022.017.077.087.077 0 0 0 .087.087.087l.088.086h.35l57.846 5.194h.087l.105-.01c.14-.025.28-.094.42-.164l3.764.26h.087l.08-.005c.167-.021.37-.106.445-.255 0-.259 0-.432-.087-.692l-7.439-17.917-.039-.083c-.126-.213-.437-.35-.749-.35l-3.063.693.876-4.934v-.433l-.006-.03c-.008-.025-.029-.056-.082-.056l-10.502-14.714-.05-.08zM59.395 309.164l-15.472 3.883-25.817 6.564 6.99 8.691 11.744 2.219 22.555-21.357zm119.232 3.883l15.471-3.883-22.555 21.357-11.743-2.219-6.991-8.691 25.818-6.564zm73.418.147l-18.64 4.328 21.878 11.771 3.588.26-6.826-16.359zm-153.344 4.328l18.641-4.328 6.826 16.359-3.588-.26-21.879-11.771zm-2.625.173l-28.967 7.097 50.583 4.501-21.616-11.598zm105.736 7.097l28.967-7.097 21.616 11.598-50.583-4.501zm-50.401-4.441l-5.499 7.396 8.668-3.513-3.169-3.883zm-140.202 7.396l5.5-7.396 3.168 3.883-8.668 3.513zm178.509-18.861l-43.619 1.665-1.398 16.549 6.151-8.228.186-.185c.075-.074.15-.148.224-.175l.056-.01 38.4-9.616zm-178.322 1.665l43.619-1.665-38.4 9.616-.056.01c-.075.027-.15.101-.224.175l-.186.185-6.151 8.228 1.398-16.549zm223.496-14.062l-33.78 26.745 24.679-8.049 2.975-.953 6.126-17.743zM66.409 323.234l33.78-26.745-6.126 17.743-2.975.953-24.679 8.049zm162.357-7.53l-13.827 4.501 14.002-3.462-.175-1.039zm-148.53 4.501l13.827-4.501.175 1.039-14.002 3.462zm168.221-11.772l-18.553 6.319.263 1.558.525-.087c.14 0 .28 0 .42.045l.105.042.437.259 16.015-3.808.788-4.328zm-153.256 6.319l18.553-6.319-.788 4.328-16.015 3.808-.437-.259-.105-.042c-.14-.045-.28-.045-.42-.045l-.526.087-.262-1.558zm8.926-21.033l-2.188 1.645-6.125 17.83 17.852-6.059-9.539-13.416zm132.516 1.645l2.187-1.645 9.539 13.416-17.852 6.059 6.126-17.83zm-225.34 2.983l-9.135 3.328 8.855 7.304 44.737-1.664-44.458-8.968zm125.569 3.328l9.133-3.328 44.458 8.968-44.737 1.664-8.854-7.304zm148.564-31.668l-58.133-16.079h-.47l-.01.045c-.024.048-.084.048-.084.048h-.088l-.052.009a.085.085 0 00-.042.051l-.006.033c-.094 0-.094.093-.094.093v.742l17.938 29.557c.188.279.376.372.658.372h.188l8.076-2.696 12.397 12.548.094.093c0 .093.094.093.094.093l.244-.001a.314.314 0 00.226-.092l.187-.186.046-.01a.086.086 0 00.042-.05l.006-.033c.057 0 .079-.034.088-.06l.006-.033 6.105-18.868 12.678-4.182c.282-.093.47-.372.47-.744 0-.278-.282-.557-.564-.65zm-159.121 9.48l-6.48 2.138 9.955 10.131-3.475-12.269zm128.223 2.138l6.48-2.138 3.475 12.269-9.955-10.131zM98.986 258.482L127.254 278c.047 0 .071.023.094.046.012.012.024.024.039.032l.055.015c0 .046.024.07.047.093.012.012.024.023.033.038l3.865 13.439 5.259-16.265-37.66-16.916zM261.958 278l-28.269-19.518 37.66 16.916-5.259 16.265-3.865-13.439-.012-.017a.179.179 0 01-.013-.014l-.008-.007c-.023-.023-.047-.047-.047-.093l-.055-.015a.17.17 0 01-.039-.032c-.023-.023-.046-.046-.093-.046zm-203.27-24.069l7.432 2.313c.123.049.246.097.32.267l20.228 26.228.147.34c.061.141.072.165.044.239l-.02.051c-.04.097-.048.116-.094.139l-.561.234-31.225 2.388c-.296.023-.456-.111-.616-.244l-2.333-3.035-20.135-.528a.745.745 0 01-.493-.195l-4.819-5.004c-.16-.134-.27-.388-.17-.63.013-.206.15-.363.285-.52l14.442-8.618.143-.056c.154-.055.33-.091.45.01l8.737 2.971-1.729-7.299-.034-.079c-.03-.068-.003-.159.034-.255l.029-.072c.025-.06.059-.099.093-.139a.753.753 0 00.05-.061l.043-.078 9.023-8.164c.223-.193.52-.216.73-.203zm142.135 2.313l-7.432-2.313c-.21-.013-.506.01-.729.203l-9.023 8.164-.043.078a.775.775 0 01-.05.061c-.034.04-.068.079-.093.139l-.029.072c-.037.096-.063.187-.034.255l.034.079 1.729 7.299-8.737-2.971c-.12-.101-.296-.065-.45-.01l-.143.056-14.441 8.618c-.137.157-.273.314-.286.52-.1.242.011.496.17.63l4.819 5.004c.16.133.284.182.493.195l20.135.528 2.333 3.035c.16.133.32.267.616.244l31.225-2.388.561-.234c.046-.023.054-.042.094-.139l.021-.051c.027-.074.017-.098-.045-.239l-.147-.34-20.228-26.228c-.074-.17-.197-.218-.32-.267zm-12.137 26.687l1.401 1.82 17.093-1.309-18.494-.511zm-133.303 1.82l-1.4-1.82 18.494.511-17.094 1.309zm39.095-27.477l15.872 26.117 14.932-4.926-30.804-21.191zm150.575 26.117l-15.872-26.117 30.804 21.191-14.932 4.926zm-68.556-14.713l-13.39 7.98 3.945 4.166 49.213 1.438-39.768-13.584zm-148.094 7.98l13.391-7.98 39.768 13.584-49.213-1.438-3.945-4.166zm30.403-21.274l-7.91 7.2 32.571 18.183-17.931-23.278-6.73-2.105zm126.794 7.2l7.909-7.2 6.73 2.105 17.931 23.278-32.57-18.183zm-.191 1.682l1.569 6.457 26.618 9.145-11.391-6.273-16.796-9.329zm-133.135 6.457l-1.568-6.457 16.796 9.329 11.391 6.273-26.618-9.145zm183.293-12.892l24.606 11.061 12.021 5.39 10.613-3.532-47.24-12.919zM125.47 268.892l-24.606-11.061 47.24 12.919-10.613 3.532-12.021-5.39zm20.629-55.952h-.373l-10.532 3.883-.097.039c-.206.101-.288.273-.369.516-.073.215.024.375.158.522l.121.125 9.787 8.043-1.585 19.323v.277l.01.055c.018.053.056.1.074.12l.065.065c.075.071.15.13.224.13l.14.001c.05.003.065.018.14.092l.149-.001a.315.315 0 00.168-.047l.056-.045 11.464-4.715 3.262 3.976.066.055c.051.037.113.074.182.111l.218.111 12.209 2.496h.094l.111-.01a.72.72 0 00.355-.175l24.792-23.483.186-.185v-.739h-.466l-50.609-10.54zm93.381-4.699a.488.488 0 00-.387-.181c-.175 0-.35 0-.525.173l-2.101 1.645-.079-.027c-.169-.035-.383.039-.533.113l-38.506 30.641-.175.173.001.788c.003.022.017.077.087.077 0 0 0 .087.087.087l.088.087h.35l57.846 5.193h.087l.105-.01a.995.995 0 00.21-.065l.21-.098 3.764.259h.087l.08-.005c.167-.021.37-.106.445-.254 0-.26 0-.433-.087-.693l-7.439-17.917-.039-.083c-.126-.213-.437-.349-.749-.349l-3.063.692.876-4.933v-.433l-.006-.031c-.008-.025-.029-.056-.082-.056L239.53 208.32l-.05-.079zM59.395 225.236l-15.472 3.883-25.817 6.564 6.99 8.691 11.744 2.219 22.555-21.357zm119.232 3.883l15.471-3.883-22.555 21.357-11.743-2.219-6.991-8.691 25.818-6.564zm-61.285.147l-18.64 4.328 21.878 11.771 3.588.26-6.826-16.359zm116.063 4.328l18.64-4.328 6.826 16.359-3.588-.26-21.878-11.771zm-137.329.173l-28.967 7.097 50.583 4.501-21.616-11.598zm105.736 7.097l28.967-7.097 21.616 11.598-50.583-4.501zm-185.104-4.441l-5.499 7.396 8.668-3.513-3.169-3.883zm129.204 7.396l5.499-7.396 3.169 3.883-8.668 3.513zm-90.897-18.86l-43.62 1.664-1.397 16.549 6.151-8.228.186-.185c.075-.074.15-.148.224-.175l.056-.01 38.4-9.615zm91.084 1.664l43.619-1.664-38.4 9.615-.056.01c-.074.027-.149.101-.224.175l-.186.185-6.151 8.228 1.398-16.549zm-45.91-14.062l-33.78 26.745 24.679-8.049 2.975-.952 6.126-17.744zm100.923 26.745l33.78-26.745-6.126 17.744-2.975.952-24.679 8.049zm-107.049-7.53l-13.827 4.501 14.002-3.462-.175-1.039zm120.876 4.501l13.827-4.501.175 1.039-14.002 3.462zm33.518-11.771l-18.553 6.318.263 1.558.525-.086c.14 0 .28 0 .42.044l.105.042.437.26 16.015-3.809.788-4.327zm-153.256 6.318l18.553-6.318-.788 4.327-16.015 3.809-.437-.26-.105-.042c-.14-.044-.28-.044-.42-.044l-.526.086-.262-1.558zm143.629-21.033l-2.187 1.645-6.126 17.83 17.852-6.059-9.539-13.416zm-136.891 1.645l2.188-1.645 9.539 13.416-17.852 6.059 6.125-17.83zm-90.637 2.983l-9.134 3.328 8.855 7.304 44.737-1.664-44.458-8.968zm125.57 3.328l9.133-3.328 44.458 8.968-44.737 1.664-8.854-7.304zm148.564-31.668L227.303 170h-.47l-.01.045c-.024.048-.084.048-.084.048h-.088l-.052.01a.083.083 0 00-.042.05l-.006.033c-.094 0-.094.093-.094.093v.743l17.938 29.556c.188.279.376.372.658.372h.188l8.076-2.695 12.397 12.547.094.093c0 .093.094.093.094.093l.244-.001a.314.314 0 00.226-.092l.187-.185.046-.011a.08.08 0 00.042-.05l.006-.033c.057 0 .079-.033.088-.06l.006-.033 6.105-18.867 12.678-4.183c.282-.093.47-.371.47-.743 0-.279-.282-.558-.564-.651zm-159.121 9.48l-6.48 2.138 9.955 10.131-3.475-12.269zm128.223 2.138l6.48-2.138 3.475 12.269-9.955-10.131zM98.986 174.554l28.268 19.518c.047 0 .071.024.094.047.012.011.024.023.039.032l.055.014c0 .047.024.07.047.093.012.012.024.023.033.038l3.865 13.439 5.259-16.265-37.66-16.916zm162.972 19.518l-28.269-19.518 37.66 16.916-5.259 16.265-3.865-13.439c-.009-.015-.021-.026-.033-.038-.023-.023-.047-.046-.047-.093l-.055-.014a.195.195 0 01-.023-.017l-.016-.015c-.023-.023-.046-.047-.093-.047zm-68.567-24.069l7.432 2.313c.123.049.246.098.32.267l20.228 26.229.147.339c.062.141.072.165.045.239l-.021.052c-.04.096-.048.116-.094.138l-.561.235-31.225 2.387c-.296.023-.456-.11-.616-.244l-2.333-3.034-20.135-.529a.742.742 0 01-.493-.195l-4.819-5.004c-.159-.134-.27-.388-.17-.63.013-.206.149-.363.286-.519l14.441-8.619.143-.056c.154-.055.33-.09.45.01l8.737 2.971-1.729-7.298-.034-.08c-.029-.068-.003-.159.034-.254l.029-.072a.475.475 0 01.093-.139c.017-.02.034-.04.05-.062l.043-.077 9.023-8.165c.223-.193.519-.216.729-.203zM66.12 172.316l-7.432-2.313c-.21-.013-.506.01-.729.203l-9.023 8.165-.043.077a1 1 0 01-.05.062.475.475 0 00-.093.139l-.03.072c-.036.095-.062.186-.033.254l.034.08 1.729 7.298-8.737-2.971c-.12-.1-.296-.065-.45-.01l-.143.056-14.441 8.619c-.137.156-.273.313-.286.519-.1.242.01.496.17.63l4.82 5.004a.74.74 0 00.492.195l20.135.529 2.333 3.034c.16.134.32.267.616.244l31.225-2.387.561-.235c.046-.022.054-.042.094-.138l.02-.052c.028-.074.017-.098-.044-.239l-.147-.339-20.228-26.229c-.074-.169-.197-.218-.32-.267zm122.566 26.687l1.401 1.821 17.093-1.31-18.494-.511zm-133.303 1.821l-1.4-1.821 18.494.511-17.094 1.31zm173.798-27.478l15.872 26.117 14.932-4.926-30.804-21.191zM110.35 199.463l-15.872-26.117 30.804 21.191-14.932 4.926zM41.794 184.75l-13.39 7.98 3.945 4.166 49.213 1.438-39.768-13.584zm121.313 7.98l13.39-7.98 39.768 13.584-49.213-1.438-3.945-4.166zm-104.3-21.274l-7.91 7.2 32.57 18.184-17.931-23.279-6.73-2.105zm126.793 7.2l7.909-7.2 6.73 2.105 17.931 23.279-32.57-18.184zm-134.894 1.682l1.569 6.457 26.618 9.145-11.39-6.272-16.797-9.33zm136.272 6.457l-1.569-6.457 16.796 9.33 11.391 6.272-26.618-9.145zm-86.114-12.891l24.606 11.06 12.021 5.391 10.613-3.532-47.24-12.919zm159.309 11.06l-24.606-11.06 47.24 12.919-10.613 3.532-12.021-5.391zM92.6 0l58.133 16.08c.282.092.564.37.564.65 0 .372-.188.65-.47.743l-12.678 4.183-6.105 18.867-.006.033c-.009.027-.031.06-.088.06l-.006.033a.085.085 0 01-.042.05l-.046.01-.187.186a.312.312 0 01-.226.092l-.244.001s-.094 0-.094-.093l-.094-.093-12.397-12.547-8.077 2.695h-.187c-.282 0-.47-.093-.658-.372L91.754 1.022V.279s0-.093.094-.093c0 0 0-.06.048-.083l.052-.01h.088s.06 0 .084-.048L92.13 0h.47zm11.79 38.06a.49.49 0 01.387.18l.05.08 10.502 14.714a.08.08 0 01.082.056l.006.03v.434l-.876 4.933 3.063-.692c.311 0 .623.136.749.35l.039.082 7.439 17.917c.087.26.087.433.087.693-.075.148-.279.233-.445.254l-.08.005h-.088l-3.763-.26-.21.099a.94.94 0 01-.21.065l-.105.01h-.087l-57.846-5.193h-.35l-.088-.087c-.087 0-.087-.087-.087-.087-.053 0-.074-.03-.082-.056l-.006-.03v-.78l.175-.172 38.506-30.64c.15-.075.364-.149.533-.114l.079.027 2.101-1.645c.175-.173.35-.173.525-.173zm-93.367 4.88h.373l50.609 10.54h.465l.001.74-.186.184-24.792 23.483a.714.714 0 01-.355.175l-.111.01h-.094l-12.21-2.496-.217-.11a1.62 1.62 0 01-.182-.112l-.066-.055-3.262-3.976-11.464 4.715-.056.045a.32.32 0 01-.168.047h-.15c-.074-.073-.089-.088-.14-.091H8.88c-.074 0-.149-.06-.224-.13l-.065-.066a.372.372 0 01-.074-.12l-.01-.055v-.277l1.585-19.323-9.787-8.043-.12-.125c-.135-.147-.232-.307-.16-.522.082-.243.164-.415.37-.516l.097-.04 10.532-3.882zM92.6 83.928l58.133 16.079c.282.093.564.372.564.65 0 .372-.188.651-.47.744l-12.678 4.182-6.105 18.868-.006.033c-.009.026-.031.06-.088.06l-.006.033a.086.086 0 01-.042.05l-.046.01-.187.186a.314.314 0 01-.226.092l-.244.001s-.094 0-.094-.093l-.094-.093-12.397-12.548-8.077 2.696h-.187c-.282 0-.47-.093-.658-.372L91.754 84.949v-.742s0-.093.094-.093c0 0 0-.06.048-.084l.052-.01h.088s.06 0 .084-.047l.01-.045h.47zm11.79 38.06a.49.49 0 01.387.18l.05.08 10.502 14.714a.08.08 0 01.082.056l.006.03v.433l-.876 4.934 3.063-.693c.311 0 .623.137.749.35l.039.083 7.439 17.917c.087.26.087.433.087.692-.075.149-.279.234-.445.255l-.08.005h-.088l-3.763-.26c-.14.07-.28.139-.42.164l-.105.01h-.087l-57.846-5.194h-.35l-.088-.086c-.087 0-.087-.087-.087-.087-.053 0-.074-.031-.082-.056l-.006-.03v-.779l.175-.173 38.506-30.641c.15-.074.364-.148.533-.113l.079.027 2.101-1.645c.175-.173.35-.173.525-.173zm-93.367 4.879L.49 130.751l-.097.039c-.206.101-.288.273-.37.515-.072.216.025.376.16.523l.12.124 9.787 8.044-1.585 19.323v.277l.01.055c.018.053.056.1.074.12l.121.115c.056.047.112.08.168.08l.14.001c.05.003.065.017.14.091h.149a.315.315 0 00.168-.047l.056-.045 11.463-4.715 3.263 3.975.066.056c.05.037.113.074.182.111l.218.111L36.934 162h.093l.11-.01a.717.717 0 00.355-.175l24.793-23.483.186-.185v-.74h-.466l-50.61-10.54h-.372zm185.685 10.54l-50.609-10.54h-.373l-10.532 3.884-.097.039c-.206.101-.288.273-.369.515-.073.216.024.376.158.523l.121.124 9.787 8.044-1.585 19.323v.277l.01.055c.018.053.056.1.074.12l.121.115c.056.047.112.08.168.08l.14.001c.05.003.065.017.14.091h.149a.315.315 0 00.168-.047l.056-.045 11.464-4.715 3.262 3.975.066.056c.101.074.251.148.4.222L171.636 162h.094l.111-.01a.72.72 0 00.355-.175l24.792-23.483.186-.185v-.74h-.466zm42.772-15.239a.49.49 0 00-.387-.18c-.175 0-.35 0-.525.173l-2.101 1.645-.079-.027c-.169-.035-.383.039-.533.113l-38.506 30.641-.175.173.001.788c.003.022.017.077.087.077 0 0 0 .087.087.087l.088.086h.35l57.846 5.194h.087l.105-.01c.14-.025.28-.094.42-.164l3.764.26h.087l.08-.005c.167-.021.37-.106.445-.255 0-.259 0-.432-.087-.692l-7.439-17.917-.039-.083c-.126-.213-.437-.35-.749-.35l-3.063.693.876-4.934v-.433l-.006-.03c-.008-.025-.029-.056-.082-.056l-10.502-14.714-.05-.08zM59.395 139.164l-15.472 3.883-25.817 6.564 6.99 8.691 11.744 2.219 22.555-21.357zm119.232 3.883l15.471-3.883-22.555 21.357-11.743-2.219-6.991-8.691 25.818-6.564zm73.418.147l-18.64 4.328 21.878 11.771 3.588.26-6.826-16.359zm-153.344 4.328l18.641-4.328 6.826 16.359-3.588-.26-21.879-11.771zm-2.625.173l-28.967 7.097 50.583 4.501-21.616-11.598zm105.736 7.097l28.967-7.097 21.616 11.598-50.583-4.501zm-50.401-4.441l-5.499 7.396 8.668-3.513-3.169-3.883zm-140.202 7.396l5.5-7.396 3.168 3.883-8.668 3.513zm178.509-18.861l-43.619 1.665-1.398 16.549 6.151-8.228.186-.185c.075-.074.15-.148.224-.175l.056-.01 38.4-9.616zm-178.322 1.665l43.619-1.665-38.4 9.616-.056.01c-.075.027-.15.101-.224.175l-.186.185-6.151 8.228 1.398-16.549zm223.496-14.062l-33.78 26.745 24.679-8.049 2.975-.953 6.126-17.743zM66.409 153.234l33.78-26.745-6.126 17.743-2.975.953-24.679 8.049zm162.357-7.53l-13.827 4.501 14.002-3.462-.175-1.039zm-148.53 4.501l13.827-4.501.175 1.039-14.002 3.462zm168.221-11.772l-18.553 6.319.263 1.558.525-.087c.14 0 .28 0 .42.045l.105.042.437.259 16.015-3.808.788-4.328zm-153.256 6.319l18.553-6.319-.788 4.328-16.015 3.808-.437-.259-.105-.042c-.14-.045-.28-.045-.42-.045l-.526.087-.262-1.558zm8.926-21.033l-2.188 1.645-6.125 17.83 17.852-6.059-9.539-13.416zm132.516 1.645l2.187-1.645 9.539 13.416-17.852 6.059 6.126-17.83zm-225.34 2.983l-9.135 3.328 8.855 7.304 44.737-1.664-44.458-8.968zm125.569 3.328l9.133-3.328 44.458 8.968-44.737 1.664-8.854-7.304zm148.564-31.668l-58.133-16.08h-.47l-.01.046c-.024.048-.084.048-.084.048h-.088l-.052.01a.084.084 0 00-.042.05l-.006.033c-.094 0-.094.093-.094.093v.742l17.938 29.557c.188.279.376.372.658.372h.188l8.076-2.696 12.397 12.548.094.093c0 .093.094.093.094.093l.244-.001a.314.314 0 00.226-.092l.187-.186.046-.01a.086.086 0 00.042-.05l.006-.033c.057 0 .079-.034.088-.06l.006-.033 6.105-18.868 12.678-4.182c.282-.093.47-.372.47-.744 0-.278-.282-.557-.564-.65zm-159.121 9.48l-6.48 2.138 9.955 10.131-3.475-12.269zm128.223 2.138l6.48-2.138 3.475 12.269-9.955-10.131zM98.986 88.482L127.254 108c.047 0 .071.023.094.046a.17.17 0 00.039.032l.055.015c0 .046.024.07.047.093.012.012.024.023.033.038l3.865 13.439 5.259-16.265-37.66-16.916zM261.958 108l-28.269-19.518 37.66 16.916-5.259 16.265-3.865-13.439a.25.25 0 00-.025-.031l-.008-.007c-.023-.023-.047-.047-.047-.093l-.055-.015a.17.17 0 01-.039-.032c-.023-.023-.046-.046-.093-.046zM58.688 83.93l7.432 2.314c.123.049.246.097.32.267l20.228 26.228.147.34c.061.141.072.165.044.239l-.02.051c-.04.097-.048.116-.094.139l-.561.234-31.225 2.388c-.296.023-.456-.111-.616-.244l-2.333-3.035-20.135-.528a.745.745 0 01-.493-.195l-4.819-5.004c-.16-.134-.27-.388-.17-.63.013-.206.15-.363.285-.52l14.442-8.618.143-.056c.154-.055.33-.09.45.01l8.737 2.971-1.729-7.299-.034-.08c-.03-.067-.003-.158.034-.254l.029-.072c.025-.06.059-.1.093-.139a.837.837 0 00.05-.061l.043-.078 9.023-8.164c.223-.193.52-.216.73-.203zm142.135 2.314l-7.432-2.313c-.21-.013-.506.01-.729.203l-9.023 8.165-.043.077a.775.775 0 01-.05.061c-.034.04-.068.079-.093.14l-.029.072c-.037.095-.063.186-.034.254l.034.08 1.729 7.298-8.737-2.971c-.12-.1-.296-.065-.45-.01l-.143.056-14.441 8.618c-.137.157-.273.314-.286.52-.1.242.011.496.17.63l4.819 5.004c.16.133.284.182.493.195l20.135.528 2.333 3.035c.16.133.32.267.616.244l31.225-2.388.561-.234c.046-.023.054-.042.094-.139l.021-.051c.027-.074.017-.098-.045-.239l-.147-.34-20.228-26.228c-.074-.17-.197-.218-.32-.267zm-12.137 26.687l1.401 1.82 17.093-1.309-18.494-.511zm-133.303 1.82l-1.4-1.82 18.494.511-17.094 1.309zm39.095-27.477l15.872 26.117 14.932-4.926-30.804-21.191zm150.575 26.117l-15.872-26.117 30.804 21.191-14.932 4.926zm-68.556-14.713l-13.39 7.98 3.945 4.166 49.213 1.438-39.768-13.584zm-148.094 7.98l13.391-7.98 39.768 13.584-49.213-1.438-3.945-4.166zm30.403-21.274l-7.91 7.2 32.571 18.183-17.931-23.278-6.73-2.105zm126.794 7.2l7.909-7.2 6.73 2.105 17.931 23.278-32.57-18.183zm-.191 1.681l1.569 6.458 26.618 9.145-11.391-6.273-16.796-9.33zm-133.135 6.458l-1.568-6.457 16.796 9.329 11.391 6.273-26.618-9.145zm183.293-12.892l24.606 11.06 12.021 5.391 10.613-3.532-47.24-12.919zM125.47 98.891l-24.606-11.06 47.24 12.919-10.613 3.532-12.021-5.39zm20.629-55.951h-.373l-10.532 3.883-.097.039c-.206.101-.288.273-.369.516-.073.215.024.375.158.522l.121.125 9.787 8.043-1.585 19.323v.277l.01.055c.018.053.056.1.074.12l.065.065c.075.071.15.13.224.13l.14.001c.05.003.065.018.14.092l.149-.001a.321.321 0 00.168-.047l.056-.045 11.464-4.715 3.262 3.976.066.055c.051.037.113.074.182.111l.218.111 12.209 2.496h.094l.111-.01c.146-.027.28-.1.355-.175l24.792-23.483.186-.185v-.74h-.466l-50.609-10.54zm93.381-4.7a.49.49 0 00-.387-.18c-.175 0-.35 0-.525.173l-2.101 1.645-.079-.027c-.169-.035-.383.04-.533.113l-38.506 30.64-.175.174.001.788c.003.022.017.077.087.077 0 0 0 .087.087.087l.088.087h.35l57.846 5.193h.087l.105-.01a.995.995 0 00.21-.065l.21-.098 3.764.26h.087l.08-.006c.167-.021.37-.106.445-.254 0-.26 0-.433-.087-.693l-7.439-17.917-.039-.083c-.126-.212-.437-.35-.749-.35l-3.063.693.876-4.934v-.432l-.006-.03c-.008-.026-.029-.057-.082-.057L239.53 38.32l-.05-.08zM59.395 55.237L43.923 59.12l-25.817 6.564 6.99 8.691 11.744 2.219 22.555-21.357zm119.232 3.883l15.471-3.883-22.555 21.357-11.743-2.219-6.991-8.69 25.818-6.565zm-61.285.147l-18.64 4.328 21.878 11.771 3.588.26-6.826-16.359zm116.063 4.328l18.64-4.328 6.826 16.359-3.588-.26-21.878-11.771zm-137.329.173L67.11 70.865l50.583 4.5-21.616-11.598zm105.736 7.098l28.967-7.098 21.616 11.598-50.583-4.5zM16.708 66.423L11.21 73.82l8.668-3.513-3.169-3.883zm129.204 7.396l5.499-7.396 3.169 3.883-8.668 3.513zM55.015 54.96l-43.62 1.664-1.397 16.55 6.151-8.23.186-.184c.075-.074.15-.148.224-.175l.056-.01 38.4-9.615zm91.084 1.664l43.619-1.664-38.4 9.615-.056.01c-.074.027-.149.1-.224.175l-.186.185-6.151 8.228 1.398-16.549zm-45.91-14.062l-33.78 26.745 24.679-8.05 2.975-.951 6.126-17.744zm100.923 26.745l33.78-26.745-6.126 17.744-2.975.952-24.679 8.05zm-107.049-7.53l-13.827 4.501 14.002-3.462-.175-1.039zm120.876 4.501l13.827-4.5.175 1.038-14.002 3.462zm33.518-11.771l-18.553 6.318.263 1.558.525-.087c.14 0 .28 0 .42.045l.105.042.437.26 16.015-3.809.788-4.327zM95.201 60.824l18.553-6.318-.788 4.327-16.015 3.809-.437-.26-.105-.042c-.14-.045-.28-.045-.42-.045l-.526.087-.262-1.558zM238.83 39.791l-2.187 1.645-6.126 17.83 17.852-6.059-9.539-13.416zm-136.891 1.645l2.188-1.645 9.539 13.416-17.852 6.06 6.125-17.831zm-90.637 2.983l-9.134 3.328 8.855 7.304 44.737-1.664-44.458-8.968zm125.57 3.328l9.133-3.328 44.458 8.968-44.737 1.664-8.854-7.304zM285.436 16.08L227.303 0h-.47l-.01.045c-.024.048-.084.048-.084.048h-.088l-.052.01a.084.084 0 00-.042.05l-.006.033c-.094 0-.094.093-.094.093v.743l17.938 29.556c.188.28.376.372.658.372h.188l8.076-2.695 12.397 12.547.094.093c0 .093.094.093.094.093h.244a.312.312 0 00.226-.093l.187-.185.046-.01a.085.085 0 00.042-.051l.006-.033c.057 0 .079-.033.088-.06l.006-.033 6.105-18.867 12.678-4.183c.282-.093.47-.371.47-.743 0-.28-.282-.558-.564-.65zm-159.121 9.48l-6.48 2.138 9.955 10.13-3.475-12.268zm128.223 2.138l6.48-2.138 3.475 12.269-9.955-10.13zM98.986 4.554l28.268 19.518c.047 0 .071.024.094.047a.205.205 0 00.039.032l.055.014c0 .047.024.07.047.093a.202.202 0 01.033.038l3.865 13.439 5.259-16.265-37.66-16.916zm162.972 19.518L233.689 4.554l37.66 16.916-5.259 16.265-3.865-13.44c-.009-.014-.021-.025-.033-.037-.023-.023-.047-.046-.047-.093l-.055-.014a.164.164 0 01-.023-.017l-.016-.015c-.023-.023-.046-.047-.093-.047zM193.391.002l7.432 2.314c.123.049.246.098.32.267l20.228 26.229.147.339c.062.142.072.165.045.239l-.021.052c-.04.096-.048.116-.094.138l-.561.235-31.225 2.387c-.296.023-.456-.11-.616-.244l-2.333-3.034-20.135-.529a.743.743 0 01-.493-.195l-4.819-5.004c-.159-.134-.27-.388-.17-.63.013-.206.149-.363.286-.52l14.441-8.618.143-.056c.154-.055.33-.09.45.01l8.737 2.971-1.729-7.298-.034-.08c-.029-.068-.003-.159.034-.254l.029-.072a.51.51 0 01.093-.14.993.993 0 00.05-.06l.043-.078 9.023-8.165c.223-.193.519-.216.729-.203zM66.12 2.317L58.688.003c-.21-.013-.506.01-.729.203l-9.023 8.165-.043.077a.826.826 0 01-.05.062.475.475 0 00-.093.139l-.03.072c-.036.095-.062.186-.033.254l.034.08 1.729 7.298-8.737-2.971c-.12-.1-.296-.065-.45-.01l-.143.056-14.441 8.619c-.137.156-.273.313-.286.52-.1.24.01.495.17.63l4.82 5.003c.16.134.283.183.492.195l20.135.529 2.333 3.034c.16.134.32.267.616.244l31.225-2.387.561-.235c.046-.022.054-.042.094-.138l.02-.052c.028-.074.017-.098-.044-.239l-.147-.34L66.44 2.584c-.074-.17-.197-.218-.32-.267zm122.566 26.687l1.401 1.82 17.093-1.31-18.494-.51zm-133.303 1.82l-1.4-1.82 18.494.51-17.094 1.31zM229.181 3.347l15.872 26.117 14.932-4.926-30.804-21.191zM110.35 29.463L94.478 3.346l30.804 21.191-14.932 4.926zM41.794 14.75l-13.39 7.98 3.945 4.166 49.213 1.438L41.794 14.75zm121.313 7.98l13.39-7.98 39.768 13.584-49.213-1.438-3.945-4.166zM58.807 1.456l-7.91 7.2 32.57 18.184L65.536 3.56l-6.73-2.104zm126.793 7.2l7.909-7.2 6.73 2.105L218.17 26.84 185.6 8.656zM50.706 10.338l1.569 6.457 26.618 9.145-11.39-6.273-16.797-9.33zm136.272 6.457l-1.569-6.457 16.796 9.33 11.391 6.272-26.618-9.145zM100.864 3.904l24.606 11.06 12.021 5.39 10.613-3.531-47.24-12.92zm159.309 11.06l-24.606-11.06 47.24 12.919-10.613 3.532-12.021-5.391zM92.6 339l58.133 16.079c.282.093.564.372.564.651 0 .372-.188.65-.47.743l-12.678 4.183-6.105 18.867-.006.033c-.009.027-.031.06-.088.06l-.006.033a.08.08 0 01-.042.05l-.046.011-.187.185a.314.314 0 01-.226.092l-.244.001s-.094 0-.094-.093l-.094-.093-12.397-12.547-8.077 2.695h-.187c-.282 0-.47-.093-.658-.372l-17.938-29.556v-.743s0-.093.094-.093c0 0 0-.06.048-.083l.052-.01h.088s.06 0 .084-.048l.01-.045h.47zm11.79 38.06c.146 0 .292.06.387.181l.05.079 10.502 14.714a.08.08 0 01.082.056l.006.031v.433l-.876 4.933 3.063-.692c.311 0 .623.136.749.349l.039.083 7.439 17.917c.087.26.087.433.087.693-.075.148-.279.233-.445.254l-.08.005h-.088l-3.763-.259-.21.098a.995.995 0 01-.21.065l-.105.01h-.087l-57.846-5.193h-.35l-.088-.087c-.087 0-.087-.087-.087-.087-.053 0-.074-.031-.082-.056l-.006-.03v-.779l.175-.173 38.506-30.641c.15-.074.364-.148.533-.113l.079.027 2.101-1.645c.175-.173.35-.173.525-.173zm-93.367 4.88h.373l50.609 10.54h.465l.001.739-.186.185-24.792 23.483a.717.717 0 01-.355.175l-.111.01h-.094l-12.21-2.496-.217-.111a1.62 1.62 0 01-.182-.111l-.066-.055-3.262-3.976-11.464 4.715-.056.045a.315.315 0 01-.168.047l-.15.001c-.074-.074-.089-.089-.14-.092l-.139-.001c-.074 0-.149-.059-.224-.13l-.065-.065a.378.378 0 01-.074-.12l-.01-.055v-.277l1.585-19.323-9.787-8.043-.12-.125c-.135-.147-.232-.307-.16-.522.082-.243.164-.415.37-.516l.097-.039 10.532-3.883zM92.6 422.928l58.133 16.079c.282.093.564.372.564.65 0 .372-.188.651-.47.744l-12.678 4.182-6.105 18.868-.006.033c-.009.026-.031.06-.088.06l-.006.033a.086.086 0 01-.042.05l-.046.01-.187.186a.314.314 0 01-.226.092l-.244.001s-.094 0-.094-.093l-.094-.093-12.397-12.548-8.077 2.696h-.187c-.282 0-.47-.093-.658-.372l-17.938-29.557v-.742s0-.093.094-.093c0 0 0-.06.048-.084l.052-.009h.088s.06 0 .084-.048l.01-.045h.47zm11.79 38.06a.49.49 0 01.387.18l.05.08 10.502 14.714a.08.08 0 01.082.056l.006.03v.433l-.876 4.934 3.063-.693c.311 0 .623.137.749.35l.039.083 7.439 17.917c.087.26.087.433.087.692-.075.149-.279.234-.445.255l-.08.005h-.088l-3.763-.26c-.14.07-.28.139-.42.164l-.105.01h-.087l-57.846-5.194h-.35l-.088-.086c-.087 0-.087-.087-.087-.087-.053 0-.074-.031-.082-.056l-.006-.03v-.779l.175-.173 38.506-30.641c.15-.074.364-.148.533-.113l.079.027 2.101-1.645c.175-.173.35-.173.525-.173zm-93.367 4.879L.49 469.751l-.097.039c-.206.101-.288.273-.37.515-.072.216.025.376.16.523l.12.124 9.787 8.044-1.585 19.323v.277l.01.055c.018.053.056.1.074.12l.121.115c.056.047.112.08.168.08l.14.001c.05.003.065.017.14.091h.149a.315.315 0 00.168-.047l.056-.045 11.463-4.715 3.263 3.975.066.056c.05.037.113.074.182.111l.218.111L36.934 501h.093l.11-.01a.717.717 0 00.355-.175l24.793-23.483.186-.185v-.74h-.466l-50.61-10.54h-.372zm185.685 10.54l-50.609-10.54h-.373l-10.532 3.884-.097.039c-.206.101-.288.273-.369.515-.073.216.024.376.158.523l.121.124 9.787 8.044-1.585 19.323v.277l.01.055c.018.053.056.1.074.12l.121.115c.056.047.112.08.168.08l.14.001c.05.003.065.017.14.091h.149a.315.315 0 00.168-.047l.056-.045 11.464-4.715 3.262 3.975.066.056c.101.074.251.148.4.222L171.636 501h.094l.111-.01a.72.72 0 00.355-.175l24.792-23.483.186-.185v-.74h-.466zm42.772-15.239a.49.49 0 00-.387-.18c-.175 0-.35 0-.525.173l-2.101 1.645-.079-.027c-.169-.035-.383.039-.533.113l-38.506 30.641-.175.173.001.788c.003.022.017.077.087.077 0 0 0 .087.087.087l.088.086h.35l57.846 5.194h.087l.105-.01c.14-.025.28-.094.42-.164l3.764.26h.087l.08-.005c.167-.021.37-.106.445-.255 0-.259 0-.432-.087-.692l-7.439-17.917-.039-.083c-.126-.213-.437-.35-.749-.35l-3.063.693.876-4.934v-.433l-.006-.03c-.008-.025-.029-.056-.082-.056l-10.502-14.714-.05-.08zM59.395 478.164l-15.472 3.883-25.817 6.564 6.99 8.691 11.744 2.219 22.555-21.357zm119.232 3.883l15.471-3.883-22.555 21.357-11.743-2.219-6.991-8.691 25.818-6.564zm73.418.147l-18.64 4.328 21.878 11.771 3.588.26-6.826-16.359zm-153.344 4.328l18.641-4.328 6.826 16.359-3.588-.26-21.879-11.771zm-2.625.173l-28.967 7.097 50.583 4.501-21.616-11.598zm105.736 7.097l28.967-7.097 21.616 11.598-50.583-4.501zm-50.401-4.441l-5.499 7.396 8.668-3.513-3.169-3.883zm-140.202 7.396l5.5-7.396 3.168 3.883-8.668 3.513zm178.509-18.861l-43.619 1.665-1.398 16.549 6.151-8.228.186-.185c.075-.074.15-.148.224-.175l.056-.01 38.4-9.616zm-178.322 1.665l43.619-1.665-38.4 9.616-.056.01c-.075.027-.15.101-.224.175l-.186.185-6.151 8.228 1.398-16.549zm223.496-14.062l-33.78 26.745 24.679-8.049 2.975-.953 6.126-17.743zM66.409 492.234l33.78-26.745-6.126 17.743-2.975.953-24.679 8.049zm162.357-7.53l-13.827 4.501 14.002-3.462-.175-1.039zm-148.53 4.501l13.827-4.501.175 1.039-14.002 3.462zm168.221-11.772l-18.553 6.319.263 1.558.525-.087c.14 0 .28 0 .42.045l.105.042.437.259 16.015-3.808.788-4.328zm-153.256 6.319l18.553-6.319-.788 4.328-16.015 3.808-.437-.259-.105-.042c-.14-.045-.28-.045-.42-.045l-.526.087-.262-1.558zm8.926-21.033l-2.188 1.645-6.125 17.83 17.852-6.059-9.539-13.416zm132.516 1.645l2.187-1.645 9.539 13.416-17.852 6.059 6.126-17.83zm-225.34 2.983l-9.135 3.328 8.855 7.304 44.737-1.664-44.458-8.968zm125.569 3.328l9.133-3.328 44.458 8.968-44.737 1.664-8.854-7.304zm148.564-31.668l-58.133-16.079h-.47l-.01.045c-.024.048-.084.048-.084.048h-.088l-.052.009a.085.085 0 00-.042.051l-.006.033c-.094 0-.094.093-.094.093v.742l17.938 29.557c.188.279.376.372.658.372h.188l8.076-2.696 12.397 12.548.094.093c0 .093.094.093.094.093l.244-.001a.314.314 0 00.226-.092l.187-.186.046-.01a.086.086 0 00.042-.05l.006-.033c.057 0 .079-.034.088-.06l.006-.033 6.105-18.868 12.678-4.182c.282-.093.47-.372.47-.744 0-.278-.282-.557-.564-.65zm-159.121 9.48l-6.48 2.138 9.955 10.131-3.475-12.269zm128.223 2.138l6.48-2.138 3.475 12.269-9.955-10.131zM98.986 427.482L127.254 447c.047 0 .071.023.094.046.012.012.024.024.039.032l.055.015c0 .046.024.07.047.093.012.012.024.023.033.038l3.865 13.439 5.259-16.265-37.66-16.916zM261.958 447l-28.269-19.518 37.66 16.916-5.259 16.265-3.865-13.439-.012-.017a.179.179 0 01-.013-.014l-.008-.007c-.023-.023-.047-.047-.047-.093l-.055-.015a.17.17 0 01-.039-.032c-.023-.023-.046-.046-.093-.046zm-203.27-24.069l7.432 2.313c.123.049.246.097.32.267l20.228 26.228.147.34c.061.141.072.165.044.239l-.02.051c-.04.097-.048.116-.094.139l-.561.234-31.225 2.388c-.296.023-.456-.111-.616-.244l-2.333-3.035-20.135-.528a.745.745 0 01-.493-.195l-4.819-5.004c-.16-.134-.27-.388-.17-.63.013-.206.15-.363.285-.52l14.442-8.618.143-.056c.154-.055.33-.091.45.01l8.737 2.971-1.729-7.299-.034-.079c-.03-.068-.003-.159.034-.255l.029-.072c.025-.06.059-.099.093-.139a.753.753 0 00.05-.061l.043-.078 9.023-8.164c.223-.193.52-.216.73-.203zm142.135 2.313l-7.432-2.313c-.21-.013-.506.01-.729.203l-9.023 8.164-.043.078a.775.775 0 01-.05.061c-.034.04-.068.079-.093.139l-.029.072c-.037.096-.063.187-.034.255l.034.079 1.729 7.299-8.737-2.971c-.12-.101-.296-.065-.45-.01l-.143.056-14.441 8.618c-.137.157-.273.314-.286.52-.1.242.011.496.17.63l4.819 5.004c.16.133.284.182.493.195l20.135.528 2.333 3.035c.16.133.32.267.616.244l31.225-2.388.561-.234c.046-.023.054-.042.094-.139l.021-.051c.027-.074.017-.098-.045-.239l-.147-.34-20.228-26.228c-.074-.17-.197-.218-.32-.267zm-12.137 26.687l1.401 1.82 17.093-1.309-18.494-.511zm-133.303 1.82l-1.4-1.82 18.494.511-17.094 1.309zm39.095-27.477l15.872 26.117 14.932-4.926-30.804-21.191zm150.575 26.117l-15.872-26.117 30.804 21.191-14.932 4.926zm-68.556-14.713l-13.39 7.98 3.945 4.166 49.213 1.438-39.768-13.584zm-148.094 7.98l13.391-7.98 39.768 13.584-49.213-1.438-3.945-4.166zm30.403-21.274l-7.91 7.2 32.571 18.183-17.931-23.278-6.73-2.105zm126.794 7.2l7.909-7.2 6.73 2.105 17.931 23.278-32.57-18.183zm-.191 1.682l1.569 6.457 26.618 9.145-11.391-6.273-16.796-9.329zm-133.135 6.457l-1.568-6.457 16.796 9.329 11.391 6.273-26.618-9.145zm183.293-12.892l24.606 11.061 12.021 5.39 10.613-3.532-47.24-12.919zM125.47 437.892l-24.606-11.061 47.24 12.919-10.613 3.532-12.021-5.39zm20.629-55.952h-.373l-10.532 3.883-.097.039c-.206.101-.288.273-.369.516-.073.215.024.375.158.522l.121.125 9.787 8.043-1.585 19.323v.277l.01.055c.018.053.056.1.074.12l.065.065c.075.071.15.13.224.13l.14.001c.05.003.065.018.14.092l.149-.001a.315.315 0 00.168-.047l.056-.045 11.464-4.715 3.262 3.976.066.055c.051.037.113.074.182.111l.218.111 12.209 2.496h.094l.111-.01a.72.72 0 00.355-.175l24.792-23.483.186-.185v-.739h-.466l-50.609-10.54zm93.381-4.699a.488.488 0 00-.387-.181c-.175 0-.35 0-.525.173l-2.101 1.645-.079-.027c-.169-.035-.383.039-.533.113l-38.506 30.641-.175.173.001.788c.003.022.017.077.087.077 0 0 0 .087.087.087l.088.087h.35l57.846 5.193h.087l.105-.01a.995.995 0 00.21-.065l.21-.098 3.764.259h.087l.08-.005c.167-.021.37-.106.445-.254 0-.26 0-.433-.087-.693l-7.439-17.917-.039-.083c-.126-.213-.437-.349-.749-.349l-3.063.692.876-4.933v-.433l-.006-.031c-.008-.025-.029-.056-.082-.056L239.53 377.32l-.05-.079zM59.395 394.236l-15.472 3.883-25.817 6.564 6.99 8.691 11.744 2.219 22.555-21.357zm119.232 3.883l15.471-3.883-22.555 21.357-11.743-2.219-6.991-8.691 25.818-6.564zm-61.285.147l-18.64 4.328 21.878 11.771 3.588.26-6.826-16.359zm116.063 4.328l18.64-4.328 6.826 16.359-3.588-.26-21.878-11.771zm-137.329.173l-28.967 7.097 50.583 4.501-21.616-11.598zm105.736 7.097l28.967-7.097 21.616 11.598-50.583-4.501zm-185.104-4.441l-5.499 7.396 8.668-3.513-3.169-3.883zm129.204 7.396l5.499-7.396 3.169 3.883-8.668 3.513zm-90.897-18.86l-43.62 1.664-1.397 16.549 6.151-8.228.186-.185c.075-.074.15-.148.224-.175l.056-.01 38.4-9.615zm91.084 1.664l43.619-1.664-38.4 9.615-.056.01c-.074.027-.149.101-.224.175l-.186.185-6.151 8.228 1.398-16.549zm-45.91-14.062l-33.78 26.745 24.679-8.049 2.975-.952 6.126-17.744zm100.923 26.745l33.78-26.745-6.126 17.744-2.975.952-24.679 8.049zm-107.049-7.53l-13.827 4.501 14.002-3.462-.175-1.039zm120.876 4.501l13.827-4.501.175 1.039-14.002 3.462zm33.518-11.771l-18.553 6.318.263 1.558.525-.086c.14 0 .28 0 .42.044l.105.042.437.26 16.015-3.809.788-4.327zm-153.256 6.318l18.553-6.318-.788 4.327-16.015 3.809-.437-.26-.105-.042c-.14-.044-.28-.044-.42-.044l-.526.086-.262-1.558zm143.629-21.033l-2.187 1.645-6.126 17.83 17.852-6.059-9.539-13.416zm-136.891 1.645l2.188-1.645 9.539 13.416-17.852 6.059 6.125-17.83zm-90.637 2.983l-9.134 3.328 8.855 7.304 44.737-1.664-44.458-8.968zm125.57 3.328l9.133-3.328 44.458 8.968-44.737 1.664-8.854-7.304zm148.564-31.668L227.303 339h-.47l-.01.045c-.024.048-.084.048-.084.048h-.088l-.052.01a.083.083 0 00-.042.05l-.006.033c-.094 0-.094.093-.094.093v.743l17.938 29.556c.188.279.376.372.658.372h.188l8.076-2.695 12.397 12.547.094.093c0 .093.094.093.094.093l.244-.001a.314.314 0 00.226-.092l.187-.185.046-.011a.08.08 0 00.042-.05l.006-.033c.057 0 .079-.033.088-.06l.006-.033 6.105-18.867 12.678-4.183c.282-.093.47-.371.47-.743 0-.279-.282-.558-.564-.651zm-159.121 9.48l-6.48 2.138 9.955 10.131-3.475-12.269zm128.223 2.138l6.48-2.138 3.475 12.269-9.955-10.131zM98.986 343.554l28.268 19.518c.047 0 .071.024.094.047.012.011.024.023.039.032l.055.014c0 .047.024.07.047.093.012.012.024.023.033.038l3.865 13.439 5.259-16.265-37.66-16.916zm162.972 19.518l-28.269-19.518 37.66 16.916-5.259 16.265-3.865-13.439c-.009-.015-.021-.026-.033-.038-.023-.023-.047-.046-.047-.093l-.055-.014a.195.195 0 01-.023-.017l-.016-.015c-.023-.023-.046-.047-.093-.047zm-68.567-24.069l7.432 2.313c.123.049.246.098.32.267l20.228 26.229.147.339c.062.141.072.165.045.239l-.021.052c-.04.096-.048.116-.094.138l-.561.235-31.225 2.387c-.296.023-.456-.11-.616-.244l-2.333-3.034-20.135-.529a.742.742 0 01-.493-.195l-4.819-5.004c-.159-.134-.27-.388-.17-.63.013-.206.149-.363.286-.519l14.441-8.619.143-.056c.154-.055.33-.09.45.01l8.737 2.971-1.729-7.298-.034-.08c-.029-.068-.003-.159.034-.254l.029-.072a.475.475 0 01.093-.139c.017-.02.034-.04.05-.062l.043-.077 9.023-8.165c.223-.193.519-.216.729-.203zM66.12 341.316l-7.432-2.313c-.21-.013-.506.01-.729.203l-9.023 8.165-.043.077a1 1 0 01-.05.062.471.471 0 00-.093.139l-.03.072c-.036.095-.062.186-.033.254l.034.08 1.729 7.298-8.737-2.971c-.12-.1-.296-.065-.45-.01l-.143.056-14.441 8.619c-.137.156-.273.313-.286.519-.1.242.01.496.17.63l4.82 5.004a.74.74 0 00.492.195l20.135.529 2.333 3.034c.16.134.32.267.616.244l31.225-2.387.561-.235c.046-.022.054-.042.094-.138l.02-.052c.028-.074.017-.098-.044-.239l-.147-.339-20.228-26.229c-.074-.169-.197-.218-.32-.267zm122.566 26.687l1.401 1.821 17.093-1.31-18.494-.511zm-133.303 1.821l-1.4-1.821 18.494.511-17.094 1.31zm173.798-27.478l15.872 26.117 14.932-4.926-30.804-21.191zM110.35 368.463l-15.872-26.117 30.804 21.191-14.932 4.926zM41.794 353.75l-13.39 7.98 3.945 4.166 49.213 1.438-39.768-13.584zm121.313 7.98l13.39-7.98 39.768 13.584-49.213-1.438-3.945-4.166zm-104.3-21.274l-7.91 7.2 32.57 18.184-17.931-23.279-6.73-2.105zm126.793 7.2l7.909-7.2 6.73 2.105 17.931 23.279-32.57-18.184zm-134.894 1.682l1.569 6.457 26.618 9.145-11.39-6.272-16.797-9.33zm136.272 6.457l-1.569-6.457 16.796 9.33 11.391 6.272-26.618-9.145zm-86.114-12.891l24.606 11.06 12.021 5.391 10.613-3.532-47.24-12.919zm159.309 11.06l-24.606-11.06 47.24 12.919-10.613 3.532-12.021-5.391z" fill="#E9E9E9"/></svg>