<svg width="25" height="24" fill="none" xmlns="http://www.w3.org/2000/svg"><g clip-path="url(#clip0_92:1159)" fill="#EA442E"><path d="M4.754 19.785h9.123v.703H4.754v-.703zm4.565 3.158a1.057 1.057 0 11.001-2.113 1.057 1.057 0 01-.002 2.113zm0-1.405a.354.354 0 10.353.355.358.358 0 00-.354-.355z"/><path d="M14.579 22.24c0 .581-.47 1.058-1.056 1.058H5.102c-.58 0-1.056-.47-1.056-1.057V4.679c0-.58.47-1.057 1.056-1.057h.701v.355c0 .58.47 1.056 1.056 1.056h4.913c.58 0 1.055-.47 1.055-1.056v-.355h.702c.58 0 1.056.47 1.056 1.057v2.462h.702V4.679c0-.971-.788-1.753-1.758-1.76H5.108c-.97 0-1.752.789-1.758 1.76v17.562c0 .971.787 1.753 1.758 1.759h8.421c.97 0 1.752-.788 1.758-1.76v-8.075h-.702v8.076h-.006zM6.51 3.623h5.615v.355a.354.354 0 01-.354.354H6.859a.354.354 0 01-.354-.354v-.355h.006z"/><path d="M8.263 8.71v3.886c0 .482.39.867.866.867h14.409c.482 0 .866-.39.866-.867V8.71a.866.866 0 00-.866-.868H9.129a.863.863 0 00-.866.868zm14.573 4.05H9.83a.866.866 0 01-.866-.867v-2.48c0-.482.39-.867.866-.867h13.005c.482 0 .866.39.866.867v2.48a.866.866 0 01-.866.868z"/><path d="M10.033 11.655l.69-.397v.794h.7v-.794l.69.397.354-.61-.69-.398.69-.397-.354-.61-.69.396v-.794h-.7v.794l-.69-.397-.354.611.69.397-.69.397.354.611zm3.509 0l.69-.397v.794h.701v-.794l.69.397.354-.61-.69-.398.69-.397-.354-.61-.69.396v-.794h-.702v.794l-.69-.397-.353.611.69.397-.69.397.354.611zm3.508 0l.69-.397v.794h.702v-.794l.69.397.353-.61-.69-.398.69-.397-.354-.61-.69.396v-.794h-.7v.794l-.69-.397-.354.611.69.397-.69.397.354.611zm3.51 0l.69-.397v.794h.701v-.794l.69.397.354-.61-.69-.398.69-.397-.354-.61-.69.396v-.794h-.702v.794l-.69-.397-.353.611.69.397-.69.397.354.611zM3.29 2.223h.78v-.702h-.78c-.971 0-1.752.788-1.758 1.759v.696h.701V3.28c0-.58.47-1.057 1.056-1.057zM2.185.733h.976V0h-.976A2.184 2.184 0 000 2.187v.867h.69v-.867c0-.727.769-1.454 1.495-1.454z"/></g><defs><clipPath id="clip0_92:1159"><path fill="#fff" d="M0 0h24.41v24H0z"/></clipPath></defs></svg>