<svg width="78" height="88" fill="none" xmlns="http://www.w3.org/2000/svg"><g filter="url(#filter0_dd)"><path d="M57 71V54.642H35.83l8.97-8.134c4.247-3.813 7.102-7.225 8.567-10.234 1.465-3.01 2.198-6.242 2.198-9.699 0-3.873-1.077-7.3-3.23-10.279-2.152-2.98-5.142-5.274-8.97-6.883C39.538 7.804 35.143 7 30.18 7c-6.518 0-12.08 1.296-16.684 3.888C8.89 13.48 5.392 17.011 3 21.48l15.967 7.956c.897-1.848 2.183-3.278 3.857-4.29 1.674-1.014 3.468-1.52 5.382-1.52 1.973 0 3.483.432 4.53 1.296 1.046.864 1.57 2.07 1.57 3.62 0 1.251-.33 2.532-.987 3.843-.658 1.312-1.974 2.89-3.947 4.738L6.678 58.039V71H57z" fill="url(#paint0_linear)"/></g><defs><linearGradient id="paint0_linear" x1="57" y1="7" x2="3" y2="7" gradientUnits="userSpaceOnUse"><stop stop-color="#F8F8F8"/><stop offset="1" stop-color="#fff"/></linearGradient><filter id="filter0_dd" x="0" y="0" width="78" height="88" filterUnits="userSpaceOnUse" color-interpolation-filters="sRGB"><feFlood flood-opacity="0" result="BackgroundImageFix"/><feColorMatrix in="SourceAlpha" values="0 0 0 0 0 0 0 0 0 0 0 0 0 0 0 0 0 0 127 0" result="hardAlpha"/><feOffset dx="9" dy="5"/><feGaussianBlur stdDeviation="6"/><feColorMatrix values="0 0 0 0 0.858824 0 0 0 0 0.2 0 0 0 0 0.25098 0 0 0 0.384588 0"/><feBlend in2="BackgroundImageFix" result="effect1_dropShadow"/><feColorMatrix in="SourceAlpha" values="0 0 0 0 0 0 0 0 0 0 0 0 0 0 0 0 0 0 127 0" result="hardAlpha"/><feOffset dx="2" dy="2"/><feGaussianBlur stdDeviation="1"/><feColorMatrix values="0 0 0 0 0.858824 0 0 0 0 0.2 0 0 0 0 0.25098 0 0 0 0.328644 0"/><feBlend in2="effect1_dropShadow" result="effect2_dropShadow"/><feBlend in="SourceGraphic" in2="effect2_dropShadow" result="shape"/></filter></defs></svg>