<svg width="1422" height="45" fill="none" xmlns="http://www.w3.org/2000/svg"><path d="M59.493 21.693l7.914 19.272c.093.28.093.466.093.745-.093.187-.372.28-.559.28h-.093l-4.003-.28c-.186.093-.373.187-.559.187h-.093L.652 36.31H.279l-.093-.093c-.093 0-.093-.093-.093-.093-.093 0-.093-.093-.093-.093v-.838l.093-.093.093-.093L41.152 2.048c.186-.093.465-.186.651-.093L44.038.186C44.224 0 44.41 0 44.597 0a.51.51 0 01.465.28l11.172 15.827c.094 0 .094.093.094.093v.466l-.931 5.306 3.258-.744c.373 0 .745.186.838.465zm-23.276 4.47l.466.278 17.038-4.096.838-4.655-19.738 6.796.279 1.676.559-.093c.186 0 .372 0 .558.093zm-2.607-.653l.187 1.118L18.9 30.352l14.71-4.842zm20.855-9.217L44.317 1.863 41.99 3.63l-6.518 19.18 18.993-6.518zM40.129 4.841L33.61 23.928l-3.165 1.024L4.19 33.61 40.128 4.841zm-4.376 22.81L4.934 35.287l53.814 4.842-22.996-12.476zM61.82 40.129L38.545 27.465l19.83-4.655 7.263 17.597-3.817-.28zM283.9 18.8l-13.5 4.5-6.5 20.3-.006.035a.091.091 0 01-.094.065l-.006.035a.096.096 0 01-.045.055l-.049.01-.2.2a.328.328 0 01-.24.1H263s-.1 0-.1-.1l-.1-.1-13.2-13.5-8.6 2.9h-.2c-.3 0-.5-.1-.7-.4L221 1.1V.3s0-.1.1-.1c0 0 0-.064.051-.09l.055-.01h.094s.064 0 .09-.051L221.4 0h.5l61.9 17.3c.3.1.6.4.6.7 0 .4-.2.7-.5.8zm-25.1 7.1c.05 0 .075.025.1.05.013.012.025.025.041.034L259 26c0 .05.025.075.05.1l.006.006a.436.436 0 01.028.035L263.2 40.6l5.6-17.5-40.1-18.2 30.1 21zm-1 1.6l3.7 13.2-10.6-10.9 6.9-2.3zm-17 4.2l15.9-5.3-32.8-22.8 16.9 28.1zm16.1-15.6L230.7 4.2 281 18.1l-11.3 3.8-12.8-5.8zm-41.908 18.052c.048-.024.057-.045.099-.15l.022-.056c.029-.08.018-.106-.047-.26l-.156-.367-21.528-28.45c-.078-.185-.209-.238-.34-.29l-7.909-2.51c-.224-.014-.539.012-.776.22l-9.603 8.857-.046.084c-.017.024-.035.045-.053.067a.535.535 0 00-.099.15l-.031.079c-.039.103-.067.202-.036.276l.037.086 1.839 7.917-9.298-3.223c-.128-.109-.315-.07-.478-.011l-.153.061-15.369 9.348c-.145.17-.29.34-.304.564-.106.262.012.538.182.683l5.128 5.428a.784.784 0 00.525.212l21.427.573 2.484 3.291c.17.145.34.29.655.265l33.23-2.59.598-.254zm-15.185-.072l-18.191 1.421-1.49-1.975 19.681.554zm-32.653-16.014l-14.251 8.656 4.199 4.518 52.373 1.56-42.321-14.734zm39.481 12.138l-28.328-9.92-1.669-7.004 17.875 10.12 12.122 6.804zM192.42 5.93l-7.162-2.284-8.417 7.81 34.662 19.725L192.42 5.929zm-47.393 8.57v.7l-.1.1-.1.1-26.6 25.4c-.1.1-.3.2-.5.2h-.1l-13.1-2.7c-.2-.1-.4-.2-.5-.3l-3.5-4.3-12.3 5.1c-.1.1-.2.1-.3.1h-.1c-.1-.1-.1-.1-.2-.1h-.1c-.1 0-.2-.1-.3-.2 0 0-.1-.1-.1-.2v-.3l1.7-20.9-10.5-8.7c-.2-.2-.4-.4-.3-.7.1-.3.2-.5.5-.6l11.3-4.2h.4l54.3 11.4h.5v.1zm-49.5 12.1c.1-.1.2-.2.3-.2l41.2-10.4-46.8 1.8-1.5 17.9 6.6-8.9.1-.1.1-.1zm-5.4-22l47.7 9.7-48 1.8-9.5-7.9 9.8-3.6zm5.8 23.8l-5.9 8 9.3-3.8-3.4-4.2zm21.6 11l-12.6-2.4-7.5-9.4 27.7-7.1 16.6-4.2-24.2 23.1zm226.365-17.707l7.913 19.272c.093.28.093.466.093.745-.093.187-.372.28-.558.28h-.093l-4.004-.28c-.186.093-.372.187-.558.187h-.093L285.05 36.31h-.372l-.093-.093c-.093 0-.093-.093-.093-.093-.094 0-.094-.093-.094-.093v-.838l.094-.093.093-.093L325.55 2.048c.186-.093.466-.186.652-.093l2.234-1.769c.187-.186.373-.186.559-.186.186 0 .372.093.466.28l11.172 15.827c.093 0 .093.093.093.093v.466l-.931 5.306 3.259-.744c.372 0 .744.186.838.465zm-23.276 4.47l.465.278 17.038-4.096.838-4.655-19.738 6.796.279 1.676.559-.093c.186 0 .372 0 .559.093zm-2.607-.653l.186 1.118-14.897 3.724 14.711-4.842zm20.855-9.217l-10.148-14.43-2.328 1.768-6.517 19.18 18.993-6.518zM324.526 4.841l-6.517 19.087-3.166 1.024-26.255 8.658 35.938-28.769zm-4.376 22.81l-30.817 7.635 53.814 4.842-22.997-12.476zm26.069 12.477l-23.276-12.663 19.831-4.655 7.262 17.597-3.817-.28zM568.298 18.8l-13.5 4.5-6.5 20.3-.006.035a.091.091 0 01-.094.065l-.006.035a.088.088 0 01-.045.055l-.049.01-.2.2a.328.328 0 01-.24.1h-.26s-.1 0-.1-.1l-.1-.1-13.2-13.5-8.6 2.9h-.2c-.3 0-.5-.1-.7-.4l-19.1-31.8V.3s0-.1.1-.1c0 0 0-.064.052-.09l.055-.01h.093s.064 0 .09-.051l.01-.049h.5l61.9 17.3c.3.1.6.4.6.7 0 .4-.2.7-.5.8zm-25.1 7.1c.05 0 .075.025.1.05.013.012.025.025.041.034l.059.016c0 .05.025.075.05.1l.006.006.009.01a.135.135 0 01.02.025l4.115 14.459 5.6-17.5-40.1-18.2 30.1 21zm-1 1.6l3.7 13.2-10.6-10.9 6.9-2.3zm-17 4.2l15.9-5.3-32.8-22.8 16.9 28.1zm16.1-15.6l-26.2-11.9 50.3 13.9-11.3 3.8-12.8-5.8zM499.39 34.152c.049-.024.057-.045.1-.15l.022-.056c.028-.08.018-.106-.047-.26l-.157-.367-21.527-28.45c-.079-.185-.21-.238-.341-.29l-7.909-2.51c-.223-.014-.538.012-.775.22l-9.603 8.857-.046.084c-.017.024-.035.045-.053.067a.5.5 0 00-.099.15l-.032.079c-.039.103-.067.202-.035.276l.036.086 1.84 7.917-9.299-3.223c-.127-.109-.315-.07-.478-.011l-.152.061-15.369 9.348c-.145.17-.29.34-.304.564-.106.262.011.538.181.683l5.129 5.428a.78.78 0 00.524.212l21.428.573 2.483 3.291c.17.145.34.29.656.265l33.229-2.59.598-.254zm-15.185-.072l-18.191 1.421-1.49-1.975 19.681.554zm-32.653-16.014l-14.25 8.656 4.199 4.518 52.373 1.56-42.322-14.734zm39.482 12.138l-28.328-9.92-1.67-7.004 17.875 10.12 12.123 6.804zM476.818 5.93l-7.161-2.284-8.418 7.81 34.663 19.725L476.818 5.93zm-47.393 8.57v.7l-.1.1-.1.1-26.6 25.4c-.1.1-.3.2-.5.2h-.1l-13.1-2.7c-.2-.1-.4-.2-.5-.3l-3.5-4.3-12.3 5.1c-.1.1-.2.1-.3.1h-.1c-.1-.1-.1-.1-.2-.1h-.1c-.1 0-.2-.1-.3-.2 0 0-.1-.1-.1-.2v-.3l1.7-20.9-10.5-8.7c-.2-.2-.4-.4-.3-.7.1-.3.2-.5.5-.6l11.3-4.2h.4l54.3 11.4h.5v.1zm-49.5 12.1c.1-.1.2-.2.3-.2l41.2-10.4-46.8 1.8-1.5 17.9 6.6-8.9.1-.1.1-.1zm-5.4-22l47.7 9.7-48 1.8-9.5-7.9 9.8-3.6zm5.8 23.8l-5.9 8 9.3-3.8-3.4-4.2zm21.6 11l-12.6-2.4-7.5-9.4 27.7-7.1 16.6-4.2-24.2 23.1zm226.369-17.707l7.914 19.272c.093.28.093.466.093.745-.093.187-.373.28-.559.28h-.093l-4.003-.28c-.187.093-.373.187-.559.187h-.093l-61.541-5.587h-.373l-.093-.093c-.093 0-.093-.093-.093-.093-.093 0-.093-.093-.093-.093v-.838l.093-.093.093-.093 40.966-32.959c.186-.093.465-.186.651-.093l2.235-1.769c.186-.186.372-.186.558-.186.187 0 .373.093.466.28l11.172 15.827c.093 0 .093.093.093.093v.466l-.931 5.306 3.259-.744c.372 0 .745.186.838.465zm-23.276 4.47l.466.278 17.037-4.096.838-4.655-19.738 6.796.28 1.676.558-.093c.187 0 .373 0 .559.093zm-2.607-.653l.186 1.118-14.896 3.724 14.71-4.842zm20.855-9.217l-10.148-14.43-2.328 1.768-6.517 19.18 18.993-6.518zM608.928 4.841l-6.517 19.087-3.165 1.024-26.256 8.658 35.938-28.769zm-4.375 22.81l-30.818 7.635 53.814 4.842-22.996-12.476zm26.068 12.477l-23.275-12.663 19.831-4.655 7.262 17.597-3.818-.28zM852.701 18.8l-13.5 4.5-6.5 20.3-.007.035c-.009.029-.033.065-.093.065l-.007.035a.09.09 0 01-.044.055l-.05.01-.199.2a.328.328 0 01-.24.1h-.26s-.1 0-.1-.1l-.1-.1-13.2-13.5-8.6 2.9h-.2c-.3 0-.5-.1-.7-.4l-19.1-31.8V.3s0-.1.1-.1c0 0 0-.064.051-.09l.055-.01h.094s.064 0 .089-.051l.011-.049h.5l61.9 17.3c.3.1.6.4.6.7 0 .4-.2.7-.5.8zm-25.1 7.1c.05 0 .075.025.1.05a.216.216 0 00.04.034l.06.016c0 .05.025.075.05.1l.005.006a.13.13 0 01.029.035l4.116 14.459 5.6-17.5-40.1-18.2 30.1 21zm-1 1.6l3.7 13.2-10.6-10.9 6.9-2.3zm-17 4.2l15.9-5.3-32.8-22.8 16.9 28.1zm16.1-15.6l-26.2-11.9 50.3 13.9-11.3 3.8-12.8-5.8zm-41.909 18.052c.049-.024.058-.045.1-.15l.022-.056c.029-.08.018-.106-.047-.26l-.156-.367-21.528-28.45c-.078-.185-.209-.238-.341-.29l-7.909-2.51c-.223-.014-.538.012-.775.22l-9.603 8.857-.046.084c-.017.024-.035.045-.053.067-.036.042-.073.085-.099.15l-.031.079c-.04.103-.067.202-.036.276l.037.086 1.839 7.917-9.298-3.223c-.128-.109-.315-.07-.479-.011l-.152.061-15.369 9.348c-.145.17-.29.34-.304.564-.106.262.011.538.182.683l5.128 5.428a.78.78 0 00.525.212l21.427.573 2.483 3.291c.171.145.341.29.656.265l33.23-2.59.597-.254zm-15.184-.072l-18.191 1.421-1.49-1.975 19.681.554zm-32.654-16.014l-14.25 8.656 4.199 4.518 52.373 1.56-42.322-14.734zm39.482 12.138l-28.328-9.92-1.67-7.004 17.876 10.12 12.122 6.804zM761.221 5.93l-7.162-2.284-8.417 7.81 34.662 19.725L761.221 5.93zm-47.394 8.57v.7l-.1.1-.1.1-26.6 25.4c-.1.1-.3.2-.5.2h-.1l-13.1-2.7c-.2-.1-.4-.2-.5-.3l-3.5-4.3-12.3 5.1c-.1.1-.2.1-.3.1h-.1c-.1-.1-.1-.1-.2-.1h-.1c-.1 0-.2-.1-.3-.2 0 0-.1-.1-.1-.2v-.3l1.7-20.9-10.5-8.7c-.2-.2-.4-.4-.3-.7.1-.3.2-.5.5-.6l11.3-4.2h.4l54.3 11.4h.5v.1zm-49.5 12.1c.1-.1.2-.2.3-.2l41.2-10.4-46.8 1.8-1.5 17.9 6.6-8.9.1-.1.1-.1zm-5.4-22l47.7 9.7-48 1.8-9.5-7.9 9.8-3.6zm5.8 23.8l-5.9 8 9.3-3.8-3.4-4.2zm21.6 11l-12.6-2.4-7.5-9.4 27.7-7.1 16.6-4.2-24.2 23.1zm226.365-17.707l7.914 19.272c.093.28.093.466.093.745-.093.187-.372.28-.558.28h-.094l-4.003-.28c-.186.093-.372.187-.559.187h-.093l-61.541-5.587h-.372l-.094-.093c-.093 0-.093-.093-.093-.093-.093 0-.093-.093-.093-.093v-.838l.093-.093.093-.093 40.966-32.959c.186-.093.465-.186.652-.093l2.234-1.769c.186-.186.373-.186.559-.186a.51.51 0 01.465.28l11.173 15.827c.093 0 .093.093.093.093v.466l-.931 5.306 3.258-.744c.373 0 .745.186.838.465zm-23.276 4.47l.466.278 17.038-4.096.838-4.655-19.738 6.796.279 1.676.559-.093c.186 0 .372 0 .558.093zm-2.606-.653l.186 1.118-14.897 3.724 14.711-4.842zm20.855-9.217l-10.149-14.43-2.327 1.768-6.517 19.18 18.993-6.518zM893.327 4.841l-6.517 19.087-3.166 1.024-26.255 8.658 35.938-28.769zm-4.376 22.81l-30.817 7.635 53.813 4.842-22.996-12.476zm26.069 12.477l-23.276-12.663 19.831-4.655 7.262 17.597-3.817-.28zM1137.1 18.8l-13.5 4.5-6.5 20.3-.01.035c-.01.029-.03.065-.09.065l-.01.035c0 .02-.02.042-.04.055l-.05.01-.2.2a.328.328 0 01-.24.1h-.26s-.1 0-.1-.1l-.1-.1-13.2-13.5-8.6 2.9h-.2c-.3 0-.5-.1-.7-.4l-19.1-31.8V.3s0-.1.1-.1c0 0 0-.064.05-.09l.06-.01h.09s.06 0 .09-.051l.01-.049h.5l61.9 17.3c.3.1.6.4.6.7 0 .4-.2.7-.5.8zm-25.1 7.1c.05 0 .07.025.1.05.01.012.02.025.04.034l.06.016c0 .05.02.075.05.1v.006c.01.003.01.006.01.01.01.007.02.015.02.025l4.12 14.459 5.6-17.5-40.1-18.2 30.1 21zm-1 1.6l3.7 13.2-10.6-10.9 6.9-2.3zm-17 4.2l15.9-5.3-32.8-22.8 16.9 28.1zm16.1-15.6l-26.2-11.9 50.3 13.9-11.3 3.8-12.8-5.8zm-41.91 18.052c.05-.024.06-.045.1-.15l.02-.056c.03-.08.02-.106-.04-.26l-.16-.367-21.53-28.45c-.08-.185-.21-.238-.34-.29l-7.91-2.51c-.22-.014-.54.012-.77.22l-9.61 8.857-.04.084c-.02.024-.04.045-.06.067-.03.042-.07.085-.09.15l-.04.079c-.04.103-.06.202-.03.276l.04.086 1.83 7.917-9.29-3.223c-.13-.109-.32-.07-.48-.011l-.15.061-15.37 9.348c-.15.17-.29.34-.31.564-.1.262.01.538.18.683l5.13 5.428c.17.145.3.198.53.212l21.42.573 2.49 3.291c.17.145.34.29.65.265l33.23-2.59.6-.254zm-15.18-.072l-18.19 1.421-1.5-1.975 19.69.554zm-32.66-16.014l-14.25 8.656 4.2 4.518 52.37 1.56-42.32-14.734zm39.48 12.138l-28.32-9.92-1.67-7.004 17.87 10.12 12.12 6.804zM1045.62 5.93l-7.16-2.284-8.42 7.81 34.66 19.725-19.08-25.251zm-47.394 8.57v.7l-.1.1-.1.1-26.6 25.4c-.1.1-.3.2-.5.2h-.1l-13.1-2.7c-.2-.1-.4-.2-.5-.3l-3.5-4.3-12.3 5.1c-.1.1-.2.1-.3.1h-.1c-.1-.1-.1-.1-.2-.1h-.1c-.1 0-.2-.1-.3-.2 0 0-.1-.1-.1-.2v-.3l1.7-20.9-10.5-8.7c-.2-.2-.4-.4-.3-.7.1-.3.2-.5.5-.6l11.3-4.2h.4l54.3 11.4h.5v.1zm-49.5 12.1c.1-.1.2-.2.3-.2l41.2-10.4-46.8 1.8-1.5 17.9 6.6-8.9.1-.1.1-.1zm-5.4-22l47.7 9.7-48 1.8-9.5-7.9 9.8-3.6zm5.8 23.8l-5.9 8 9.3-3.8-3.4-4.2zm21.6 11l-12.6-2.4-7.5-9.4 27.7-7.1 16.6-4.2-24.2 23.1zm226.364-17.707l7.92 19.272c.09.28.09.466.09.745-.09.187-.37.28-.56.28h-.09l-4-.28c-.19.093-.38.187-.56.187h-.1l-61.54-5.587h-.37l-.09-.093c-.1 0-.1-.093-.1-.093-.09 0-.09-.093-.09-.093v-.838l.09-.093.1-.093 40.96-32.959c.19-.093.47-.186.66-.093l2.23-1.769c.19-.186.37-.186.56-.186.18 0 .37.093.46.28l11.18 15.827c.09 0 .09.093.09.093v.466l-.93 5.306 3.26-.744c.37 0 .74.186.83.465zm-23.27 4.47l.46.278 17.04-4.096.84-4.655-19.74 6.796.28 1.676.56-.093c.19 0 .37 0 .56.093zm-2.61-.653l.19 1.118-14.9 3.724 14.71-4.842zm20.86-9.217l-10.15-14.43-2.33 1.768-6.52 19.18 19-6.518zm-14.34-11.452l-6.52 19.087-3.16 1.024-26.26 8.658 35.94-28.769zm-4.38 22.81l-30.81 7.635 53.81 4.842-23-12.476zm26.07 12.477l-23.27-12.663 19.83-4.655 7.26 17.597-3.82-.28zM1421.5 18.8l-13.5 4.5-6.5 20.3v.035c-.01.029-.04.065-.1.065v.035c-.01.02-.02.042-.05.055l-.05.01-.2.2a.328.328 0 01-.24.1h-.26s-.1 0-.1-.1l-.1-.1-13.2-13.5-8.6 2.9h-.2c-.3 0-.5-.1-.7-.4l-19.1-31.8V.3s0-.1.1-.1c0 0 0-.064.05-.09l.06-.01h.09s.07 0 .09-.051L1359 0h.5l61.9 17.3c.3.1.6.4.6.7 0 .4-.2.7-.5.8zm-25.1 7.1c.05 0 .08.025.1.05.01.012.03.025.04.034l.06.016c0 .05.03.075.05.1l.01.006c0 .003 0 .006.01.01 0 .007.01.015.02.025l4.11 14.459 5.6-17.5-40.1-18.2 30.1 21zm-1 1.6l3.7 13.2-10.6-10.9 6.9-2.3zm-17 4.2l15.9-5.3-32.8-22.8 16.9 28.1zm16.1-15.6l-26.2-11.9 50.3 13.9-11.3 3.8-12.8-5.8zm-41.91 18.052c.05-.024.06-.045.1-.15l.02-.056c.03-.08.02-.106-.04-.26l-.16-.367-21.53-28.45c-.07-.185-.21-.238-.34-.29l-7.91-2.51c-.22-.014-.53.012-.77.22l-9.6 8.857-.05.084c-.02.024-.04.045-.05.067a.374.374 0 00-.1.15l-.03.079c-.04.103-.07.202-.04.276l.04.086 1.84 7.917-9.3-3.223c-.13-.109-.32-.07-.48-.011l-.15.061-15.37 9.348c-.15.17-.29.34-.31.564-.1.262.02.538.19.683l5.12 5.428a.82.82 0 00.53.212l21.43.573 2.48 3.291c.17.145.34.29.66.265l33.23-2.59.59-.254zm-15.18-.072l-18.19 1.421-1.49-1.975 19.68.554zm-32.65-16.014l-14.26 8.656 4.2 4.518 52.38 1.56-42.32-14.734zm39.48 12.138l-28.33-9.92-1.67-7.004 17.87 10.12 12.13 6.804zM1330.02 5.93l-7.16-2.284-8.42 7.81 34.66 19.725-19.08-25.251zm-47.39 8.571v.7l-.1.1-.1.1-26.6 25.4c-.1.1-.3.2-.5.2h-.1l-13.1-2.7c-.2-.1-.4-.2-.5-.3l-3.5-4.3-12.3 5.1c-.1.1-.2.1-.3.1h-.1c-.1-.1-.1-.1-.2-.1h-.1c-.1 0-.2-.1-.3-.2 0 0-.1-.1-.1-.2V38.1l1.7-20.9-10.5-8.7c-.2-.2-.4-.4-.3-.7.1-.3.2-.5.5-.6l11.3-4.2h.4l54.3 11.4h.5v.1zm-49.5 12.1c.1-.1.2-.2.3-.2l41.2-10.4-46.8 1.8-1.5 17.9 6.6-8.9.1-.1.1-.1zm-5.4-22l47.7 9.7-48 1.8-9.5-7.9 9.8-3.6zm5.8 23.8l-5.9 8 9.3-3.8-3.4-4.2zm21.6 11l-12.6-2.4-7.5-9.4 27.7-7.1 16.6-4.2-24.2 23.1z" opacity=".503" fill-rule="evenodd" clip-rule="evenodd" fill="#E1E1E1"/></svg>