<svg width="307" height="720" fill="none" xmlns="http://www.w3.org/2000/svg"><path opacity=".145" fill-rule="evenodd" clip-rule="evenodd" d="M161.9 18.8l-13.5 4.5-6.5 20.3-.006.035a.091.091 0 01-.094.065l-.006.035a.096.096 0 01-.045.055l-.049.01-.2.2a.328.328 0 01-.24.1H141s-.1 0-.1-.1l-.1-.1-13.2-13.5-8.6 2.9h-.2c-.3 0-.5-.1-.7-.4L99 1.1V.3s0-.1.1-.1c0 0 0-.064.051-.09l.055-.01h.094s.064 0 .09-.051L99.4 0h.5l61.9 17.3c.3.1.6.4.6.7 0 .4-.2.7-.5.8zm-25.1 7.1c.05 0 .075.025.1.05.013.013.025.025.041.034L137 26c0 .05.025.075.05.1.012.012.025.025.034.04L141.2 40.6l5.6-17.5-40.1-18.2 30.1 21zm-1 1.6l3.7 13.2-10.6-10.9 6.9-2.3zm-17 4.2l15.9-5.3-32.8-22.8 16.9 28.1zm16.1-15.6L108.7 4.2 159 18.1l-11.3 3.8-12.8-5.8zM93.091 32.002l.022-.056c.029-.08.018-.106-.047-.26l-.156-.367-21.528-28.45c-.078-.185-.21-.238-.34-.29l-7.91-2.51c-.223-.014-.538.012-.775.22l-9.603 8.857-.046.084c-.017.024-.035.045-.053.067a.522.522 0 00-.099.15l-.031.079c-.04.103-.067.202-.036.276l.037.086 1.84 7.917-9.3-3.223c-.127-.109-.314-.07-.477-.011l-.152.061-15.37 9.348c-.145.17-.29.34-.304.564-.106.262.012.538.182.683l5.128 5.428a.78.78 0 00.525.212l21.427.573 2.484 3.291c.17.145.34.29.655.265l33.23-2.59.598-.254c.048-.024.057-.045.1-.15zm-15.284.078l-18.191 1.421-1.49-1.975 19.68.554zM45.154 16.066l-14.25 8.656 4.198 4.518 52.373 1.56-42.321-14.734zm39.481 12.138l-28.328-9.92-1.67-7.004L72.514 21.4l12.122 6.804zM70.42 3.93l-7.162-2.284-8.417 7.81L89.503 29.18 70.42 3.929zM67.027 57.7v-.3h-.5L12.227 46h-.4l-11.3 4.2c-.3.1-.4.3-.5.6-.1.3.1.5.3.7l10.5 8.7-1.7 20.9v.3c0 .1.1.2.1.2.1.1.2.2.3.2h.1c.042 0 .067 0 .088.008.03.01.054.034.112.092h.1c.1 0 .2 0 .3-.1l12.3-5.1 3.5 4.3c.1.1.3.2.5.3l13.1 2.7h.1c.2 0 .4-.1.5-.2l26.6-25.4.1-.1.1-.1v-.5zm-49.2 11.7c-.1 0-.2.1-.3.2l-.1.1-.1.1-6.6 8.9 1.5-17.9 46.8-1.8-41.2 10.4zm42-12.1l-47.7-9.7-9.8 3.6 9.5 7.9 48-1.8zm-47.8 22.1l5.9-8 3.4 4.2-9.3 3.8zm14.9.6l12.6 2.4 24.2-23.1-16.6 4.2-27.7 7.1 7.5 9.4zM161.9 108.8l-13.5 4.5-6.5 20.3-.006.035a.091.091 0 01-.094.065l-.006.035a.098.098 0 01-.045.055l-.049.01-.2.2a.327.327 0 01-.24.099l-.26.001s-.1 0-.1-.1l-.1-.1-13.2-13.5-8.6 2.9h-.2c-.3 0-.5-.1-.7-.4L99 91.1v-.8s0-.1.1-.1c0 0 0-.064.051-.09l.055-.01h.094s.064 0 .09-.051L99.4 90h.5l61.9 17.3c.3.1.6.4.6.7 0 .4-.2.7-.5.8zm-25.1 7.1c.05 0 .075.025.1.05l.008.008.004.004.017.015.012.007.059.016c0 .05.025.075.05.1.012.013.025.025.034.041L141.2 130.6l5.6-17.5-40.1-18.2 30.1 21zm-1 1.6l3.7 13.2-10.6-10.9 6.9-2.3zm-17 4.2l15.9-5.3-32.8-22.8 16.9 28.1zm16.1-15.6l-26.2-11.9 50.3 13.9-11.3 3.8-12.8-5.8zm-41.809 15.902l.022-.056c.029-.08.018-.106-.047-.259l-.156-.368-21.528-28.45c-.078-.185-.21-.238-.34-.29l-7.91-2.51c-.223-.014-.538.012-.775.22l-9.603 8.857-.046.084c-.017.024-.035.045-.053.067a.521.521 0 00-.099.15l-.031.079c-.04.103-.067.202-.036.276l.037.086 1.84 7.917-9.3-3.223c-.127-.109-.314-.07-.477-.011l-.152.061-15.37 9.348c-.145.171-.29.341-.304.564-.106.262.012.538.182.683l5.128 5.428c.17.145.302.198.525.212l21.427.573 2.484 3.291c.17.146.34.291.655.265l33.23-2.589.598-.255c.048-.024.057-.045.1-.15zm-15.284.078l-18.191 1.421-1.49-1.975 19.68.554zm-32.653-16.014l-14.25 8.656 4.198 4.519 52.373 1.56-42.321-14.735zm39.481 12.138l-28.328-9.92-1.67-7.004 17.876 10.12 12.122 6.804zM70.42 93.929l-7.162-2.284-8.417 7.81 34.662 19.725L70.42 93.929zM67.027 147.6v.6l-.1.1-.1.1-26.6 25.4c-.1.1-.3.2-.5.2h-.1l-13.1-2.7c-.2-.1-.4-.2-.5-.3l-3.5-4.3-12.3 5.1c-.1.1-.2.1-.3.1h-.1c-.058-.058-.082-.082-.112-.092-.021-.008-.046-.008-.088-.008h-.1c-.1 0-.2-.1-.3-.2 0 0-.1-.1-.1-.2v-.3l1.7-20.9-10.5-8.7c-.2-.2-.4-.4-.3-.7.1-.3.2-.5.5-.6l11.3-4.2h.4l54.3 11.4h.5v.2zm-49.5 12c.1-.1.2-.2.3-.2l41.2-10.4-46.8 1.8-1.5 17.9 6.6-8.9.1-.1.1-.1zm-5.4-22l47.7 9.7-48 1.8-9.5-7.9 9.8-3.6zm5.8 23.8l-5.9 8 9.3-3.8-3.4-4.2zm21.6 11l-12.6-2.4-7.5-9.4 27.7-7.1 16.6-4.2-24.2 23.1zm86.966-19.707l7.914 19.273c.093.279.093.465.093.744-.093.187-.372.28-.559.28h-.093l-4.003-.28c-.186.093-.373.187-.559.187h-.093l-61.541-5.587h-.373l-.093-.093c-.093 0-.093-.093-.093-.093-.093 0-.093-.093-.093-.093v-.838l.093-.093.093-.093 40.966-32.959c.186-.093.465-.186.651-.093l2.235-1.769c.186-.186.372-.186.559-.186.186 0 .372.093.465.279l11.172 15.828c.094 0 .094.093.094.093v.466l-.931 5.306 3.258-.744c.373 0 .745.186.838.465zm-23.276 4.469l.466.279 17.038-4.096.838-4.655-19.738 6.796.279 1.676.559-.093c.186 0 .372 0 .558.093zm-2.607-.652l.187 1.118-14.897 3.724 14.71-4.842zm20.856-9.217l-10.149-14.431-2.327 1.769-6.518 19.179 18.994-6.517zm-14.338-11.452l-6.518 19.087-3.165 1.024-26.255 8.658 35.938-28.769zm-4.376 22.811l-30.817 7.634 53.813 4.842-22.996-12.476zm26.069 12.476l-23.276-12.662 19.831-4.656 7.262 17.597-3.817-.279zm82.206-23.428v-.3h-.5l-54.3-11.4h-.4l-11.3 4.2c-.3.1-.4.3-.5.6-.1.3.1.5.3.7l10.5 8.7-1.7 20.9v.3c0 .1.1.2.1.2.1.1.2.2.3.2h.1c.042 0 .067 0 .088.008.03.01.054.034.112.092h.1c.1 0 .2 0 .3-.1l12.3-5.1 3.5 4.3c.1.1.299.2.499.3h.001l13.1 2.7h.1c.2 0 .4-.1.5-.2l26.6-25.4.1-.1.1-.1v-.5zm-49.2 11.7c-.1 0-.2.1-.3.2l-.1.1-.1.1-6.6 8.9 1.5-17.9 46.8-1.8-41.2 10.4zm42-12.1l-47.7-9.7-9.8 3.6 9.5 7.9 48-1.8zm-47.8 22.1l5.9-8 3.4 4.2-9.3 3.8zm14.9.6l12.6 2.4 24.2-23.1-16.6 4.2-27.7 7.1 7.5 9.4zm66.164-47.998l.022-.056c.029-.08.018-.106-.047-.259l-.156-.368-21.528-28.45c-.078-.185-.209-.238-.34-.29l-7.909-2.51c-.224-.014-.539.012-.776.22l-9.603 8.857-.046.084a.883.883 0 01-.053.067.538.538 0 00-.099.15l-.031.079c-.039.103-.067.202-.036.276l.037.086 1.839 7.917-9.298-3.223c-.128-.109-.315-.07-.478-.011l-.153.061-15.369 9.348c-.145.171-.29.341-.304.564-.106.262.012.538.182.683l5.128 5.428a.785.785 0 00.525.212l21.427.573 2.484 3.291c.17.146.34.291.655.265l33.23-2.589.598-.255c.048-.024.057-.045.099-.15zm-15.284.078l-18.191 1.421-1.49-1.975 19.681.554zm-32.653-16.014l-14.251 8.656 4.199 4.519 52.373 1.56-42.321-14.735zm39.481 12.138l-28.328-9.92-1.669-7.004 17.875 10.12 12.122 6.804zM214.42 93.929l-7.162-2.284-8.417 7.81 34.662 19.725-19.083-25.251zM305.9 108.8l-13.5 4.5-6.5 20.3-.006.035a.091.091 0 01-.094.065l-.006.035a.098.098 0 01-.045.055l-.049.01-.2.2a.327.327 0 01-.24.099l-.26.001s-.1 0-.1-.1l-.1-.1-13.2-13.5-8.6 2.9h-.2c-.3 0-.5-.1-.7-.4L243 91.1v-.8s0-.1.1-.1c0 0 0-.064.051-.09l.055-.01h.094s.064 0 .09-.051l.01-.049h.5l61.9 17.3c.3.1.6.4.6.7 0 .4-.2.7-.5.8zm-25.1 7.1c.05 0 .075.025.1.05.013.013.025.025.041.034L281 116c0 .05.025.075.05.1.012.013.025.025.034.041L285.2 130.6l5.6-17.5-40.1-18.2 30.1 21zm-1 1.6l3.7 13.2-10.6-10.9 6.9-2.3zm-17 4.2l15.9-5.3-32.8-22.8 16.9 28.1zm16.1-15.6l-26.2-11.9 50.3 13.9-11.3 3.8-12.8-5.8zm-8.407 46.593l7.914 19.273c.093.279.093.465.093.744-.093.187-.372.28-.559.28h-.093l-4.003-.28c-.186.093-.373.187-.559.187h-.093l-61.541-5.587h-.373l-.093-.093c-.093 0-.093-.093-.093-.093-.093 0-.093-.093-.093-.093v-.838l.093-.093.093-.093 40.966-32.959c.186-.093.465-.186.651-.093l2.235-1.769c.186-.186.372-.186.559-.186.186 0 .372.093.465.279l11.172 15.828c.094 0 .094.093.094.093v.466l-.931 5.306 3.258-.744c.373 0 .745.186.838.465zm-23.276 4.469l.466.279 17.038-4.096.838-4.655-19.738 6.796.279 1.676.559-.093c.186 0 .372 0 .558.093zm-17.317 4.19l14.71-4.842.187 1.118-14.897 3.724zm35.566-14.059l-10.149-14.431-2.327 1.769-6.518 19.179 18.994-6.517zm-14.338-11.452l-6.518 19.087-3.165 1.024-26.255 8.658 35.938-28.769zm-4.376 22.811l-30.818 7.634 53.814 4.842-22.996-12.476zm26.069 12.476l-23.276-12.662 19.831-4.656 7.262 17.597-3.817-.279zM126.493 62.693l7.914 19.273c.093.279.093.465.093.744-.093.187-.372.28-.559.28h-.093l-4.003-.28c-.186.094-.373.187-.559.187h-.093L67.652 77.31h-.373l-.093-.093c-.093 0-.093-.093-.093-.093-.093 0-.093-.093-.093-.093v-.838l.093-.093.093-.093 40.966-32.959c.186-.093.465-.186.651-.093l2.235-1.769c.186-.186.372-.186.559-.186a.51.51 0 01.465.28l11.172 15.827c.094 0 .094.093.094.093v.466l-.931 5.306 3.258-.744c.373 0 .745.186.838.465zm-23.276 4.47l.466.278 17.038-4.096.838-4.655-19.738 6.796.279 1.676.559-.093c.186 0 .372 0 .558.093zm-2.607-.653l.187 1.118L85.9 71.352l14.71-4.842zm20.856-9.217l-10.149-14.43-2.327 1.768-6.518 19.18 18.994-6.518zm-14.338-11.452l-6.518 19.087-3.165 1.024L71.19 74.61l35.938-28.769zm-4.376 22.81l-30.817 7.635 53.813 4.842-22.996-12.476zm26.069 12.477l-23.276-12.662 19.831-4.656 7.262 17.597-3.817-.28zM211.027 57.7v-.3h-.5l-54.3-11.4h-.4l-11.3 4.2c-.3.1-.4.3-.5.6-.1.3.1.5.3.7l10.5 8.7-1.7 20.9v.3c0 .1.1.2.1.2.1.1.2.2.3.2h.1c.042 0 .067 0 .088.008.03.01.054.034.112.092h.1c.1 0 .2 0 .3-.1l12.3-5.1 3.5 4.3c.1.1.3.2.5.3l13.1 2.7h.1c.2 0 .4-.1.5-.2l26.6-25.4.1-.1.1-.1v-.5zm-49.2 11.7c-.1 0-.2.1-.3.2l-.1.1-.1.1-6.6 8.9 1.5-17.9 46.8-1.8-41.2 10.4zm42-12.1l-47.7-9.7-9.8 3.6 9.5 7.9 48-1.8zm-47.8 22.1l5.9-8 3.4 4.2-9.3 3.8zm14.9.6l12.6 2.4 24.2-23.1-16.6 4.2-27.7 7.1 7.5 9.4zm66.164-47.998l.022-.056c.029-.08.018-.106-.047-.26l-.156-.367-21.528-28.45c-.078-.185-.209-.238-.34-.29l-7.909-2.51c-.224-.014-.539.012-.776.22l-9.603 8.857-.046.084a.94.94 0 01-.053.067.535.535 0 00-.099.15l-.031.079c-.039.103-.067.202-.036.276l.037.086 1.839 7.917-9.298-3.223c-.128-.109-.315-.07-.478-.011l-.153.061-15.369 9.348c-.145.17-.29.34-.304.564-.106.262.012.538.182.683l5.128 5.428a.784.784 0 00.525.212l21.427.573 2.484 3.291c.17.145.34.29.655.265l33.23-2.59.598-.254c.048-.024.057-.045.099-.15zm-15.284.078l-18.191 1.421-1.49-1.975 19.681.554zm-32.653-16.014l-14.251 8.656 4.199 4.518 52.373 1.56-42.321-14.734zm39.481 12.138l-28.328-9.92-1.669-7.004 17.875 10.12 12.122 6.804zM214.42 3.93l-7.162-2.284-8.417 7.81 34.662 19.725L214.42 3.929zM305.9 18.8l-13.5 4.5-6.5 20.3-.006.035a.091.091 0 01-.094.065l-.006.035a.096.096 0 01-.045.055l-.049.01-.2.2a.328.328 0 01-.24.1H285s-.1 0-.1-.1l-.1-.1-13.2-13.5-8.6 2.9h-.2c-.3 0-.5-.1-.7-.4L243 1.1V.3s0-.1.1-.1c0 0 0-.064.051-.09l.055-.01h.094s.064 0 .09-.051L243.4 0h.5l61.9 17.3c.3.1.6.4.6.7 0 .4-.2.7-.5.8zm-25.1 7.1c.05 0 .075.025.1.05.013.013.025.025.041.034L281 26c0 .05.025.075.05.1a.308.308 0 01.025.027c.003.005.007.009.009.014L285.2 40.6l5.6-17.5-40.1-18.2 30.1 21zm-1 1.6l3.7 13.2-10.6-10.9 6.9-2.3zm-17 4.2l15.9-5.3-32.8-22.8 16.9 28.1zm16.1-15.6L252.7 4.2 303 18.1l-11.3 3.8-12.8-5.8zm-8.407 46.593l7.914 19.273c.093.279.093.465.093.744-.093.187-.372.28-.559.28h-.093l-4.003-.28c-.186.094-.373.187-.559.187h-.093l-61.541-5.587h-.373l-.093-.093c-.093 0-.093-.093-.093-.093-.093 0-.093-.093-.093-.093v-.838l.093-.093.093-.093 40.966-32.959c.186-.093.465-.186.651-.093l2.235-1.769c.186-.186.372-.186.559-.186a.51.51 0 01.465.28l11.172 15.827c.094 0 .094.093.094.093v.466l-.931 5.306 3.258-.744c.373 0 .745.186.838.465zm-23.276 4.47l.466.278 17.038-4.096.838-4.655-19.738 6.796.279 1.676.559-.093c.186 0 .372 0 .558.093zm-2.607-.653l.187 1.118-14.897 3.724 14.71-4.842zm20.856-9.217l-10.149-14.43-2.327 1.768-6.518 19.18 18.994-6.518zm-14.338-11.452l-6.518 19.087-3.165 1.024-26.255 8.658 35.938-28.769zm-4.376 22.81l-30.818 7.635 53.814 4.842-22.996-12.476zm26.069 12.477l-23.276-12.662 19.831-4.656 7.262 17.597-3.817-.28zM161.9 200.8l-13.5 4.5-6.5 20.3-.006.035a.091.091 0 01-.094.065l-.006.035a.098.098 0 01-.045.055l-.049.01-.2.2a.327.327 0 01-.24.099l-.26.001s-.1 0-.1-.1l-.1-.1-13.2-13.5-8.6 2.9h-.2c-.3 0-.5-.1-.7-.4L99 183.099v-.799s0-.1.1-.1c0 0 0-.064.051-.09l.055-.01h.094s.064 0 .09-.051l.01-.049h.5l61.9 17.3c.3.1.6.4.6.7 0 .4-.2.7-.5.8zm-25.1 7.1c.05 0 .075.025.1.05.013.013.025.025.041.034L137 208c0 .05.025.075.05.1a.195.195 0 01.034.041L141.2 222.6l5.6-17.5-40.1-18.2 30.1 21zm-1 1.6l3.7 13.2-10.6-10.9 6.9-2.3zm-17 4.2l15.9-5.3-32.8-22.8 16.9 28.1zm16.1-15.6l-26.2-11.9 50.3 13.9-11.3 3.8-12.8-5.8zm-41.809 15.902l.022-.056c.029-.08.018-.106-.047-.259l-.156-.368-21.528-28.451c-.078-.184-.21-.237-.34-.29l-7.91-2.509c-.223-.014-.538.012-.775.221l-9.603 8.856-.046.084c-.017.024-.035.045-.053.067a.519.519 0 00-.099.15l-.031.079c-.04.103-.067.202-.036.276l.037.086 1.84 7.917-9.3-3.223c-.127-.109-.314-.07-.477-.011l-.152.061-15.37 9.348c-.145.171-.29.341-.304.564-.106.262.012.538.182.683l5.128 5.428c.17.145.302.198.525.212l21.427.573 2.484 3.292c.17.145.34.29.655.264l33.23-2.589.598-.255c.048-.024.057-.045.1-.15zm-15.284.078l-18.191 1.421-1.49-1.975 19.68.554zm-32.653-16.014l-14.25 8.656 4.198 4.519 52.373 1.56-42.321-14.735zm39.481 12.138l-28.328-9.92-1.67-7.004 17.876 10.12 12.122 6.804zM70.42 185.929l-7.162-2.284-8.417 7.81 34.662 19.725-19.083-25.251zM67.027 239.7v-.3h-.5l-54.3-11.4h-.4l-11.3 4.2c-.3.1-.4.3-.5.6-.1.3.1.5.3.7l10.5 8.7-1.7 20.9v.3c0 .1.1.2.1.2.1.1.2.2.3.2h.1c.042 0 .067 0 .088.008.03.01.054.034.112.092h.1c.1 0 .2 0 .3-.1l12.3-5.1 3.5 4.3c.1.1.3.2.5.3l13.1 2.7h.1c.2 0 .4-.1.5-.2l26.6-25.4.1-.1.1-.1v-.5zm-49.2 11.7c-.1 0-.2.1-.3.2l-.1.1-.1.1-6.6 8.9 1.5-17.9 46.8-1.8-41.2 10.4zm42-12.1l-47.7-9.7-9.8 3.6 9.5 7.9 48-1.8zm-47.8 22.1l5.9-8 3.4 4.2-9.3 3.8zm14.9.6l12.6 2.4 24.2-23.1-16.6 4.2-27.7 7.1 7.5 9.4zM161.9 290.8l-13.5 4.5-6.5 20.3-.006.035a.091.091 0 01-.094.065l-.006.035a.098.098 0 01-.045.055l-.049.01-.2.2a.327.327 0 01-.24.099l-.26.001s-.1 0-.1-.1l-.1-.1-13.2-13.5-8.6 2.9h-.2c-.3 0-.5-.1-.7-.4L99 273.099v-.799s0-.1.1-.1c0 0 0-.064.051-.09l.055-.01h.094s.064 0 .09-.051l.01-.049h.5l61.9 17.3c.3.1.6.4.6.7 0 .4-.2.7-.5.8zm-25.1 7.1c.05 0 .075.025.1.05l.008.008.004.004.017.015.012.007.059.016c0 .05.025.075.05.1.012.013.025.025.034.041L141.2 312.6l5.6-17.5-40.1-18.2 30.1 21zm-1 1.6l3.7 13.2-10.6-10.9 6.9-2.3zm-17 4.2l15.9-5.3-32.8-22.8 16.9 28.1zm16.1-15.6l-26.2-11.9 50.3 13.9-11.3 3.8-12.8-5.8zm-41.809 15.902l.022-.056c.029-.08.018-.106-.047-.259l-.156-.368-21.528-28.451c-.078-.184-.21-.237-.34-.29l-7.91-2.509c-.223-.014-.538.012-.775.221l-9.603 8.856-.046.084c-.017.024-.035.045-.053.067a.519.519 0 00-.099.15l-.031.079c-.04.103-.067.202-.036.276l.037.086 1.84 7.917-9.3-3.223c-.127-.109-.314-.07-.477-.011l-.152.061-15.37 9.348c-.145.171-.29.341-.304.564-.106.262.012.538.182.683l5.128 5.428c.17.145.302.198.525.212l21.427.573 2.484 3.291c.17.146.34.291.655.265l33.23-2.589.598-.255c.048-.024.057-.045.1-.15zm-15.284.078l-18.191 1.421-1.49-1.975 19.68.554zm-32.653-16.014l-14.25 8.656 4.198 4.519 52.373 1.56-42.321-14.735zm39.481 12.138l-28.328-9.92-1.67-7.004 17.876 10.12 12.122 6.804zM70.42 275.929l-7.162-2.284-8.417 7.81 34.662 19.725-19.083-25.251zM67.027 329.6v.6l-.1.1-.1.1-26.6 25.4c-.1.1-.3.2-.5.2h-.1l-13.1-2.7c-.2-.1-.4-.2-.5-.3l-3.5-4.3-12.3 5.1c-.1.1-.2.1-.3.1h-.1c-.058-.058-.082-.082-.112-.092-.021-.008-.046-.008-.088-.008h-.1c-.1 0-.2-.1-.3-.2 0 0-.1-.1-.1-.2v-.3l1.7-20.9-10.5-8.7c-.2-.2-.4-.4-.3-.7.1-.3.2-.5.5-.6l11.3-4.2h.4l54.3 11.4h.5v.2zm-49.5 12c.1-.1.2-.2.3-.2l41.2-10.4-46.8 1.8-1.5 17.9 6.6-8.9.1-.1.1-.1zm-5.4-22l47.7 9.7-48 1.8-9.5-7.9 9.8-3.6zm5.8 23.8l-5.9 8 9.3-3.8-3.4-4.2zm21.6 11l-12.6-2.4-7.5-9.4 27.7-7.1 16.6-4.2-24.2 23.1zm86.966-19.707l7.914 19.273c.093.279.093.465.093.744-.093.187-.372.28-.559.28h-.093l-4.003-.28c-.186.093-.373.187-.559.187h-.093l-61.541-5.587h-.373l-.093-.093c-.093 0-.093-.093-.093-.093-.093 0-.093-.093-.093-.093v-.838l.093-.093.093-.093 40.966-32.959c.186-.093.465-.186.651-.093l2.235-1.769c.186-.186.372-.186.559-.186.186 0 .372.093.465.279l11.172 15.828c.094 0 .094.093.094.093v.466l-.931 5.306 3.258-.744c.373 0 .745.186.838.465zm-23.276 4.469l.466.279 17.038-4.096.838-4.655-19.738 6.796.279 1.676.559-.093c.186 0 .372 0 .558.093zm-2.607-.652l.187 1.118-14.897 3.724 14.71-4.842zm20.856-9.217l-10.149-14.431-2.327 1.769-6.518 19.179 18.994-6.517zm-14.338-11.452l-6.518 19.087-3.165 1.024-26.255 8.658 35.938-28.769zm-4.376 22.811l-30.817 7.634 53.813 4.842-22.996-12.476zm26.069 12.476l-23.276-12.662 19.831-4.656 7.262 17.597-3.817-.279zm82.206-23.428v-.3h-.5l-54.3-11.4h-.4l-11.3 4.2c-.3.1-.4.3-.5.6-.1.3.1.5.3.7l10.5 8.7-1.7 20.9v.3c0 .1.1.2.1.2.1.1.2.2.3.2h.1c.042 0 .067 0 .088.008.03.01.054.034.112.092h.1c.1 0 .2 0 .3-.1l12.3-5.1 3.5 4.3c.1.1.299.2.499.3h.001l13.1 2.7h.1c.2 0 .4-.1.5-.2l26.6-25.4.1-.1.1-.1v-.5zm-49.2 11.7c-.1 0-.2.1-.3.2l-.1.1-.1.1-6.6 8.9 1.5-17.9 46.8-1.8-41.2 10.4zm42-12.1l-47.7-9.7-9.8 3.6 9.5 7.9 48-1.8zm-47.8 22.1l5.9-8 3.4 4.2-9.3 3.8zm14.9.6l12.6 2.4 24.2-23.1-16.6 4.2-27.7 7.1 7.5 9.4zm66.164-47.998l.022-.056c.029-.08.018-.106-.047-.259l-.156-.368-21.528-28.451c-.078-.184-.209-.237-.34-.29l-7.909-2.509c-.224-.014-.539.012-.776.221l-9.603 8.856-.046.084-.024.032-.029.035a.535.535 0 00-.099.15l-.031.079c-.039.103-.067.202-.036.276l.037.086 1.839 7.917-9.298-3.223c-.128-.109-.315-.07-.478-.011l-.153.061-15.369 9.348c-.145.171-.29.341-.304.564-.106.262.012.538.182.683l5.128 5.428a.785.785 0 00.525.212l21.427.573 2.484 3.291c.17.146.34.291.655.265l33.23-2.589.598-.255c.048-.024.057-.045.099-.15zm-15.284.078l-18.191 1.421-1.49-1.975 19.681.554zm-32.653-16.014l-14.251 8.656 4.199 4.519 52.373 1.56-42.321-14.735zm39.481 12.138l-28.328-9.92-1.669-7.004 17.875 10.12 12.122 6.804zm-14.215-24.275l-7.162-2.284-8.417 7.81 34.662 19.725-19.083-25.251zM305.9 290.8l-13.5 4.5-6.5 20.3-.006.035a.091.091 0 01-.094.065l-.006.035a.098.098 0 01-.045.055l-.049.01-.2.2a.327.327 0 01-.24.099l-.26.001s-.1 0-.1-.1l-.1-.1-13.2-13.5-8.6 2.9h-.2c-.3 0-.5-.1-.7-.4L243 273.099v-.799s0-.1.1-.1c0 0 0-.064.051-.09l.055-.01h.094s.064 0 .09-.051l.01-.049h.5l61.9 17.3c.3.1.6.4.6.7 0 .4-.2.7-.5.8zm-25.1 7.1c.05 0 .075.025.1.05.013.013.025.025.041.034L281 298c0 .05.025.075.05.1.012.013.025.025.034.041L285.2 312.6l5.6-17.5-40.1-18.2 30.1 21zm-1 1.6l3.7 13.2-10.6-10.9 6.9-2.3zm-17 4.2l15.9-5.3-32.8-22.8 16.9 28.1zm16.1-15.6l-26.2-11.9 50.3 13.9-11.3 3.8-12.8-5.8zm-8.407 46.593l7.914 19.273c.093.279.093.465.093.744-.093.187-.372.28-.559.28h-.093l-4.003-.28c-.186.093-.373.187-.559.187h-.093l-61.541-5.587h-.373l-.093-.093c-.093 0-.093-.093-.093-.093-.093 0-.093-.093-.093-.093v-.838l.093-.093.093-.093 40.966-32.959c.186-.093.465-.186.651-.093l2.235-1.769c.186-.186.372-.186.559-.186.186 0 .372.093.465.279l11.172 15.828c.094 0 .094.093.094.093v.466l-.931 5.306 3.258-.744c.373 0 .745.186.838.465zm-23.276 4.469l.466.279 17.038-4.096.838-4.655-19.738 6.796.279 1.676.559-.093c.186 0 .372 0 .558.093zm-17.317 4.19l14.71-4.842.187 1.118-14.897 3.724zm35.566-14.059l-10.149-14.431-2.327 1.769-6.518 19.179 18.994-6.517zm-14.338-11.452l-6.518 19.087-3.165 1.024-26.255 8.658 35.938-28.769zm-4.376 22.811l-30.818 7.634 53.814 4.842-22.996-12.476zm26.069 12.476l-23.276-12.662 19.831-4.656 7.262 17.597-3.817-.279zM126.493 244.693l7.914 19.273c.093.279.093.465.093.744-.093.187-.372.28-.559.28h-.093l-4.003-.28c-.186.093-.373.187-.559.187h-.093l-61.541-5.587h-.373l-.093-.093c-.093 0-.093-.093-.093-.093-.093 0-.093-.093-.093-.093v-.838l.093-.093.093-.093 40.966-32.959c.186-.093.465-.186.651-.093l2.235-1.769c.186-.186.372-.186.559-.186.186 0 .372.093.465.279l11.172 15.828c.094 0 .094.093.094.093v.466l-.931 5.306 3.258-.744c.373 0 .745.186.838.465zm-23.276 4.469l.466.279 17.038-4.096.838-4.655-19.738 6.796.279 1.676.559-.093c.186 0 .372 0 .558.093zm-2.607-.652l.187 1.118-14.897 3.724 14.71-4.842zm20.856-9.217l-10.149-14.431-2.327 1.769-6.518 19.179 18.994-6.517zm-14.338-11.452l-6.518 19.087-3.165 1.024-26.255 8.658 35.938-28.769zm-4.376 22.811l-30.817 7.634 53.813 4.842-22.996-12.476zm26.069 12.476l-23.276-12.662 19.831-4.656 7.262 17.597-3.817-.279zm82.206-23.428v-.3h-.5l-54.3-11.4h-.4l-11.3 4.2c-.3.1-.4.3-.5.6-.1.3.1.5.3.7l10.5 8.7-1.7 20.9v.3c0 .1.1.2.1.2.1.1.2.2.3.2h.1c.042 0 .067 0 .088.008.03.01.054.034.112.092h.1c.1 0 .2 0 .3-.1l12.3-5.1 3.5 4.3c.1.1.3.2.5.3l13.1 2.7h.1c.2 0 .4-.1.5-.2l26.6-25.4.1-.1.1-.1v-.5zm-49.2 11.7c-.1 0-.2.1-.3.2l-.1.1-.1.1-6.6 8.9 1.5-17.9 46.8-1.8-41.2 10.4zm42-12.1l-47.7-9.7-9.8 3.6 9.5 7.9 48-1.8zm-47.8 22.1l5.9-8 3.4 4.2-9.3 3.8zm14.9.6l12.6 2.4 24.2-23.1-16.6 4.2-27.7 7.1 7.5 9.4zm66.164-47.998l.022-.056c.029-.08.018-.106-.047-.259l-.156-.368-21.528-28.451c-.078-.184-.209-.237-.34-.29l-7.909-2.509c-.224-.014-.539.012-.776.221l-9.603 8.856-.046.084c-.017.024-.035.045-.053.067a.535.535 0 00-.099.15l-.031.079c-.039.103-.067.202-.036.276l.037.086 1.839 7.917-9.298-3.223c-.128-.109-.315-.07-.478-.011l-.153.061-15.369 9.348c-.145.171-.29.341-.304.564-.106.262.012.538.182.683l5.128 5.428a.785.785 0 00.525.212l21.427.573 2.484 3.292c.17.145.34.29.655.264l33.23-2.589.598-.255c.048-.024.057-.045.099-.15zm-15.284.078l-18.191 1.421-1.49-1.975 19.681.554zm-32.653-16.014l-14.251 8.656 4.199 4.519 52.373 1.56-42.321-14.735zm39.481 12.138l-28.328-9.92-1.669-7.004 17.875 10.12 12.122 6.804zm-14.215-24.275l-7.162-2.284-8.417 7.81 34.662 19.725-19.083-25.251zM305.9 200.8l-13.5 4.5-6.5 20.3-.006.035a.091.091 0 01-.094.065l-.006.035a.098.098 0 01-.045.055l-.049.01-.2.2a.327.327 0 01-.24.099l-.26.001s-.1 0-.1-.1l-.1-.1-13.2-13.5-8.6 2.9h-.2c-.3 0-.5-.1-.7-.4L243 183.099v-.799s0-.1.1-.1c0 0 0-.064.051-.09l.055-.01h.094s.064 0 .09-.051l.01-.049h.5l61.9 17.3c.3.1.6.4.6.7 0 .4-.2.7-.5.8zm-25.1 7.1c.05 0 .075.025.1.05.013.013.025.025.041.034L281 208c0 .05.025.075.05.1l.025.027c.003.004.007.009.009.014L285.2 222.6l5.6-17.5-40.1-18.2 30.1 21zm-1 1.6l3.7 13.2-10.6-10.9 6.9-2.3zm-17 4.2l15.9-5.3-32.8-22.8 16.9 28.1zm16.1-15.6l-26.2-11.9 50.3 13.9-11.3 3.8-12.8-5.8zm-8.407 46.593l7.914 19.273c.093.279.093.465.093.744-.093.187-.372.28-.559.28h-.093l-4.003-.28c-.186.093-.373.187-.559.187h-.093l-61.541-5.587h-.373l-.093-.093c-.093 0-.093-.093-.093-.093-.093 0-.093-.093-.093-.093v-.838l.093-.093.093-.093 40.966-32.959c.186-.093.465-.186.651-.093l2.235-1.769c.186-.186.372-.186.559-.186.186 0 .372.093.465.279l11.172 15.828c.094 0 .094.093.094.093v.466l-.931 5.306 3.258-.744c.373 0 .745.186.838.465zm-23.276 4.469l.466.279 17.038-4.096.838-4.655-19.738 6.796.279 1.676.559-.093c.186 0 .372 0 .558.093zm-2.607-.652l.187 1.118-14.897 3.724 14.71-4.842zm20.856-9.217l-10.149-14.431-2.327 1.769-6.518 19.179 18.994-6.517zm-14.338-11.452l-6.518 19.087-3.165 1.024-26.255 8.658 35.938-28.769zm-4.376 22.811l-30.818 7.634 53.814 4.842-22.996-12.476zm26.069 12.476l-23.276-12.662 19.831-4.656 7.262 17.597-3.817-.279zM161.9 382.8l-13.5 4.5-6.5 20.3-.006.035a.091.091 0 01-.094.065l-.006.035a.098.098 0 01-.045.055l-.049.01-.2.2a.327.327 0 01-.24.099l-.26.001s-.1 0-.1-.1l-.1-.1-13.2-13.5-8.6 2.9h-.2c-.3 0-.5-.1-.7-.4L99 365.099v-.799s0-.1.1-.1c0 0 0-.064.051-.09l.055-.01h.094s.064 0 .09-.051l.01-.049h.5l61.9 17.3c.3.1.6.4.6.7 0 .4-.2.7-.5.8zm-25.1 7.1c.05 0 .075.025.1.05a.19.19 0 00.041.034L137 390c0 .05.025.075.05.1.012.012.025.025.034.041L141.2 404.6l5.6-17.5-40.1-18.2 30.1 21zm-1 1.6l3.7 13.2-10.6-10.9 6.9-2.3zm-17 4.2l15.9-5.3-32.8-22.8 16.9 28.1zm16.1-15.6l-26.2-11.9 50.3 13.9-11.3 3.8-12.8-5.8zm-41.809 15.902l.022-.056c.029-.08.018-.106-.047-.259l-.156-.368-21.528-28.451c-.078-.184-.21-.237-.34-.29l-7.91-2.509c-.223-.014-.538.012-.775.221l-9.603 8.856-.046.084c-.017.024-.035.045-.053.067a.519.519 0 00-.099.15l-.031.079c-.04.103-.067.202-.036.276l.037.086 1.84 7.917-9.3-3.223c-.127-.109-.314-.07-.477-.011l-.152.061-15.37 9.348c-.145.171-.29.341-.304.564-.106.262.012.538.182.683l5.128 5.428c.17.145.302.198.525.212l21.427.573 2.484 3.292c.17.145.34.29.655.264l33.23-2.589.598-.255c.048-.024.057-.045.1-.15zm-15.284.078l-18.191 1.421-1.49-1.975 19.68.554zm-32.653-16.014l-14.25 8.656 4.198 4.519 52.373 1.56-42.321-14.735zm39.481 12.138l-28.328-9.92-1.67-7.004 17.876 10.12 12.122 6.804zM70.42 367.929l-7.162-2.284-8.417 7.81 34.662 19.725-19.083-25.251zM67.027 421.7v-.3h-.5l-54.3-11.4h-.4l-11.3 4.2c-.3.1-.4.3-.5.6-.1.3.1.5.3.7l10.5 8.7-1.7 20.9v.3c0 .1.1.2.1.2.1.1.2.2.3.2h.1c.042 0 .067 0 .088.008.03.01.054.034.112.092h.1c.1 0 .2 0 .3-.1l12.3-5.1 3.5 4.3c.1.1.3.2.5.3l13.1 2.7h.1c.2 0 .4-.1.5-.2l26.6-25.4.1-.1.1-.1v-.5zm-49.2 11.7c-.1 0-.2.1-.3.2l-.1.1-.1.1-6.6 8.9 1.5-17.9 46.8-1.8-41.2 10.4zm42-12.1l-47.7-9.7-9.8 3.6 9.5 7.9 48-1.8zm-47.8 22.1l5.9-8 3.4 4.2-9.3 3.8zm14.9.6l12.6 2.4 24.2-23.1-16.6 4.2-27.7 7.1 7.5 9.4zM161.9 472.8l-13.5 4.5-6.5 20.3-.006.035a.091.091 0 01-.094.065l-.006.035a.098.098 0 01-.045.055l-.049.01-.2.2a.327.327 0 01-.24.099l-.26.001s-.1 0-.1-.1l-.1-.1-13.2-13.5-8.6 2.9h-.2c-.3 0-.5-.1-.7-.4L99 455.099v-.799s0-.1.1-.1c0 0 0-.064.051-.09l.055-.01h.094s.064 0 .09-.051l.01-.049h.5l61.9 17.3c.3.1.6.4.6.7 0 .4-.2.7-.5.8zm-25.1 7.1c.05 0 .075.025.1.05l.008.008.004.004.017.015.012.007.059.016c0 .05.025.075.05.1.012.013.025.025.034.041L141.2 494.6l5.6-17.5-40.1-18.2 30.1 21zm-1 1.6l3.7 13.2-10.6-10.9 6.9-2.3zm-17 4.2l15.9-5.3-32.8-22.8 16.9 28.1zm16.1-15.6l-26.2-11.9 50.3 13.9-11.3 3.8-12.8-5.8zm-41.809 15.902l.022-.056c.029-.08.018-.106-.047-.259l-.156-.368-21.528-28.451c-.078-.184-.21-.237-.34-.29l-7.91-2.509c-.223-.014-.538.012-.775.221l-9.603 8.856-.046.084c-.017.024-.035.045-.053.067a.519.519 0 00-.099.15l-.031.079c-.04.103-.067.202-.036.276l.037.086 1.84 7.917-9.3-3.223c-.127-.109-.314-.07-.477-.011l-.152.061-15.37 9.348c-.145.171-.29.341-.304.564-.106.262.012.538.182.683l5.128 5.428c.17.145.302.198.525.212l21.427.573 2.484 3.291c.17.146.34.291.655.265l33.23-2.589.598-.255c.048-.024.057-.045.1-.15zm-15.284.078l-18.191 1.421-1.49-1.975 19.68.554zm-32.653-16.014l-14.25 8.656 4.198 4.519 52.373 1.56-42.321-14.735zm39.481 12.138l-28.328-9.92-1.67-7.004 17.876 10.12 12.122 6.804zM70.42 457.929l-7.162-2.284-8.417 7.81 34.662 19.725-19.083-25.251zM67.027 511.6v.6l-.1.1-.1.1-26.6 25.4c-.1.1-.3.2-.5.2h-.1l-13.1-2.7c-.2-.1-.4-.2-.5-.3l-3.5-4.3-12.3 5.1c-.1.1-.2.1-.3.1h-.1c-.058-.058-.082-.082-.112-.092-.021-.008-.046-.008-.088-.008h-.1c-.1 0-.2-.1-.3-.2 0 0-.1-.1-.1-.2v-.3l1.7-20.9-10.5-8.7c-.2-.2-.4-.4-.3-.7.1-.3.2-.5.5-.6l11.3-4.2h.4l54.3 11.4h.5v.2zm-49.5 12c.1-.1.2-.2.3-.2l41.2-10.4-46.8 1.8-1.5 17.9 6.6-8.9.1-.1.1-.1zm-5.4-22l47.7 9.7-48 1.8-9.5-7.9 9.8-3.6zm5.8 23.8l-5.9 8 9.3-3.8-3.4-4.2zm21.6 11l-12.6-2.4-7.5-9.4 27.7-7.1 16.6-4.2-24.2 23.1zm86.966-19.707l7.914 19.273c.093.279.093.465.093.744-.093.187-.372.28-.559.28h-.093l-4.003-.28c-.186.093-.373.187-.559.187h-.093l-61.541-5.587h-.373l-.093-.093c-.093 0-.093-.093-.093-.093-.093 0-.093-.093-.093-.093v-.838l.093-.093.093-.093 40.966-32.959c.186-.093.465-.186.651-.093l2.235-1.769c.186-.186.372-.186.559-.186.186 0 .372.093.465.279l11.172 15.828c.094 0 .094.093.094.093v.466l-.931 5.306 3.258-.744c.373 0 .745.186.838.465zm-23.276 4.469l.466.279 17.038-4.096.838-4.655-19.738 6.796.279 1.676.559-.093c.186 0 .372 0 .558.093zm-2.607-.652l.187 1.118-14.897 3.724 14.71-4.842zm20.856-9.217l-10.149-14.431-2.327 1.769-6.518 19.179 18.994-6.517zm-14.338-11.452l-6.518 19.087-3.165 1.024-26.255 8.658 35.938-28.769zm-4.376 22.811l-30.817 7.634 53.813 4.842-22.996-12.476zm26.069 12.476l-23.276-12.662 19.831-4.656 7.262 17.597-3.817-.279zm82.206-23.428v-.3h-.5l-54.3-11.4h-.4l-11.3 4.2c-.3.1-.4.3-.5.6-.1.3.1.5.3.7l10.5 8.7-1.7 20.9v.3c0 .1.1.2.1.2.1.1.2.2.3.2h.1c.042 0 .067 0 .088.008.03.01.054.034.112.092h.1c.1 0 .2 0 .3-.1l12.3-5.1 3.5 4.3c.1.1.299.2.499.3h.001l13.1 2.7h.1c.2 0 .4-.1.5-.2l26.6-25.4.1-.1.1-.1v-.5zm-49.2 11.7c-.1 0-.2.1-.3.2l-.1.1-.1.1-6.6 8.9 1.5-17.9 46.8-1.8-41.2 10.4zm42-12.1l-47.7-9.7-9.8 3.6 9.5 7.9 48-1.8zm-47.8 22.1l5.9-8 3.4 4.2-9.3 3.8zm14.9.6l12.6 2.4 24.2-23.1-16.6 4.2-27.7 7.1 7.5 9.4zm66.164-47.998l.022-.056c.029-.08.018-.106-.047-.259l-.156-.368-21.528-28.451c-.078-.184-.209-.237-.34-.29l-7.909-2.509c-.224-.014-.539.012-.776.221l-9.603 8.856-.046.084-.024.032-.029.035a.535.535 0 00-.099.15l-.031.079c-.039.103-.067.202-.036.276l.037.086 1.839 7.917-9.298-3.223c-.128-.109-.315-.07-.478-.011l-.153.061-15.369 9.348c-.145.171-.29.341-.304.564-.106.262.012.538.182.683l5.128 5.428a.785.785 0 00.525.212l21.427.573 2.484 3.291c.17.146.34.291.655.265l33.23-2.589.598-.255c.048-.024.057-.045.099-.15zm-15.284.078l-18.191 1.421-1.49-1.975 19.681.554zm-32.653-16.014l-14.251 8.656 4.199 4.519 52.373 1.56-42.321-14.735zm39.481 12.138l-28.328-9.92-1.669-7.004 17.875 10.12 12.122 6.804zm-14.215-24.275l-7.162-2.284-8.417 7.81 34.662 19.725-19.083-25.251zM305.9 472.8l-13.5 4.5-6.5 20.3-.006.035a.091.091 0 01-.094.065l-.006.035a.098.098 0 01-.045.055l-.049.01-.2.2a.327.327 0 01-.24.099l-.26.001s-.1 0-.1-.1l-.1-.1-13.2-13.5-8.6 2.9h-.2c-.3 0-.5-.1-.7-.4L243 455.099v-.799s0-.1.1-.1c0 0 0-.064.051-.09l.055-.01h.094s.064 0 .09-.051l.01-.049h.5l61.9 17.3c.3.1.6.4.6.7 0 .4-.2.7-.5.8zm-25.1 7.1c.05 0 .075.025.1.05.013.013.025.025.041.034L281 480c0 .05.025.075.05.1.012.013.025.025.034.041L285.2 494.6l5.6-17.5-40.1-18.2 30.1 21zm-1 1.6l3.7 13.2-10.6-10.9 6.9-2.3zm-17 4.2l15.9-5.3-32.8-22.8 16.9 28.1zm16.1-15.6l-26.2-11.9 50.3 13.9-11.3 3.8-12.8-5.8zm-8.407 46.593l7.914 19.273c.093.279.093.465.093.744-.093.187-.372.28-.559.28h-.093l-4.003-.28c-.186.093-.373.187-.559.187h-.093l-61.541-5.587h-.373l-.093-.093c-.093 0-.093-.093-.093-.093-.093 0-.093-.093-.093-.093v-.838l.093-.093.093-.093 40.966-32.959c.186-.093.465-.186.651-.093l2.235-1.769c.186-.186.372-.186.559-.186.186 0 .372.093.465.279l11.172 15.828c.094 0 .094.093.094.093v.466l-.931 5.306 3.258-.744c.373 0 .745.186.838.465zm-23.276 4.469l.466.279 17.038-4.096.838-4.655-19.738 6.796.279 1.676.559-.093c.186 0 .372 0 .558.093zm-17.317 4.19l14.71-4.842.187 1.118-14.897 3.724zm35.566-14.059l-10.149-14.431-2.327 1.769-6.518 19.179 18.994-6.517zm-14.338-11.452l-6.518 19.087-3.165 1.024-26.255 8.658 35.938-28.769zm-4.376 22.811l-30.818 7.634 53.814 4.842-22.996-12.476zm26.069 12.476l-23.276-12.662 19.831-4.656 7.262 17.597-3.817-.279zM126.493 426.693l7.914 19.273c.093.279.093.465.093.744-.093.187-.372.28-.559.28h-.093l-4.003-.28c-.186.093-.373.187-.559.187h-.093l-61.541-5.587h-.373l-.093-.093c-.093 0-.093-.093-.093-.093-.093 0-.093-.093-.093-.093v-.838l.093-.093.093-.093 40.966-32.959c.186-.093.465-.186.651-.093l2.235-1.769c.186-.186.372-.186.559-.186.186 0 .372.093.465.279l11.172 15.828c.094 0 .094.093.094.093v.466l-.931 5.306 3.258-.744c.373 0 .745.186.838.465zm-23.276 4.469l.466.279 17.038-4.096.838-4.655-19.738 6.796.279 1.676.559-.093c.186 0 .372 0 .558.093zm-2.607-.652l.187 1.118-14.897 3.724 14.71-4.842zm20.856-9.217l-10.149-14.431-2.327 1.769-6.518 19.179 18.994-6.517zm-14.338-11.452l-6.518 19.087-3.165 1.024-26.255 8.658 35.938-28.769zm-4.376 22.811l-30.817 7.634 53.813 4.842-22.996-12.476zm26.069 12.476l-23.276-12.662 19.831-4.656 7.262 17.597-3.817-.279zm82.206-23.428v-.3h-.5l-54.3-11.4h-.4l-11.3 4.2c-.3.1-.4.3-.5.6-.1.3.1.5.3.7l10.5 8.7-1.7 20.9v.3c0 .1.1.2.1.2.1.1.2.2.3.2h.1c.042 0 .067 0 .088.008.03.01.054.034.112.092h.1c.1 0 .2 0 .3-.1l12.3-5.1 3.5 4.3c.1.1.3.2.5.3l13.1 2.7h.1c.2 0 .4-.1.5-.2l26.6-25.4.1-.1.1-.1v-.5zm-49.2 11.7c-.1 0-.2.1-.3.2l-.1.1-.1.1-6.6 8.9 1.5-17.9 46.8-1.8-41.2 10.4zm42-12.1l-47.7-9.7-9.8 3.6 9.5 7.9 48-1.8zm-47.8 22.1l5.9-8 3.4 4.2-9.3 3.8zm14.9.6l12.6 2.4 24.2-23.1-16.6 4.2-27.7 7.1 7.5 9.4zm66.164-47.998l.022-.056c.029-.08.018-.106-.047-.259l-.156-.368-21.528-28.451c-.078-.184-.209-.237-.34-.29l-7.909-2.509c-.224-.014-.539.012-.776.221l-9.603 8.856-.046.084c-.017.024-.035.045-.053.067a.535.535 0 00-.099.15l-.031.079c-.039.103-.067.202-.036.276l.037.086 1.839 7.917-9.298-3.223c-.128-.109-.315-.07-.478-.011l-.153.061-15.369 9.348c-.145.171-.29.341-.304.564-.106.262.012.538.182.683l5.128 5.428a.785.785 0 00.525.212l21.427.573 2.484 3.292c.17.145.34.29.655.264l33.23-2.589.598-.255c.048-.024.057-.045.099-.15zm-15.284.078l-18.191 1.421-1.49-1.975 19.681.554zm-32.653-16.014l-14.251 8.656 4.199 4.519 52.373 1.56-42.321-14.735zm39.481 12.138l-28.328-9.92-1.669-7.004 17.875 10.12 12.122 6.804zm-14.215-24.275l-7.162-2.284-8.417 7.81 34.662 19.725-19.083-25.251zM305.9 382.8l-13.5 4.5-6.5 20.3-.006.035a.091.091 0 01-.094.065l-.006.035a.098.098 0 01-.045.055l-.049.01-.2.2a.327.327 0 01-.24.099l-.26.001s-.1 0-.1-.1l-.1-.1-13.2-13.5-8.6 2.9h-.2c-.3 0-.5-.1-.7-.4L243 365.099v-.799s0-.1.1-.1c0 0 0-.064.051-.09l.055-.01h.094s.064 0 .09-.051l.01-.049h.5l61.9 17.3c.3.1.6.4.6.7 0 .4-.2.7-.5.8zm-25.1 7.1c.05 0 .075.025.1.05.013.013.025.025.041.034L281 390c0 .05.025.075.05.1a.32.32 0 01.025.027c.003.004.007.009.009.014L285.2 404.6l5.6-17.5-40.1-18.2 30.1 21zm-1 1.6l3.7 13.2-10.6-10.9 6.9-2.3zm-17 4.2l15.9-5.3-32.8-22.8 16.9 28.1zm16.1-15.6l-26.2-11.9 50.3 13.9-11.3 3.8-12.8-5.8zm-8.407 46.593l7.914 19.273c.093.279.093.465.093.744-.093.187-.372.28-.559.28h-.093l-4.003-.28c-.186.093-.373.187-.559.187h-.093l-61.541-5.587h-.373l-.093-.093c-.093 0-.093-.093-.093-.093-.093 0-.093-.093-.093-.093v-.838l.093-.093.093-.093 40.966-32.959c.186-.093.465-.186.651-.093l2.235-1.769c.186-.186.372-.186.559-.186.186 0 .372.093.465.279l11.172 15.828c.094 0 .094.093.094.093v.466l-.931 5.306 3.258-.744c.373 0 .745.186.838.465zm-23.276 4.469l.466.279 17.038-4.096.838-4.655-19.738 6.796.279 1.676.559-.093c.186 0 .372 0 .558.093zm-2.607-.652l.187 1.118-14.897 3.724 14.71-4.842zm20.856-9.217l-10.149-14.431-2.327 1.769-6.518 19.179 18.994-6.517zm-14.338-11.452l-6.518 19.087-3.165 1.024-26.255 8.658 35.938-28.769zm-4.376 22.811l-30.818 7.634 53.814 4.842-22.996-12.476zm26.069 12.476l-23.276-12.662 19.831-4.656 7.262 17.597-3.817-.279zM161.9 564.8l-13.5 4.5-6.5 20.3-.006.035a.091.091 0 01-.094.065l-.006.035a.098.098 0 01-.045.055l-.049.01-.2.2a.327.327 0 01-.24.099l-.26.001s-.1 0-.1-.1l-.1-.1-13.2-13.5-8.6 2.9h-.2c-.3 0-.5-.1-.7-.4L99 547.099v-.799s0-.1.1-.1c0 0 0-.064.051-.09l.055-.01h.094s.064 0 .09-.051l.01-.049h.5l61.9 17.3c.3.1.6.4.6.7 0 .4-.2.7-.5.8zm-25.1 7.1c.05 0 .075.025.1.05.013.013.025.025.041.034L137 572c0 .05.025.075.05.1a.195.195 0 01.034.041L141.2 586.6l5.6-17.5-40.1-18.2 30.1 21zm-1 1.6l3.7 13.2-10.6-10.9 6.9-2.3zm-17 4.2l15.9-5.3-32.8-22.8 16.9 28.1zm16.1-15.6l-26.2-11.9 50.3 13.9-11.3 3.8-12.8-5.8zm-41.809 15.902l.022-.056c.029-.08.018-.106-.047-.259l-.156-.368-21.528-28.451c-.078-.184-.21-.237-.34-.29l-7.91-2.509c-.223-.014-.538.012-.775.221l-9.603 8.856-.046.084c-.017.024-.035.045-.053.067a.519.519 0 00-.099.15l-.031.079c-.04.103-.067.202-.036.276l.037.086 1.84 7.917-9.3-3.223c-.127-.109-.314-.07-.477-.011l-.152.061-15.37 9.348c-.145.171-.29.341-.304.564-.106.262.012.538.182.683l5.128 5.428c.17.145.302.198.525.212l21.427.573 2.484 3.292c.17.145.34.29.655.264l33.23-2.589.598-.255c.048-.024.057-.045.1-.15zm-15.284.078l-18.191 1.421-1.49-1.975 19.68.554zm-32.653-16.014l-14.25 8.656 4.198 4.519 52.373 1.56-42.321-14.735zm39.481 12.138l-28.328-9.92-1.67-7.004 17.876 10.12 12.122 6.804zM70.42 549.929l-7.162-2.284-8.417 7.81 34.662 19.725-19.083-25.251zM67.027 603.7v-.3h-.5l-54.3-11.4h-.4l-11.3 4.2c-.3.1-.4.3-.5.6-.1.3.1.5.3.7l10.5 8.7-1.7 20.9v.3c0 .1.1.2.1.2.1.1.2.2.3.2h.1c.042 0 .067 0 .088.008.03.01.054.034.112.092h.1c.1 0 .2 0 .3-.1l12.3-5.1 3.5 4.3c.1.1.3.2.5.3l13.1 2.7h.1c.2 0 .4-.1.5-.2l26.6-25.4.1-.1.1-.1v-.5zm-49.2 11.7c-.1 0-.2.1-.3.2l-.1.1-.1.1-6.6 8.9 1.5-17.9 46.8-1.8-41.2 10.4zm42-12.1l-47.7-9.7-9.8 3.6 9.5 7.9 48-1.8zm-47.8 22.1l5.9-8 3.4 4.2-9.3 3.8zm14.9.6l12.6 2.4 24.2-23.1-16.6 4.2-27.7 7.1 7.5 9.4zM161.9 654.8l-13.5 4.5-6.5 20.3-.006.035a.091.091 0 01-.094.065l-.006.035a.098.098 0 01-.045.055l-.049.01-.2.2a.327.327 0 01-.24.099l-.26.001s-.1 0-.1-.1l-.1-.1-13.2-13.5-8.6 2.9h-.2c-.3 0-.5-.1-.7-.4L99 637.099v-.799s0-.1.1-.1c0 0 0-.064.051-.09l.055-.01h.094s.064 0 .09-.051l.01-.049h.5l61.9 17.3c.3.1.6.4.6.7 0 .4-.2.7-.5.8zm-25.1 7.1c.05 0 .075.025.1.05l.008.008.004.004.017.015.012.007.059.016c0 .05.025.075.05.1.012.013.025.025.034.041L141.2 676.6l5.6-17.5-40.1-18.2 30.1 21zm-1 1.6l3.7 13.2-10.6-10.9 6.9-2.3zm-17 4.2l15.9-5.3-32.8-22.8 16.9 28.1zm16.1-15.6l-26.2-11.9 50.3 13.9-11.3 3.8-12.8-5.8zm-41.809 15.902l.022-.056c.029-.08.018-.106-.047-.259l-.156-.368-21.528-28.451c-.078-.184-.21-.237-.34-.29l-7.91-2.509c-.223-.014-.538.012-.775.221l-9.603 8.856-.046.084c-.017.024-.035.045-.053.067a.519.519 0 00-.099.15l-.031.079c-.04.103-.067.202-.036.276l.037.086 1.84 7.917-9.3-3.223c-.127-.109-.314-.07-.477-.011l-.152.061-15.37 9.348c-.145.171-.29.341-.304.564-.106.262.012.538.182.683l5.128 5.428c.17.145.302.198.525.212l21.427.573 2.484 3.291c.17.146.34.291.655.265l33.23-2.589.598-.255c.048-.024.057-.045.1-.15zm-15.284.078l-18.191 1.421-1.49-1.975 19.68.554zm-32.653-16.014l-14.25 8.656 4.198 4.519 52.373 1.56-42.321-14.735zm39.481 12.138l-28.328-9.92-1.67-7.004 17.876 10.12 12.122 6.804zM70.42 639.929l-7.162-2.284-8.417 7.81 34.662 19.725-19.083-25.251zM67.027 693.6v.6l-.1.1-.1.1-26.6 25.4c-.1.1-.3.2-.5.2h-.1l-13.1-2.7c-.2-.1-.4-.2-.5-.3l-3.5-4.3-12.3 5.1c-.1.1-.2.1-.3.1h-.1c-.058-.058-.082-.082-.112-.092-.021-.008-.046-.008-.088-.008h-.1c-.1 0-.2-.1-.3-.2 0 0-.1-.1-.1-.2v-.3l1.7-20.9-10.5-8.7c-.2-.2-.4-.4-.3-.7.1-.3.2-.5.5-.6l11.3-4.2h.4l54.3 11.4h.5v.2zm-49.5 12c.1-.1.2-.2.3-.2l41.2-10.4-46.8 1.8-1.5 17.9 6.6-8.9.1-.1.1-.1zm-5.4-22l47.7 9.7-48 1.8-9.5-7.9 9.8-3.6zm5.8 23.8l-5.9 8 9.3-3.8-3.4-4.2zm21.6 11l-12.6-2.4-7.5-9.4 27.7-7.1 16.6-4.2-24.2 23.1zm86.966-19.707l7.914 19.273c.093.279.093.465.093.744-.093.187-.372.28-.559.28h-.093l-4.003-.28c-.186.093-.373.187-.559.187h-.093l-61.541-5.587h-.373l-.093-.093c-.093 0-.093-.093-.093-.093-.093 0-.093-.093-.093-.093v-.838l.093-.093.093-.093 40.966-32.959c.186-.093.465-.186.651-.093l2.235-1.769c.186-.186.372-.186.559-.186.186 0 .372.093.465.279l11.172 15.828c.094 0 .094.093.094.093v.466l-.931 5.306 3.258-.744c.373 0 .745.186.838.465zm-23.276 4.469l.466.279 17.038-4.096.838-4.655-19.738 6.796.279 1.676.559-.093c.186 0 .372 0 .558.093zm-2.607-.652l.187 1.118-14.897 3.724 14.71-4.842zm20.856-9.217l-10.149-14.431-2.327 1.769-6.518 19.179 18.994-6.517zm-14.338-11.452l-6.518 19.087-3.165 1.024-26.255 8.658 35.938-28.769zm-4.376 22.811l-30.817 7.634 53.813 4.842-22.996-12.476zm26.069 12.476l-23.276-12.662 19.831-4.656 7.262 17.597-3.817-.279zm82.206-23.428v-.3h-.5l-54.3-11.4h-.4l-11.3 4.2c-.3.1-.4.3-.5.6-.1.3.1.5.3.7l10.5 8.7-1.7 20.9v.3c0 .1.1.2.1.2.1.1.2.2.3.2h.1c.042 0 .067 0 .088.008.03.01.054.034.112.092h.1c.1 0 .2 0 .3-.1l12.3-5.1 3.5 4.3c.1.1.299.2.499.3h.001l13.1 2.7h.1c.2 0 .4-.1.5-.2l26.6-25.4.1-.1.1-.1v-.5zm-49.2 11.7c-.1 0-.2.1-.3.2l-.1.1-.1.1-6.6 8.9 1.5-17.9 46.8-1.8-41.2 10.4zm42-12.1l-47.7-9.7-9.8 3.6 9.5 7.9 48-1.8zm-47.8 22.1l5.9-8 3.4 4.2-9.3 3.8zm14.9.6l12.6 2.4 24.2-23.1-16.6 4.2-27.7 7.1 7.5 9.4zm66.164-47.998l.022-.056c.029-.08.018-.106-.047-.259l-.156-.368-21.528-28.451c-.078-.184-.209-.237-.34-.29l-7.909-2.509c-.224-.014-.539.012-.776.221l-9.603 8.856-.046.084-.024.032-.029.035a.535.535 0 00-.099.15l-.031.079c-.039.103-.067.202-.036.276l.037.086 1.839 7.917-9.298-3.223c-.128-.109-.315-.07-.478-.011l-.153.061-15.369 9.348c-.145.171-.29.341-.304.564-.106.262.012.538.182.683l5.128 5.428a.785.785 0 00.525.212l21.427.573 2.484 3.291c.17.146.34.291.655.265l33.23-2.589.598-.255c.048-.024.057-.045.099-.15zm-15.284.078l-18.191 1.421-1.49-1.975 19.681.554zm-32.653-16.014l-14.251 8.656 4.199 4.519 52.373 1.56-42.321-14.735zm39.481 12.138l-28.328-9.92-1.669-7.004 17.875 10.12 12.122 6.804zm-14.215-24.275l-7.162-2.284-8.417 7.81 34.662 19.725-19.083-25.251zM305.9 654.8l-13.5 4.5-6.5 20.3-.006.035a.091.091 0 01-.094.065l-.006.035a.098.098 0 01-.045.055l-.049.01-.2.2a.327.327 0 01-.24.099l-.26.001s-.1 0-.1-.1l-.1-.1-13.2-13.5-8.6 2.9h-.2c-.3 0-.5-.1-.7-.4L243 637.099v-.799s0-.1.1-.1c0 0 0-.064.051-.09l.055-.01h.094s.064 0 .09-.051l.01-.049h.5l61.9 17.3c.3.1.6.4.6.7 0 .4-.2.7-.5.8zm-25.1 7.1c.05 0 .075.025.1.05.013.013.025.025.041.034L281 662c0 .05.025.075.05.1.012.013.025.025.034.041L285.2 676.6l5.6-17.5-40.1-18.2 30.1 21zm-1 1.6l3.7 13.2-10.6-10.9 6.9-2.3zm-17 4.2l15.9-5.3-32.8-22.8 16.9 28.1zm16.1-15.6l-26.2-11.9 50.3 13.9-11.3 3.8-12.8-5.8zm-8.407 46.593l7.914 19.273c.093.279.093.465.093.744-.093.187-.372.28-.559.28h-.093l-4.003-.28c-.186.093-.373.187-.559.187h-.093l-61.541-5.587h-.373l-.093-.093c-.093 0-.093-.093-.093-.093-.093 0-.093-.093-.093-.093v-.838l.093-.093.093-.093 40.966-32.959c.186-.093.465-.186.651-.093l2.235-1.769c.186-.186.372-.186.559-.186.186 0 .372.093.465.279l11.172 15.828c.094 0 .094.093.094.093v.466l-.931 5.306 3.258-.744c.373 0 .745.186.838.465zm-23.276 4.469l.466.279 17.038-4.096.838-4.655-19.738 6.796.279 1.676.559-.093c.186 0 .372 0 .558.093zm-17.317 4.19l14.71-4.842.187 1.118-14.897 3.724zm35.566-14.059l-10.149-14.431-2.327 1.769-6.518 19.179 18.994-6.517zm-14.338-11.452l-6.518 19.087-3.165 1.024-26.255 8.658 35.938-28.769zm-4.376 22.811l-30.818 7.634 53.814 4.842-22.996-12.476zm26.069 12.476l-23.276-12.662 19.831-4.656 7.262 17.597-3.817-.279zM126.493 608.693l7.914 19.273c.093.279.093.465.093.744-.093.187-.372.28-.559.28h-.093l-4.003-.28c-.186.093-.373.187-.559.187h-.093l-61.541-5.587h-.373l-.093-.093c-.093 0-.093-.093-.093-.093-.093 0-.093-.093-.093-.093v-.838l.093-.093.093-.093 40.966-32.959c.186-.093.465-.186.651-.093l2.235-1.769c.186-.186.372-.186.559-.186.186 0 .372.093.465.279l11.172 15.828c.094 0 .094.093.094.093v.466l-.931 5.306 3.258-.744c.373 0 .745.186.838.465zm-23.276 4.469l.466.279 17.038-4.096.838-4.655-19.738 6.796.279 1.676.559-.093c.186 0 .372 0 .558.093zm-2.607-.652l.187 1.118-14.897 3.724 14.71-4.842zm20.856-9.217l-10.149-14.431-2.327 1.769-6.518 19.179 18.994-6.517zm-14.338-11.452l-6.518 19.087-3.165 1.024-26.255 8.658 35.938-28.769zm-4.376 22.811l-30.817 7.634 53.813 4.842-22.996-12.476zm26.069 12.476l-23.276-12.662 19.831-4.656 7.262 17.597-3.817-.279zm82.206-23.428v-.3h-.5l-54.3-11.4h-.4l-11.3 4.2c-.3.1-.4.3-.5.6-.1.3.1.5.3.7l10.5 8.7-1.7 20.9v.3c0 .1.1.2.1.2.1.1.2.2.3.2h.1c.042 0 .067 0 .088.008.03.01.054.034.112.092h.1c.1 0 .2 0 .3-.1l12.3-5.1 3.5 4.3c.1.1.3.2.5.3l13.1 2.7h.1c.2 0 .4-.1.5-.2l26.6-25.4.1-.1.1-.1v-.5zm-49.2 11.7c-.1 0-.2.1-.3.2l-.1.1-.1.1-6.6 8.9 1.5-17.9 46.8-1.8-41.2 10.4zm42-12.1l-47.7-9.7-9.8 3.6 9.5 7.9 48-1.8zm-47.8 22.1l5.9-8 3.4 4.2-9.3 3.8zm14.9.6l12.6 2.4 24.2-23.1-16.6 4.2-27.7 7.1 7.5 9.4zm66.164-47.998l.022-.056c.029-.08.018-.106-.047-.259l-.156-.368-21.528-28.451c-.078-.184-.209-.237-.34-.29l-7.909-2.509c-.224-.014-.539.012-.776.221l-9.603 8.856-.046.084c-.017.024-.035.045-.053.067a.535.535 0 00-.099.15l-.031.079c-.039.103-.067.202-.036.276l.037.086 1.839 7.917-9.298-3.223c-.128-.109-.315-.07-.478-.011l-.153.061-15.369 9.348c-.145.171-.29.341-.304.564-.106.262.012.538.182.683l5.128 5.428a.785.785 0 00.525.212l21.427.573 2.484 3.292c.17.145.34.29.655.264l33.23-2.589.598-.255c.048-.024.057-.045.099-.15zm-15.284.078l-18.191 1.421-1.49-1.975 19.681.554zm-32.653-16.014l-14.251 8.656 4.199 4.519 52.373 1.56-42.321-14.735zm39.481 12.138l-28.328-9.92-1.669-7.004 17.875 10.12 12.122 6.804zm-14.215-24.275l-7.162-2.284-8.417 7.81 34.662 19.725-19.083-25.251zM305.9 564.8l-13.5 4.5-6.5 20.3-.006.035a.091.091 0 01-.094.065l-.006.035a.098.098 0 01-.045.055l-.049.01-.2.2a.327.327 0 01-.24.099l-.26.001s-.1 0-.1-.1l-.1-.1-13.2-13.5-8.6 2.9h-.2c-.3 0-.5-.1-.7-.4L243 547.099v-.799s0-.1.1-.1c0 0 0-.064.051-.09l.055-.01h.094s.064 0 .09-.051l.01-.049h.5l61.9 17.3c.3.1.6.4.6.7 0 .4-.2.7-.5.8zm-25.1 7.1c.05 0 .075.025.1.05.013.013.025.025.041.034L281 572c0 .05.025.075.05.1l.025.027c.003.004.007.009.009.014L285.2 586.6l5.6-17.5-40.1-18.2 30.1 21zm-1 1.6l3.7 13.2-10.6-10.9 6.9-2.3zm-17 4.2l15.9-5.3-32.8-22.8 16.9 28.1zm16.1-15.6l-26.2-11.9 50.3 13.9-11.3 3.8-12.8-5.8zm-8.407 46.593l7.914 19.273c.093.279.093.465.093.744-.093.187-.372.28-.559.28h-.093l-4.003-.28c-.186.093-.373.187-.559.187h-.093l-61.541-5.587h-.373l-.093-.093c-.093 0-.093-.093-.093-.093-.093 0-.093-.093-.093-.093v-.838l.093-.093.093-.093 40.966-32.959c.186-.093.465-.186.651-.093l2.235-1.769c.186-.186.372-.186.559-.186.186 0 .372.093.465.279l11.172 15.828c.094 0 .094.093.094.093v.466l-.931 5.306 3.258-.744c.373 0 .745.186.838.465zm-23.276 4.469l.466.279 17.038-4.096.838-4.655-19.738 6.796.279 1.676.559-.093c.186 0 .372 0 .558.093zm-2.607-.652l.187 1.118-14.897 3.724 14.71-4.842zm20.856-9.217l-10.149-14.431-2.327 1.769-6.518 19.179 18.994-6.517zm-14.338-11.452l-6.518 19.087-3.165 1.024-26.255 8.658 35.938-28.769zm-4.376 22.811l-30.818 7.634 53.814 4.842-22.996-12.476zm26.069 12.476l-23.276-12.662 19.831-4.656 7.262 17.597-3.817-.279z" fill="#fff"/></svg>