<svg width="80" height="80" fill="none" xmlns="http://www.w3.org/2000/svg"><path fill-rule="evenodd" clip-rule="evenodd" d="M4 0h72a4 4 0 014 4v72a4 4 0 01-4 4H4a4 4 0 01-4-4V4a4 4 0 014-4zm72 77.333c.736 0 1.333-.597 1.333-1.333V41.333h-2.666v32H5.333v-32H2.667V76c0 .736.597 1.333 1.333 1.333h72zm-4-6.666h-8v-8h8v8zm-50.667-8H8v8h13.333v-8zM8 52h13.333v8H8v-8zm16-24v10.667h37.333V28H24zm37.333 13.333v8H24v-8h37.333zm0 18.667v-8H24v8h37.333zM24 62.667h37.333v8H24v-8zM64 52v8h8v-8h-8zm8-2.667h-8v-8h8v8zM64 28v10.667h8V28h-8zm8-2.667h-8v-8h8v8zm-48 0h37.333v-8H24v8zm-2.667 0H8v-8h13.333v8zm0 2.667H8v10.667h13.333V28zm0 13.333v8H8v-8h13.333zm53.334-26.666v24h2.666V4c0-.736-.597-1.333-1.333-1.333H4c-.736 0-1.333.597-1.333 1.333v34.667h2.666v-24h69.334zM5.333 5.333H8v5.334H5.333V5.333zm8 0h-2.666v5.334h2.666V5.333zm2.667 0h2.667v5.334H16V5.333zm48 0h-2.667v5.334H64V5.333zm-8 0h2.667v5.334H56V5.333zm13.333 0h-2.666v5.334h2.666V5.333zm2.667 0h2.667v5.334H72V5.333zM13.333 20h-2.666v2.667h2.666V20zM16 20h2.667v2.667H16V20zm14.667 0H28v2.667h2.667V20zm2.666 0H36v2.667h-2.667V20zm8 0h-2.666v2.667h2.666V20zM44 20h2.667v2.667H44V20zm8 0h-2.667v2.667H52V20zm5.333 0v2.667h-2.666V20h2.666zm12 0h-2.666v2.667h2.666V20zM10.667 30.667h8v2.666h-8v-2.666zm36 0H28v2.666h18.667v-2.666zm8 0v2.666h-5.334v-2.666h5.334zM18.667 44h-8v2.667h8V44zm8 0h8v2.667h-8V44zM52 44H37.333v2.667H52V44z" fill="url(#paint0_linear)"/><defs><linearGradient id="paint0_linear" x1="0" y1="0" x2="0" y2="80" gradientUnits="userSpaceOnUse"><stop stop-color="#EF6274"/><stop offset="1" stop-color="#F2A5AB"/></linearGradient></defs></svg>