<svg width="517" height="301" fill="none" xmlns="http://www.w3.org/2000/svg"><path fill-rule="evenodd" clip-rule="evenodd" d="M0 0h486.552S517 8.036 517 37.113V301h-.984l-29.466-29.468L457.084 301h-1.64l-29.467-29.468L396.511 301H395.1l-29.466-29.468L336.168 301h-1.64l-29.466-29.468L275.595 301h-1.869l-29.466-29.468L214.793 301h-1.639l-29.467-29.468L154.221 301h-5.891l-29.466-29.468L89.398 301h-1.64l-29.466-29.468L28.825 301h-.197s1.288-240.95 0-263.84C27.338 14.273 0 0 0 0z" fill="#fff"/></svg>