<svg width="106" height="24" fill="none" xmlns="http://www.w3.org/2000/svg"><path fill-rule="evenodd" clip-rule="evenodd" d="M71.787 3.739c-.368-.527-.398-.729.484-.879L90.384.022c.138-.099.252.15.176.387L79.963 9.933c-.366.339-.448.414-1.027.107 0 0-3.335-2.79-3.031-3.057.25-.222.869-.47 1.076-.553a1.05 1.05 0 00.07-.03l6.502-3.253c.094-.102.075-.288-.022-.224l-9.303 2.519a1.035 1.035 0 00-.138.03c-.14.036-.312.08-.39-.002l-1.913-1.731zM59.91 24c1.608 0 2.975-.243 4.1-.728 1.125-.485 1.97-1.133 2.532-1.945a4.663 4.663 0 00.845-2.72c0-1.161-.31-2.08-.929-2.756a5.52 5.52 0 00-2.195-1.48c-.844-.31-1.91-.6-3.195-.87-1.142-.24-1.97-.47-2.485-.692-.514-.223-.771-.557-.771-1.003 0-.445.217-.807.65-1.085.435-.279 1.126-.418 2.075-.418 1.511 0 3.071.43 4.679 1.288l1.471-3.507c-.82-.478-1.769-.84-2.846-1.086a14.655 14.655 0 00-3.28-.37c-1.624 0-2.995.239-4.112.716-1.118.477-1.958 1.126-2.52 1.945a4.756 4.756 0 00-.845 2.756c0 1.161.306 2.084.917 2.768a5.362 5.362 0 002.195 1.491c.852.31 1.913.6 3.183.871 1.158.255 1.998.497 2.52.728.523.23.785.585.785 1.062 0 .907-.917 1.36-2.75 1.36-.965 0-1.945-.15-2.942-.453-.997-.302-1.874-.7-2.63-1.193l-1.567 3.484c.804.556 1.85 1.002 3.135 1.336 1.287.334 2.613.501 3.98.501zm-55.135-.334v-4.439H7.38l3.063 4.439h5.113l-3.642-5.25c1.062-.509 1.878-1.213 2.449-2.112.57-.898.856-1.952.856-3.161 0-1.257-.306-2.35-.917-3.282-.61-.93-1.48-1.646-2.605-2.147-1.125-.501-2.452-.752-3.98-.752H0v16.704h4.775zm0-8.09v-4.891h2.653c.981 0 1.72.214 2.22.644.498.43.747 1.034.747 1.814s-.25 1.38-.748 1.801c-.498.422-1.238.633-2.219.633H4.775zm26.627 4.439v3.65H17.848V6.963h13.24v3.651h-8.513v2.816h7.5v3.532h-7.5v3.054h8.827zm10.636 3.65c1.85 0 3.49-.341 4.92-1.025 1.431-.684 2.54-1.655 3.329-2.911.788-1.257 1.181-2.729 1.181-4.415s-.393-3.158-1.181-4.415c-.788-1.256-1.898-2.227-3.329-2.91-1.43-.685-3.07-1.027-4.92-1.027h-7.983v16.704h7.983zm-3.207-12.932v9.163h3.014c1.447 0 2.61-.406 3.485-1.217.877-.812 1.315-1.933 1.315-3.365 0-1.432-.438-2.553-1.315-3.364-.876-.812-2.038-1.217-3.485-1.217h-3.014zm35.164 5.088v7.845h-4.414V8.886h3.932l5.933 5.792 5.788-5.791h3.931l.049 12.854-4.39-1.924-.048-4.234-4.341 3.935h-2.123l-4.317-3.697zM98.523 24c1.608 0 2.975-.243 4.1-.728 1.126-.485 1.97-1.133 2.533-1.945a4.662 4.662 0 00.844-2.72c0-1.161-.31-2.08-.929-2.756a5.52 5.52 0 00-2.194-1.48c-.844-.31-1.91-.6-3.196-.87-1.142-.24-1.97-.47-2.484-.692-.515-.223-.772-.557-.772-1.003 0-.445.217-.807.651-1.085.434-.279 1.126-.418 2.074-.418 1.512 0 3.071.43 4.679 1.288l1.472-3.507c-.82-.478-1.769-.84-2.846-1.086a14.662 14.662 0 00-3.28-.37c-1.624 0-2.995.239-4.113.716-1.117.477-1.957 1.126-2.52 1.945a4.756 4.756 0 00-.844 2.756c0 1.161.305 2.084.916 2.768a5.362 5.362 0 002.195 1.491c.852.31 1.913.6 3.184.871 1.157.255 1.998.497 2.52.728.523.23.784.585.784 1.062 0 .907-.917 1.36-2.75 1.36-.964 0-1.945-.15-2.942-.453-.997-.302-1.873-.7-2.629-1.193l-1.568 3.484c.804.556 1.85 1.002 3.136 1.336a15.77 15.77 0 003.98.501z" fill="#DB3340"/></svg>