<svg width="36" height="36" fill="none" xmlns="http://www.w3.org/2000/svg"><rect width="36" height="36" rx="6" fill="#EFF3FF"/><path d="M26.317 15.895c.488 0 .883.404.883.903 0 5.118-3.828 9.32-8.716 9.776v2.523A.893.893 0 0117.6 30a.89.89 0 01-.875-.78l-.008-.123v-2.523C11.83 26.12 8 21.916 8 16.799c0-.499.395-.903.883-.903s.883.404.883.903c0 4.425 3.507 8.011 7.834 8.011s7.834-3.586 7.834-8.011c0-.499.395-.903.883-.903zM17.749 6c2.867 0 5.192 2.378 5.192 5.31v5.479c0 2.933-2.325 5.31-5.192 5.31h-.297c-2.868 0-5.193-2.377-5.193-5.31v-5.48C12.26 8.379 14.585 6 17.453 6h.297zm0 1.806h-.297c-1.892 0-3.427 1.57-3.427 3.504v5.479c0 1.935 1.534 3.503 3.427 3.503h.297c1.892 0 3.426-1.568 3.426-3.503v-5.48c0-1.934-1.535-3.503-3.426-3.503z" fill="#3F3F3F"/></svg>