<svg width="42" height="55" fill="none" xmlns="http://www.w3.org/2000/svg"><path fill-rule="evenodd" clip-rule="evenodd" d="M40 54c-.188 0-.365-.02-.517-.038-.247-.028-.428-.049-.483.038l-5-4-3 3c-.505.16-1.475.16-2 0l-3-3-4 3c-.515.16-1.485.16-2 0l-4-3-3 3c-.525.16-1.495.16-2 0l-3-3-5 4c-.1 0-.234.01-.393.023-.424.032-1.024.079-1.607-.023-.584-.7-1-1.399-1-2V2C0 .98.97 0 2 0h38c1.03 0 2 .98 2 2v50c0 .74-.416 1.44-1 2-.278-.1-.572-.056-.788-.024A1.574 1.574 0 0140 54zm-14-9c-.023.249.177.392.51.63.141.1.307.219.49.37l3 2 4-2c.222-.785 1.202-.785 2 0l2 1V4H4v43l2-1c.798-.785 1.778-.785 2 0l4 2 3-2c.893-.785 1.872-.785 3 0l3 2 3-2c.52-.474.884-.6 1.386-.774.182-.063.382-.132.614-.226zm7.606-4.087c.244-.057.394-.092.394.087 0-.8-.28-1-1-1h-4c-.72 0-1 .2-1 1 0-.113.089-.098.297-.064.16.026.39.064.703.064h4c.234 0 .441-.049.606-.087zM33 25h-1c-.292 0-.517-.036-.679-.063-.217-.035-.321-.052-.321.063 0-.8.316-1 1-1h1c.684 0 1 .2 1 1 0-.122-.177-.095-.435-.055-.164.025-.36.055-.565.055zm-1 4h1c.205 0 .401-.045.565-.083.258-.06.435-.1.435.083 0-.8-.316-1-1-1h-1c-.684 0-1 .2-1 1 0-.115.104-.098.321-.063.162.027.387.063.679.063zm1 5h-1c-.292 0-.517-.036-.679-.063-.217-.035-.321-.052-.321.063 0-.8.316-1 1-1h1c.684 0 1 .2 1 1 0-.183-.177-.143-.435-.083-.164.038-.36.083-.565.083zm-1-24h1c.205 0 .401-.03.565-.055.258-.04.435-.067.435.055 0-.8-.316-1-1-1h-1c-.684 0-1 .2-1 1 0-.115.104-.098.321-.063.162.027.387.063.679.063zm1 5h-1c-.292 0-.517-.036-.679-.063-.217-.035-.321-.052-.321.063 0-.8.316-1 1-1h1c.684 0 1 .2 1 1 0-.122-.177-.095-.435-.055-.164.025-.36.055-.565.055zm-1 5h1c.205 0 .401-.03.565-.055.258-.04.435-.067.435.055 0-.8-.316-1-1-1h-1c-.684 0-1 .2-1 1 0-.115.104-.098.321-.063.162.027.387.063.679.063zm-17 5H9c-.318 0-.55-.038-.709-.064C8.086 24.902 8 24.887 8 25c0-.8.271-1 1-1h6c.729 0 1 .2 1 1 0-.113-.086-.098-.291-.064-.16.026-.39.064-.709.064zm-6 4h15c.311 0 .54-.056.7-.096.21-.051.3-.074.3.096 0-.8-.283-1-1-1H9c-.717 0-1 .2-1 1 0-.113.09-.098.3-.064.16.026.389.064.7.064zm15 5H9c-.311 0-.54-.038-.7-.064-.21-.034-.3-.05-.3.064 0-.8.283-1 1-1h15c.717 0 1 .2 1 1 0-.17-.09-.147-.3-.096-.16.04-.389.096-.7.096zM9 10h6c.318 0 .55-.038.709-.065.205-.033.291-.048.291.065 0-.8-.271-1-1-1H9c-.729 0-1 .2-1 1 0-.113.086-.098.291-.065.16.027.39.065.709.065zm15 5H9c-.311 0-.54-.038-.7-.064-.21-.034-.3-.05-.3.064 0-.8.283-1 1-1h15c.717 0 1 .2 1 1 0-.113-.09-.098-.3-.064-.16.026-.389.064-.7.064zM9 20h15c.311 0 .54-.038.7-.064.21-.034.3-.05.3.064 0-.8-.283-1-1-1H9c-.717 0-1 .2-1 1 0-.113.09-.098.3-.064.16.026.389.064.7.064z" fill="#DB3340"/></svg>