<svg width="322" height="265" fill="none" xmlns="http://www.w3.org/2000/svg"><g clip-path="url(#clip0)"><g filter="url(#filter0_dd)"><rect width="322" height="265" rx="20" fill="url(#paint0_linear)"/><rect x=".5" y=".5" width="321" height="264" rx="19.5" stroke="#F6D5D5"/></g><path fill="#EEE" d="M2 61h318v49H2zm0 95h318v49H2z"/><path d="M40.08 37.88h-2.976v2.912h-1.008V37.88H33.12v-.944h2.976v-2.928h1.008v2.928h2.976v.944zm9.703-6.08v.816L45.095 43h-1.248l4.608-10.176h-5.76v2.096h-1.136V31.8h8.224zm8.393 14.304c-.597-.981-1.056-2.107-1.376-3.376-.32-1.28-.48-2.65-.48-4.112 0-1.461.16-2.832.48-4.112.32-1.29.779-2.416 1.376-3.376h1.088a12.792 12.792 0 00-1.392 3.472c-.288 1.237-.432 2.576-.432 4.016s.144 2.779.432 4.016a12.792 12.792 0 001.392 3.472h-1.088zm6.066-14.4c1.483 0 2.618.49 3.408 1.472.79.97 1.184 2.347 1.184 4.128 0 1.248-.213 2.304-.64 3.168-.427.864-1.024 1.52-1.792 1.968-.768.437-1.664.656-2.688.656-1.11 0-1.995-.203-2.656-.608l.464-.928c.533.352 1.259.528 2.176.528 1.237 0 2.208-.39 2.912-1.168.704-.79 1.056-1.93 1.056-3.424 0-.277-.016-.581-.048-.912a3.062 3.062 0 01-1.328 1.424c-.608.33-1.307.496-2.096.496-.736 0-1.392-.139-1.968-.416a3.218 3.218 0 01-1.328-1.168c-.32-.512-.48-1.104-.48-1.776 0-.683.165-1.285.496-1.808a3.23 3.23 0 011.36-1.2c.587-.288 1.242-.432 1.968-.432zm.128 5.824c.565 0 1.061-.107 1.488-.32a2.51 2.51 0 001.024-.88c.245-.373.368-.79.368-1.248 0-.427-.118-.821-.352-1.184-.224-.363-.56-.656-1.008-.88-.448-.224-.981-.336-1.6-.336-.81 0-1.472.224-1.984.672-.502.437-.752 1.024-.752 1.76s.25 1.323.752 1.76c.512.437 1.2.656 2.064.656zm9.207-5.728V43h-1.152V32.824h-2.64V31.8h3.792zm7.317 4.496c.736 0 1.386.139 1.952.416a3.16 3.16 0 011.344 1.184c.32.501.48 1.088.48 1.76 0 .683-.166 1.285-.496 1.808-.33.523-.79.928-1.376 1.216-.576.277-1.227.416-1.952.416-1.483 0-2.619-.485-3.408-1.456-.79-.981-1.184-2.363-1.184-4.144 0-1.248.213-2.304.64-3.168.426-.864 1.024-1.515 1.792-1.952.768-.448 1.664-.672 2.688-.672 1.11 0 1.995.203 2.656.608l-.464.928c-.534-.352-1.259-.528-2.176-.528-1.237 0-2.208.395-2.912 1.184-.704.779-1.056 1.915-1.056 3.408 0 .267.016.57.048.912a2.979 2.979 0 011.328-1.408c.608-.341 1.306-.512 2.096-.512zm-.096 5.824c.81 0 1.466-.219 1.968-.656.512-.448.768-1.04.768-1.776s-.256-1.323-.768-1.76c-.502-.437-1.184-.656-2.048-.656-.566 0-1.067.107-1.504.32a2.533 2.533 0 00-1.008.88 2.22 2.22 0 00-.368 1.248c0 .427.112.821.336 1.184.234.363.576.656 1.024.88.448.224.981.336 1.6.336zm5.014 3.984a12.833 12.833 0 001.392-3.456c.299-1.237.448-2.581.448-4.032 0-1.45-.15-2.79-.448-4.016a12.798 12.798 0 00-1.392-3.472H86.9c.597.96 1.056 2.085 1.376 3.376.33 1.28.496 2.65.496 4.112 0 1.461-.16 2.832-.48 4.112-.32 1.28-.784 2.405-1.392 3.376h-1.088zM98.56 31.8V43h-1.152V32.824h-2.64V31.8h3.792zm10.325 10.176V43h-7.856v-.816l4.656-4.56c.587-.576.982-1.072 1.184-1.488.214-.427.32-.853.32-1.28 0-.661-.229-1.173-.688-1.536-.448-.373-1.093-.56-1.936-.56-1.312 0-2.33.416-3.056 1.248l-.816-.704a4.313 4.313 0 011.664-1.184c.683-.277 1.451-.416 2.304-.416 1.142 0 2.043.272 2.704.816.672.533 1.008 1.27 1.008 2.208 0 .576-.128 1.13-.384 1.664-.256.533-.741 1.147-1.456 1.84l-3.808 3.744h6.16zm5.254-5.376c1.173.064 2.064.384 2.672.96.619.565.928 1.307.928 2.224 0 .64-.155 1.21-.464 1.712-.309.49-.768.88-1.376 1.168-.608.288-1.349.432-2.224.432a6.869 6.869 0 01-2.304-.384c-.715-.267-1.291-.619-1.728-1.056l.56-.912c.373.384.869.699 1.488.944.619.235 1.28.352 1.984.352.917 0 1.627-.197 2.128-.592.501-.405.752-.96.752-1.664 0-.693-.251-1.237-.752-1.632-.501-.395-1.259-.592-2.272-.592h-.8v-.848l3.104-3.888h-5.728V31.8h7.2v.816L114.14 36.6zm5.351 1.568h4.192v.992h-4.192v-.992zm15.627 1.888h-2.24V43h-1.152v-2.944h-6.32v-.832l5.936-7.424h1.28l-5.728 7.232h4.864V36.44h1.12v2.592h2.24v1.024zm3.939-3.664c1.622 0 2.8.293 3.536.88.747.576 1.12 1.387 1.12 2.432 0 .65-.154 1.232-.464 1.744-.298.512-.752.917-1.36 1.216-.608.288-1.354.432-2.24.432-.8 0-1.562-.128-2.288-.384-.714-.267-1.29-.619-1.728-1.056l.56-.912c.374.384.864.699 1.472.944a5.418 5.418 0 001.968.352c.928 0 1.643-.208 2.144-.624.512-.416.768-.97.768-1.664 0-.768-.288-1.35-.864-1.744-.565-.395-1.525-.592-2.88-.592h-2.384l.576-5.616h6.128v1.024H138l-.384 3.568h1.44zm6.247 1.776h4.192v.992h-4.192v-.992zm9.469-6.464c1.483 0 2.619.49 3.408 1.472.789.97 1.184 2.347 1.184 4.128 0 1.248-.213 2.304-.64 3.168-.427.864-1.024 1.52-1.792 1.968-.768.437-1.664.656-2.688.656-1.109 0-1.995-.203-2.656-.608l.464-.928c.533.352 1.259.528 2.176.528 1.237 0 2.208-.39 2.912-1.168.704-.79 1.056-1.93 1.056-3.424 0-.277-.016-.581-.048-.912a3.06 3.06 0 01-1.328 1.424c-.608.33-1.307.496-2.096.496-.736 0-1.392-.139-1.968-.416a3.22 3.22 0 01-1.328-1.168c-.32-.512-.48-1.104-.48-1.776 0-.683.165-1.285.496-1.808a3.233 3.233 0 011.36-1.2c.587-.288 1.243-.432 1.968-.432zm.128 5.824c.565 0 1.061-.107 1.488-.32a2.51 2.51 0 001.024-.88c.245-.373.368-.79.368-1.248 0-.427-.117-.821-.352-1.184-.224-.363-.56-.656-1.008-.88-.448-.224-.981-.336-1.6-.336-.811 0-1.472.224-1.984.672-.501.437-.752 1.024-.752 1.76s.251 1.323.752 1.76c.512.437 1.2.656 2.064.656zm13.913-5.728v.816L164.126 43h-1.248l4.608-10.176h-5.76v2.096h-1.136V31.8h8.224zM40.08 85.88h-2.976v2.912h-1.008V85.88H33.12v-.944h2.976v-2.928h1.008v2.928h2.976v.944zm9.703-6.08v.816L45.095 91h-1.248l4.608-10.176h-5.76v2.096h-1.136V79.8h8.224zm8.393 14.304c-.597-.981-1.056-2.107-1.376-3.376-.32-1.28-.48-2.65-.48-4.112 0-1.461.16-2.832.48-4.112.32-1.29.779-2.416 1.376-3.376h1.088a12.792 12.792 0 00-1.392 3.472c-.288 1.237-.432 2.576-.432 4.016s.144 2.779.432 4.016a12.792 12.792 0 001.392 3.472h-1.088zm6.066-14.4c1.483 0 2.618.49 3.408 1.472.79.97 1.184 2.347 1.184 4.128 0 1.248-.213 2.304-.64 3.168-.427.864-1.024 1.52-1.792 1.968-.768.437-1.664.656-2.688.656-1.11 0-1.995-.203-2.656-.608l.464-.928c.533.352 1.259.528 2.176.528 1.237 0 2.208-.39 2.912-1.168.704-.79 1.056-1.93 1.056-3.424 0-.277-.016-.581-.048-.912a3.062 3.062 0 01-1.328 1.424c-.608.33-1.307.496-2.096.496-.736 0-1.392-.139-1.968-.416a3.218 3.218 0 01-1.328-1.168c-.32-.512-.48-1.104-.48-1.776 0-.683.165-1.285.496-1.808a3.23 3.23 0 011.36-1.2c.587-.288 1.242-.432 1.968-.432zm.128 5.824c.565 0 1.061-.107 1.488-.32a2.51 2.51 0 001.024-.88c.245-.373.368-.79.368-1.248 0-.427-.118-.821-.352-1.184-.224-.363-.56-.656-1.008-.88-.448-.224-.981-.336-1.6-.336-.81 0-1.472.224-1.984.672-.502.437-.752 1.024-.752 1.76s.25 1.323.752 1.76c.512.437 1.2.656 2.064.656zm9.207-5.728V91h-1.152V80.824h-2.64V79.8h3.792zm7.317 4.496c.736 0 1.386.139 1.952.416a3.16 3.16 0 011.344 1.184c.32.501.48 1.088.48 1.76 0 .683-.166 1.285-.496 1.808-.33.523-.79.928-1.376 1.216-.576.277-1.227.416-1.952.416-1.483 0-2.619-.485-3.408-1.456-.79-.981-1.184-2.363-1.184-4.144 0-1.248.213-2.304.64-3.168.426-.864 1.024-1.515 1.792-1.952.768-.448 1.664-.672 2.688-.672 1.11 0 1.995.203 2.656.608l-.464.928c-.534-.352-1.259-.528-2.176-.528-1.237 0-2.208.395-2.912 1.184-.704.779-1.056 1.915-1.056 3.408 0 .267.016.57.048.912a2.979 2.979 0 011.328-1.408c.608-.341 1.306-.512 2.096-.512zm-.096 5.824c.81 0 1.466-.219 1.968-.656.512-.448.768-1.04.768-1.776s-.256-1.323-.768-1.76c-.502-.437-1.184-.656-2.048-.656-.566 0-1.067.107-1.504.32a2.533 2.533 0 00-1.008.88 2.22 2.22 0 00-.368 1.248c0 .427.112.821.336 1.184.234.363.576.656 1.024.88.448.224.981.336 1.6.336zm5.014 3.984a12.833 12.833 0 001.392-3.456c.299-1.237.448-2.581.448-4.032 0-1.45-.15-2.79-.448-4.016a12.798 12.798 0 00-1.392-3.472H86.9c.597.96 1.056 2.085 1.376 3.376.33 1.28.496 2.65.496 4.112 0 1.461-.16 2.832-.48 4.112-.32 1.28-.784 2.405-1.392 3.376h-1.088zM98.56 79.8V91h-1.152V80.824h-2.64V79.8h3.792zm10.325 10.176V91h-7.856v-.816l4.656-4.56c.587-.576.982-1.072 1.184-1.488.214-.427.32-.853.32-1.28 0-.661-.229-1.173-.688-1.536-.448-.373-1.093-.56-1.936-.56-1.312 0-2.33.416-3.056 1.248l-.816-.704a4.313 4.313 0 011.664-1.184c.683-.277 1.451-.416 2.304-.416 1.142 0 2.043.272 2.704.816.672.533 1.008 1.27 1.008 2.208 0 .576-.128 1.13-.384 1.664-.256.533-.741 1.147-1.456 1.84l-3.808 3.744h6.16zm5.254-5.376c1.173.064 2.064.384 2.672.96.619.565.928 1.307.928 2.224 0 .64-.155 1.21-.464 1.712-.309.49-.768.88-1.376 1.168-.608.288-1.349.432-2.224.432a6.869 6.869 0 01-2.304-.384c-.715-.267-1.291-.619-1.728-1.056l.56-.912c.373.384.869.699 1.488.944.619.235 1.28.352 1.984.352.917 0 1.627-.197 2.128-.592.501-.405.752-.96.752-1.664 0-.693-.251-1.237-.752-1.632-.501-.395-1.259-.592-2.272-.592h-.8v-.848l3.104-3.888h-5.728V79.8h7.2v.816L114.14 84.6zm5.351 1.568h4.192v.992h-4.192v-.992zm15.627 1.888h-2.24V91h-1.152v-2.944h-6.32v-.832l5.936-7.424h1.28l-5.728 7.232h4.864V84.44h1.12v2.592h2.24v1.024zm3.939-3.664c1.622 0 2.8.293 3.536.88.747.576 1.12 1.387 1.12 2.432 0 .65-.154 1.232-.464 1.744-.298.512-.752.917-1.36 1.216-.608.288-1.354.432-2.24.432-.8 0-1.562-.128-2.288-.384-.714-.267-1.29-.619-1.728-1.056l.56-.912c.374.384.864.699 1.472.944a5.418 5.418 0 001.968.352c.928 0 1.643-.208 2.144-.624.512-.416.768-.97.768-1.664 0-.768-.288-1.35-.864-1.744-.565-.395-1.525-.592-2.88-.592h-2.384l.576-5.616h6.128v1.024H138l-.384 3.568h1.44zm6.247 1.776h4.192v.992h-4.192v-.992zm13.729-6.368v.816L154.345 91h-1.248l4.608-10.176h-5.76v2.096h-1.136V79.8h8.224zm9.422 0v.816L163.767 91h-1.248l4.608-10.176h-5.76v2.096h-1.136V79.8h8.224zM40.08 133.88h-2.976v2.912h-1.008v-2.912H33.12v-.944h2.976v-2.928h1.008v2.928h2.976v.944zm9.703-6.08v.816L45.095 139h-1.248l4.608-10.176h-5.76v2.096h-1.136v-3.12h8.224zm8.393 14.304c-.597-.981-1.056-2.107-1.376-3.376-.32-1.28-.48-2.651-.48-4.112 0-1.461.16-2.832.48-4.112.32-1.291.779-2.416 1.376-3.376h1.088a12.792 12.792 0 00-1.392 3.472c-.288 1.237-.432 2.576-.432 4.016s.144 2.779.432 4.016a12.792 12.792 0 001.392 3.472h-1.088zm6.066-14.4c1.483 0 2.618.491 3.408 1.472.79.971 1.184 2.347 1.184 4.128 0 1.248-.213 2.304-.64 3.168-.427.864-1.024 1.52-1.792 1.968-.768.437-1.664.656-2.688.656-1.11 0-1.995-.203-2.656-.608l.464-.928c.533.352 1.259.528 2.176.528 1.237 0 2.208-.389 2.912-1.168.704-.789 1.056-1.931 1.056-3.424 0-.277-.016-.581-.048-.912a3.06 3.06 0 01-1.328 1.424c-.608.331-1.307.496-2.096.496-.736 0-1.392-.139-1.968-.416a3.218 3.218 0 01-1.328-1.168c-.32-.512-.48-1.104-.48-1.776 0-.683.165-1.285.496-1.808.33-.523.784-.923 1.36-1.2.587-.288 1.242-.432 1.968-.432zm.128 5.824c.565 0 1.061-.107 1.488-.32a2.51 2.51 0 001.024-.88c.245-.373.368-.789.368-1.248 0-.427-.118-.821-.352-1.184-.224-.363-.56-.656-1.008-.88-.448-.224-.981-.336-1.6-.336-.81 0-1.472.224-1.984.672-.502.437-.752 1.024-.752 1.76s.25 1.323.752 1.76c.512.437 1.2.656 2.064.656zm9.207-5.728V139h-1.152v-10.176h-2.64V127.8h3.792zm7.317 4.496c.736 0 1.386.139 1.952.416a3.159 3.159 0 011.344 1.184c.32.501.48 1.088.48 1.76 0 .683-.166 1.285-.496 1.808-.33.523-.79.928-1.376 1.216-.576.277-1.227.416-1.952.416-1.483 0-2.619-.485-3.408-1.456-.79-.981-1.184-2.363-1.184-4.144 0-1.248.213-2.304.64-3.168.426-.864 1.024-1.515 1.792-1.952.768-.448 1.664-.672 2.688-.672 1.11 0 1.995.203 2.656.608l-.464.928c-.534-.352-1.259-.528-2.176-.528-1.237 0-2.208.395-2.912 1.184-.704.779-1.056 1.915-1.056 3.408 0 .267.016.571.048.912a2.98 2.98 0 011.328-1.408c.608-.341 1.306-.512 2.096-.512zm-.096 5.824c.81 0 1.466-.219 1.968-.656.512-.448.768-1.04.768-1.776s-.256-1.323-.768-1.76c-.502-.437-1.184-.656-2.048-.656-.566 0-1.067.107-1.504.32a2.533 2.533 0 00-1.008.88 2.221 2.221 0 00-.368 1.248c0 .427.112.821.336 1.184.234.363.576.656 1.024.88.448.224.981.336 1.6.336zm5.014 3.984a12.825 12.825 0 001.392-3.456c.299-1.237.448-2.581.448-4.032s-.15-2.789-.448-4.016a12.798 12.798 0 00-1.392-3.472H86.9c.597.96 1.056 2.085 1.376 3.376.33 1.28.496 2.651.496 4.112 0 1.461-.16 2.832-.48 4.112-.32 1.28-.784 2.405-1.392 3.376h-1.088zM98.56 127.8V139h-1.152v-10.176h-2.64V127.8h3.792zm10.325 10.176V139h-7.856v-.816l4.656-4.56c.587-.576.982-1.072 1.184-1.488.214-.427.32-.853.32-1.28 0-.661-.229-1.173-.688-1.536-.448-.373-1.093-.56-1.936-.56-1.312 0-2.33.416-3.056 1.248l-.816-.704a4.31 4.31 0 011.664-1.184c.683-.277 1.451-.416 2.304-.416 1.142 0 2.043.272 2.704.816.672.533 1.008 1.269 1.008 2.208a3.8 3.8 0 01-.384 1.664c-.256.533-.741 1.147-1.456 1.84l-3.808 3.744h6.16zm5.254-5.376c1.173.064 2.064.384 2.672.96.619.565.928 1.307.928 2.224 0 .64-.155 1.211-.464 1.712-.309.491-.768.88-1.376 1.168-.608.288-1.349.432-2.224.432a6.869 6.869 0 01-2.304-.384c-.715-.267-1.291-.619-1.728-1.056l.56-.912c.373.384.869.699 1.488.944.619.235 1.28.352 1.984.352.917 0 1.627-.197 2.128-.592.501-.405.752-.96.752-1.664 0-.693-.251-1.237-.752-1.632-.501-.395-1.259-.592-2.272-.592h-.8v-.848l3.104-3.888h-5.728V127.8h7.2v.816l-3.168 3.984zm5.351 1.568h4.192v.992h-4.192v-.992zm15.627 1.888h-2.24V139h-1.152v-2.944h-6.32v-.832l5.936-7.424h1.28l-5.728 7.232h4.864v-2.592h1.12v2.592h2.24v1.024zm3.939-3.664c1.622 0 2.8.293 3.536.88.747.576 1.12 1.387 1.12 2.432 0 .651-.154 1.232-.464 1.744-.298.512-.752.917-1.36 1.216-.608.288-1.354.432-2.24.432-.8 0-1.562-.128-2.288-.384-.714-.267-1.29-.619-1.728-1.056l.56-.912c.374.384.864.699 1.472.944a5.412 5.412 0 001.968.352c.928 0 1.643-.208 2.144-.624.512-.416.768-.971.768-1.664 0-.768-.288-1.349-.864-1.744-.565-.395-1.525-.592-2.88-.592h-2.384l.576-5.616h6.128v1.024H138l-.384 3.568h1.44zm6.247 1.776h4.192v.992h-4.192v-.992zm10.746-1.872c.736 0 1.387.139 1.952.416a3.159 3.159 0 011.344 1.184c.32.501.48 1.088.48 1.76 0 .683-.165 1.285-.496 1.808a3.316 3.316 0 01-1.376 1.216c-.576.277-1.227.416-1.952.416-1.483 0-2.619-.485-3.408-1.456-.789-.981-1.184-2.363-1.184-4.144 0-1.248.213-2.304.64-3.168.427-.864 1.024-1.515 1.792-1.952.768-.448 1.664-.672 2.688-.672 1.109 0 1.995.203 2.656.608l-.464.928c-.533-.352-1.259-.528-2.176-.528-1.237 0-2.208.395-2.912 1.184-.704.779-1.056 1.915-1.056 3.408 0 .267.016.571.048.912a2.979 2.979 0 011.328-1.408c.608-.341 1.307-.512 2.096-.512zm-.096 5.824c.811 0 1.467-.219 1.968-.656.512-.448.768-1.04.768-1.776s-.256-1.323-.768-1.76c-.501-.437-1.184-.656-2.048-.656-.565 0-1.067.107-1.504.32a2.529 2.529 0 00-1.008.88 2.225 2.225 0 00-.368 1.248c0 .427.112.821.336 1.184.235.363.576.656 1.024.88.448.224.981.336 1.6.336zm12.985-10.32v.816L164.251 139h-1.248l4.608-10.176h-5.76v2.096h-1.136v-3.12h8.224zM40.08 181.88h-2.976v2.912h-1.008v-2.912H33.12v-.944h2.976v-2.928h1.008v2.928h2.976v.944zm9.703-6.08v.816L45.095 187h-1.248l4.608-10.176h-5.76v2.096h-1.136v-3.12h8.224zm8.393 14.304c-.597-.981-1.056-2.107-1.376-3.376-.32-1.28-.48-2.651-.48-4.112 0-1.461.16-2.832.48-4.112.32-1.291.779-2.416 1.376-3.376h1.088a12.792 12.792 0 00-1.392 3.472c-.288 1.237-.432 2.576-.432 4.016s.144 2.779.432 4.016a12.792 12.792 0 001.392 3.472h-1.088zm6.066-14.4c1.483 0 2.618.491 3.408 1.472.79.971 1.184 2.347 1.184 4.128 0 1.248-.213 2.304-.64 3.168-.427.864-1.024 1.52-1.792 1.968-.768.437-1.664.656-2.688.656-1.11 0-1.995-.203-2.656-.608l.464-.928c.533.352 1.259.528 2.176.528 1.237 0 2.208-.389 2.912-1.168.704-.789 1.056-1.931 1.056-3.424 0-.277-.016-.581-.048-.912a3.06 3.06 0 01-1.328 1.424c-.608.331-1.307.496-2.096.496-.736 0-1.392-.139-1.968-.416a3.218 3.218 0 01-1.328-1.168c-.32-.512-.48-1.104-.48-1.776 0-.683.165-1.285.496-1.808.33-.523.784-.923 1.36-1.2.587-.288 1.242-.432 1.968-.432zm.128 5.824c.565 0 1.061-.107 1.488-.32a2.51 2.51 0 001.024-.88c.245-.373.368-.789.368-1.248 0-.427-.118-.821-.352-1.184-.224-.363-.56-.656-1.008-.88-.448-.224-.981-.336-1.6-.336-.81 0-1.472.224-1.984.672-.502.437-.752 1.024-.752 1.76s.25 1.323.752 1.76c.512.437 1.2.656 2.064.656zm9.207-5.728V187h-1.152v-10.176h-2.64V175.8h3.792zm7.317 4.496c.736 0 1.386.139 1.952.416a3.159 3.159 0 011.344 1.184c.32.501.48 1.088.48 1.76 0 .683-.166 1.285-.496 1.808-.33.523-.79.928-1.376 1.216-.576.277-1.227.416-1.952.416-1.483 0-2.619-.485-3.408-1.456-.79-.981-1.184-2.363-1.184-4.144 0-1.248.213-2.304.64-3.168.426-.864 1.024-1.515 1.792-1.952.768-.448 1.664-.672 2.688-.672 1.11 0 1.995.203 2.656.608l-.464.928c-.534-.352-1.259-.528-2.176-.528-1.237 0-2.208.395-2.912 1.184-.704.779-1.056 1.915-1.056 3.408 0 .267.016.571.048.912a2.98 2.98 0 011.328-1.408c.608-.341 1.306-.512 2.096-.512zm-.096 5.824c.81 0 1.466-.219 1.968-.656.512-.448.768-1.04.768-1.776s-.256-1.323-.768-1.76c-.502-.437-1.184-.656-2.048-.656-.566 0-1.067.107-1.504.32a2.533 2.533 0 00-1.008.88 2.221 2.221 0 00-.368 1.248c0 .427.112.821.336 1.184.234.363.576.656 1.024.88.448.224.981.336 1.6.336zm5.014 3.984a12.825 12.825 0 001.392-3.456c.299-1.237.448-2.581.448-4.032s-.15-2.789-.448-4.016a12.798 12.798 0 00-1.392-3.472H86.9c.597.96 1.056 2.085 1.376 3.376.33 1.28.496 2.651.496 4.112 0 1.461-.16 2.832-.48 4.112-.32 1.28-.784 2.405-1.392 3.376h-1.088zM98.56 175.8V187h-1.152v-10.176h-2.64V175.8h3.792zm10.325 10.176V187h-7.856v-.816l4.656-4.56c.587-.576.982-1.072 1.184-1.488.214-.427.32-.853.32-1.28 0-.661-.229-1.173-.688-1.536-.448-.373-1.093-.56-1.936-.56-1.312 0-2.33.416-3.056 1.248l-.816-.704a4.31 4.31 0 011.664-1.184c.683-.277 1.451-.416 2.304-.416 1.142 0 2.043.272 2.704.816.672.533 1.008 1.269 1.008 2.208a3.8 3.8 0 01-.384 1.664c-.256.533-.741 1.147-1.456 1.84l-3.808 3.744h6.16zm5.254-5.376c1.173.064 2.064.384 2.672.96.619.565.928 1.307.928 2.224 0 .64-.155 1.211-.464 1.712-.309.491-.768.88-1.376 1.168-.608.288-1.349.432-2.224.432a6.869 6.869 0 01-2.304-.384c-.715-.267-1.291-.619-1.728-1.056l.56-.912c.373.384.869.699 1.488.944.619.235 1.28.352 1.984.352.917 0 1.627-.197 2.128-.592.501-.405.752-.96.752-1.664 0-.693-.251-1.237-.752-1.632-.501-.395-1.259-.592-2.272-.592h-.8v-.848l3.104-3.888h-5.728V175.8h7.2v.816l-3.168 3.984zm5.351 1.568h4.192v.992h-4.192v-.992zm15.627 1.888h-2.24V187h-1.152v-2.944h-6.32v-.832l5.936-7.424h1.28l-5.728 7.232h4.864v-2.592h1.12v2.592h2.24v1.024zm3.939-3.664c1.622 0 2.8.293 3.536.88.747.576 1.12 1.387 1.12 2.432 0 .651-.154 1.232-.464 1.744-.298.512-.752.917-1.36 1.216-.608.288-1.354.432-2.24.432-.8 0-1.562-.128-2.288-.384-.714-.267-1.29-.619-1.728-1.056l.56-.912c.374.384.864.699 1.472.944a5.412 5.412 0 001.968.352c.928 0 1.643-.208 2.144-.624.512-.416.768-.971.768-1.664 0-.768-.288-1.349-.864-1.744-.565-.395-1.525-.592-2.88-.592h-2.384l.576-5.616h6.128v1.024H138l-.384 3.568h1.44zm6.247 1.776h4.192v.992h-4.192v-.992zm10.746-1.872c.736 0 1.387.139 1.952.416a3.159 3.159 0 011.344 1.184c.32.501.48 1.088.48 1.76 0 .683-.165 1.285-.496 1.808a3.316 3.316 0 01-1.376 1.216c-.576.277-1.227.416-1.952.416-1.483 0-2.619-.485-3.408-1.456-.789-.981-1.184-2.363-1.184-4.144 0-1.248.213-2.304.64-3.168.427-.864 1.024-1.515 1.792-1.952.768-.448 1.664-.672 2.688-.672 1.109 0 1.995.203 2.656.608l-.464.928c-.533-.352-1.259-.528-2.176-.528-1.237 0-2.208.395-2.912 1.184-.704.779-1.056 1.915-1.056 3.408 0 .267.016.571.048.912a2.979 2.979 0 011.328-1.408c.608-.341 1.307-.512 2.096-.512zm-.096 5.824c.811 0 1.467-.219 1.968-.656.512-.448.768-1.04.768-1.776s-.256-1.323-.768-1.76c-.501-.437-1.184-.656-2.048-.656-.565 0-1.067.107-1.504.32a2.529 2.529 0 00-1.008.88 2.225 2.225 0 00-.368 1.248c0 .427.112.821.336 1.184.235.363.576.656 1.024.88.448.224.981.336 1.6.336zm11.622-4.992c.704.235 1.243.587 1.616 1.056.384.469.576 1.035.576 1.696 0 .651-.176 1.221-.528 1.712-.352.48-.859.853-1.52 1.12-.651.256-1.419.384-2.304.384-1.344 0-2.4-.288-3.168-.864-.768-.576-1.152-1.36-1.152-2.352 0-.672.181-1.237.544-1.696.373-.469.912-.821 1.616-1.056-.576-.224-1.013-.544-1.312-.96-.299-.427-.448-.928-.448-1.504 0-.907.352-1.627 1.056-2.16.715-.533 1.669-.8 2.864-.8.789 0 1.477.123 2.064.368.597.235 1.061.576 1.392 1.024.331.448.496.971.496 1.568 0 .576-.155 1.077-.464 1.504-.309.416-.752.736-1.328.96zm-4.928-2.432c0 .619.245 1.109.736 1.472s1.168.544 2.032.544c.864 0 1.541-.181 2.032-.544.501-.363.752-.848.752-1.456 0-.629-.256-1.125-.768-1.488-.501-.363-1.173-.544-2.016-.544-.853 0-1.531.181-2.032.544-.491.363-.736.853-.736 1.472zm2.768 7.424c.992 0 1.765-.203 2.32-.608.565-.405.848-.955.848-1.648s-.283-1.237-.848-1.632c-.555-.405-1.328-.608-2.32-.608-.981 0-1.755.203-2.32.608-.555.395-.832.939-.832 1.632 0 .704.277 1.259.832 1.664.555.395 1.328.592 2.32.592zM40.08 229.88h-2.976v2.912h-1.008v-2.912H33.12v-.944h2.976v-2.928h1.008v2.928h2.976v.944zm9.703-6.08v.816L45.095 235h-1.248l4.608-10.176h-5.76v2.096h-1.136v-3.12h8.224zm8.393 14.304c-.597-.981-1.056-2.107-1.376-3.376-.32-1.28-.48-2.651-.48-4.112 0-1.461.16-2.832.48-4.112.32-1.291.779-2.416 1.376-3.376h1.088a12.792 12.792 0 00-1.392 3.472c-.288 1.237-.432 2.576-.432 4.016s.144 2.779.432 4.016a12.792 12.792 0 001.392 3.472h-1.088zm6.066-14.4c1.483 0 2.618.491 3.408 1.472.79.971 1.184 2.347 1.184 4.128 0 1.248-.213 2.304-.64 3.168-.427.864-1.024 1.52-1.792 1.968-.768.437-1.664.656-2.688.656-1.11 0-1.995-.203-2.656-.608l.464-.928c.533.352 1.259.528 2.176.528 1.237 0 2.208-.389 2.912-1.168.704-.789 1.056-1.931 1.056-3.424 0-.277-.016-.581-.048-.912a3.06 3.06 0 01-1.328 1.424c-.608.331-1.307.496-2.096.496-.736 0-1.392-.139-1.968-.416a3.218 3.218 0 01-1.328-1.168c-.32-.512-.48-1.104-.48-1.776 0-.683.165-1.285.496-1.808.33-.523.784-.923 1.36-1.2.587-.288 1.242-.432 1.968-.432zm.128 5.824c.565 0 1.061-.107 1.488-.32a2.51 2.51 0 001.024-.88c.245-.373.368-.789.368-1.248 0-.427-.118-.821-.352-1.184-.224-.363-.56-.656-1.008-.88-.448-.224-.981-.336-1.6-.336-.81 0-1.472.224-1.984.672-.502.437-.752 1.024-.752 1.76s.25 1.323.752 1.76c.512.437 1.2.656 2.064.656zm9.207-5.728V235h-1.152v-10.176h-2.64V223.8h3.792zm7.317 4.496c.736 0 1.386.139 1.952.416a3.159 3.159 0 011.344 1.184c.32.501.48 1.088.48 1.76 0 .683-.166 1.285-.496 1.808-.33.523-.79.928-1.376 1.216-.576.277-1.227.416-1.952.416-1.483 0-2.619-.485-3.408-1.456-.79-.981-1.184-2.363-1.184-4.144 0-1.248.213-2.304.64-3.168.426-.864 1.024-1.515 1.792-1.952.768-.448 1.664-.672 2.688-.672 1.11 0 1.995.203 2.656.608l-.464.928c-.534-.352-1.259-.528-2.176-.528-1.237 0-2.208.395-2.912 1.184-.704.779-1.056 1.915-1.056 3.408 0 .267.016.571.048.912a2.98 2.98 0 011.328-1.408c.608-.341 1.306-.512 2.096-.512zm-.096 5.824c.81 0 1.466-.219 1.968-.656.512-.448.768-1.04.768-1.776s-.256-1.323-.768-1.76c-.502-.437-1.184-.656-2.048-.656-.566 0-1.067.107-1.504.32a2.533 2.533 0 00-1.008.88 2.221 2.221 0 00-.368 1.248c0 .427.112.821.336 1.184.234.363.576.656 1.024.88.448.224.981.336 1.6.336zm5.014 3.984a12.825 12.825 0 001.392-3.456c.299-1.237.448-2.581.448-4.032s-.15-2.789-.448-4.016a12.798 12.798 0 00-1.392-3.472H86.9c.597.96 1.056 2.085 1.376 3.376.33 1.28.496 2.651.496 4.112 0 1.461-.16 2.832-.48 4.112-.32 1.28-.784 2.405-1.392 3.376h-1.088zM98.56 223.8V235h-1.152v-10.176h-2.64V223.8h3.792zm10.325 10.176V235h-7.856v-.816l4.656-4.56c.587-.576.982-1.072 1.184-1.488.214-.427.32-.853.32-1.28 0-.661-.229-1.173-.688-1.536-.448-.373-1.093-.56-1.936-.56-1.312 0-2.33.416-3.056 1.248l-.816-.704a4.31 4.31 0 011.664-1.184c.683-.277 1.451-.416 2.304-.416 1.142 0 2.043.272 2.704.816.672.533 1.008 1.269 1.008 2.208a3.8 3.8 0 01-.384 1.664c-.256.533-.741 1.147-1.456 1.84l-3.808 3.744h6.16zm5.254-5.376c1.173.064 2.064.384 2.672.96.619.565.928 1.307.928 2.224 0 .64-.155 1.211-.464 1.712-.309.491-.768.88-1.376 1.168-.608.288-1.349.432-2.224.432a6.869 6.869 0 01-2.304-.384c-.715-.267-1.291-.619-1.728-1.056l.56-.912c.373.384.869.699 1.488.944.619.235 1.28.352 1.984.352.917 0 1.627-.197 2.128-.592.501-.405.752-.96.752-1.664 0-.693-.251-1.237-.752-1.632-.501-.395-1.259-.592-2.272-.592h-.8v-.848l3.104-3.888h-5.728V223.8h7.2v.816l-3.168 3.984zm5.351 1.568h4.192v.992h-4.192v-.992zm15.627 1.888h-2.24V235h-1.152v-2.944h-6.32v-.832l5.936-7.424h1.28l-5.728 7.232h4.864v-2.592h1.12v2.592h2.24v1.024zm3.939-3.664c1.622 0 2.8.293 3.536.88.747.576 1.12 1.387 1.12 2.432 0 .651-.154 1.232-.464 1.744-.298.512-.752.917-1.36 1.216-.608.288-1.354.432-2.24.432-.8 0-1.562-.128-2.288-.384-.714-.267-1.29-.619-1.728-1.056l.56-.912c.374.384.864.699 1.472.944a5.412 5.412 0 001.968.352c.928 0 1.643-.208 2.144-.624.512-.416.768-.971.768-1.664 0-.768-.288-1.349-.864-1.744-.565-.395-1.525-.592-2.88-.592h-2.384l.576-5.616h6.128v1.024H138l-.384 3.568h1.44zm6.247 1.776h4.192v.992h-4.192v-.992zm10.746-1.872c.736 0 1.387.139 1.952.416a3.159 3.159 0 011.344 1.184c.32.501.48 1.088.48 1.76 0 .683-.165 1.285-.496 1.808a3.316 3.316 0 01-1.376 1.216c-.576.277-1.227.416-1.952.416-1.483 0-2.619-.485-3.408-1.456-.789-.981-1.184-2.363-1.184-4.144 0-1.248.213-2.304.64-3.168.427-.864 1.024-1.515 1.792-1.952.768-.448 1.664-.672 2.688-.672 1.109 0 1.995.203 2.656.608l-.464.928c-.533-.352-1.259-.528-2.176-.528-1.237 0-2.208.395-2.912 1.184-.704.779-1.056 1.915-1.056 3.408 0 .267.016.571.048.912a2.979 2.979 0 011.328-1.408c.608-.341 1.307-.512 2.096-.512zm-.096 5.824c.811 0 1.467-.219 1.968-.656.512-.448.768-1.04.768-1.776s-.256-1.323-.768-1.76c-.501-.437-1.184-.656-2.048-.656-.565 0-1.067.107-1.504.32a2.529 2.529 0 00-1.008.88 2.225 2.225 0 00-.368 1.248c0 .427.112.821.336 1.184.235.363.576.656 1.024.88.448.224.981.336 1.6.336zm8.694-10.416c1.483 0 2.619.491 3.408 1.472.789.971 1.184 2.347 1.184 4.128 0 1.248-.213 2.304-.64 3.168-.427.864-1.024 1.52-1.792 1.968-.768.437-1.664.656-2.688.656-1.109 0-1.995-.203-2.656-.608l.464-.928c.533.352 1.259.528 2.176.528 1.237 0 2.208-.389 2.912-1.168.704-.789 1.056-1.931 1.056-3.424 0-.277-.016-.581-.048-.912a3.059 3.059 0 01-1.328 1.424c-.608.331-1.307.496-2.096.496-.736 0-1.392-.139-1.968-.416a3.22 3.22 0 01-1.328-1.168c-.32-.512-.48-1.104-.48-1.776 0-.683.165-1.285.496-1.808a3.229 3.229 0 011.36-1.2c.587-.288 1.243-.432 1.968-.432zm.128 5.824c.565 0 1.061-.107 1.488-.32a2.51 2.51 0 001.024-.88c.245-.373.368-.789.368-1.248 0-.427-.117-.821-.352-1.184-.224-.363-.56-.656-1.008-.88-.448-.224-.981-.336-1.6-.336-.811 0-1.472.224-1.984.672-.501.437-.752 1.024-.752 1.76s.251 1.323.752 1.76c.512.437 1.2.656 2.064.656z" fill="#000"/><path d="M197.672 41.24v4.144h-1.92V43h-8.592v2.384h-1.936l.016-4.144h.48c.704-.032 1.195-.55 1.472-1.552.288-1.013.464-2.459.528-4.336l.128-3.552h8.208v9.44h1.616zm-8.128-5.696c-.053 1.45-.171 2.661-.352 3.632-.181.96-.469 1.648-.864 2.064h5.68v-7.68h-4.384l-.08 1.984zm13.514 7.568c-.864 0-1.642-.187-2.336-.56A4.16 4.16 0 01199.09 41c-.384-.672-.576-1.43-.576-2.272 0-.843.192-1.595.576-2.256a4.16 4.16 0 011.632-1.552c.694-.373 1.472-.56 2.336-.56.875 0 1.659.187 2.352.56a4.04 4.04 0 011.616 1.552c.395.661.592 1.413.592 2.256 0 .843-.197 1.6-.592 2.272a4.04 4.04 0 01-1.616 1.552c-.693.373-1.477.56-2.352.56zm0-1.712c.736 0 1.344-.245 1.824-.736.48-.49.72-1.136.72-1.936s-.24-1.445-.72-1.936c-.48-.49-1.088-.736-1.824-.736s-1.344.245-1.824.736c-.469.49-.704 1.136-.704 1.936s.235 1.445.704 1.936c.48.49 1.088.736 1.824.736zm10.424 1.712c-.885 0-1.68-.187-2.384-.56A4.131 4.131 0 01209.45 41c-.395-.672-.592-1.43-.592-2.272 0-.843.197-1.595.592-2.256a4.16 4.16 0 011.632-1.552c.704-.373 1.504-.56 2.4-.56.843 0 1.579.17 2.208.512a3.31 3.31 0 011.44 1.472l-1.536.896a2.36 2.36 0 00-.928-.88 2.42 2.42 0 00-1.2-.304c-.747 0-1.365.245-1.856.736-.491.48-.736 1.125-.736 1.936 0 .81.24 1.461.72 1.952.491.48 1.115.72 1.872.72.437 0 .837-.096 1.2-.288.373-.203.683-.501.928-.896l1.536.896a3.5 3.5 0 01-1.456 1.488c-.629.341-1.36.512-2.192.512zm12.099-6.96h-2.992V43h-2v-6.848h-3.008v-1.696h8v1.696zm9.577-1.696l-4 9.232c-.373.928-.827 1.579-1.36 1.952-.533.384-1.179.576-1.936.576a3.99 3.99 0 01-1.264-.208 2.797 2.797 0 01-1.024-.576l.8-1.472c.192.181.416.325.672.432.267.107.533.16.8.16.352 0 .64-.09.864-.272.235-.181.448-.485.64-.912l.144-.336-3.728-8.576h2.08l2.688 6.32 2.704-6.32h1.92zm9.581 0V43h-1.984v-6.848h-4.208V43h-2v-8.544h8.192zm10.699 4.32c0 .139-.011.336-.032.592h-6.704c.117.63.421 1.13.912 1.504.501.363 1.12.544 1.856.544.938 0 1.712-.31 2.32-.928l1.072 1.232c-.384.459-.87.805-1.456 1.04-.587.235-1.248.352-1.984.352-.939 0-1.766-.187-2.48-.56A4.098 4.098 0 01247.278 41c-.384-.672-.576-1.43-.576-2.272 0-.832.186-1.579.56-2.24a4.069 4.069 0 011.584-1.568c.672-.373 1.429-.56 2.272-.56.832 0 1.573.187 2.224.56.661.363 1.173.88 1.536 1.552.373.661.56 1.43.56 2.304zm-4.32-2.816c-.64 0-1.184.192-1.632.576-.438.373-.704.875-.8 1.504h4.848c-.086-.619-.347-1.12-.784-1.504-.438-.384-.982-.576-1.632-.576zm6.507-1.504h2v3.472h4.304v-3.472h2V43h-2v-3.376h-4.304V43h-2v-8.544zM197.672 89.24v4.144h-1.92V91h-8.592v2.384h-1.936l.016-4.144h.48c.704-.032 1.195-.55 1.472-1.552.288-1.013.464-2.459.528-4.336l.128-3.552h8.208v9.44h1.616zm-8.128-5.696c-.053 1.45-.171 2.661-.352 3.632-.181.96-.469 1.648-.864 2.064h5.68v-7.68h-4.384l-.08 1.984zm13.514 7.568c-.864 0-1.642-.187-2.336-.56A4.16 4.16 0 01199.09 89c-.384-.672-.576-1.43-.576-2.272 0-.843.192-1.595.576-2.256a4.16 4.16 0 011.632-1.552c.694-.373 1.472-.56 2.336-.56.875 0 1.659.187 2.352.56a4.04 4.04 0 011.616 1.552c.395.661.592 1.413.592 2.256 0 .843-.197 1.6-.592 2.272a4.04 4.04 0 01-1.616 1.552c-.693.373-1.477.56-2.352.56zm0-1.712c.736 0 1.344-.245 1.824-.736.48-.49.72-1.136.72-1.936s-.24-1.445-.72-1.936c-.48-.49-1.088-.736-1.824-.736s-1.344.245-1.824.736c-.469.49-.704 1.136-.704 1.936s.235 1.445.704 1.936c.48.49 1.088.736 1.824.736zm10.424 1.712c-.885 0-1.68-.187-2.384-.56A4.131 4.131 0 01209.45 89c-.395-.672-.592-1.43-.592-2.272 0-.843.197-1.595.592-2.256a4.16 4.16 0 011.632-1.552c.704-.373 1.504-.56 2.4-.56.843 0 1.579.17 2.208.512a3.31 3.31 0 011.44 1.472l-1.536.896a2.36 2.36 0 00-.928-.88 2.42 2.42 0 00-1.2-.304c-.747 0-1.365.245-1.856.736-.491.48-.736 1.125-.736 1.936 0 .81.24 1.461.72 1.952.491.48 1.115.72 1.872.72.437 0 .837-.096 1.2-.288.373-.203.683-.501.928-.896l1.536.896a3.5 3.5 0 01-1.456 1.488c-.629.341-1.36.512-2.192.512zm12.099-6.96h-2.992V91h-2v-6.848h-3.008v-1.696h8v1.696zm9.577-1.696l-4 9.232c-.373.928-.827 1.579-1.36 1.952-.533.384-1.179.576-1.936.576a3.99 3.99 0 01-1.264-.208 2.797 2.797 0 01-1.024-.576l.8-1.472c.192.181.416.325.672.432.267.107.533.16.8.16.352 0 .64-.09.864-.272.235-.181.448-.485.64-.912l.144-.336-3.728-8.576h2.08l2.688 6.32 2.704-6.32h1.92zm9.581 0V91h-1.984v-6.848h-4.208V91h-2v-8.544h8.192zm10.699 4.32c0 .139-.011.336-.032.592h-6.704c.117.63.421 1.13.912 1.504.501.363 1.12.544 1.856.544.938 0 1.712-.31 2.32-.928l1.072 1.232c-.384.459-.87.805-1.456 1.04-.587.235-1.248.352-1.984.352-.939 0-1.766-.187-2.48-.56A4.098 4.098 0 01247.278 89c-.384-.672-.576-1.43-.576-2.272 0-.832.186-1.579.56-2.24a4.069 4.069 0 011.584-1.568c.672-.373 1.429-.56 2.272-.56.832 0 1.573.187 2.224.56.661.363 1.173.88 1.536 1.552.373.661.56 1.43.56 2.304zm-4.32-2.816c-.64 0-1.184.192-1.632.576-.438.373-.704.875-.8 1.504h4.848c-.086-.619-.347-1.12-.784-1.504-.438-.384-.982-.576-1.632-.576zm6.507-1.504h2v3.472h4.304v-3.472h2V91h-2v-3.376h-4.304V91h-2v-8.544zm-59.953 54.784v4.144h-1.92V139h-8.592v2.384h-1.936l.016-4.144h.48c.704-.032 1.195-.549 1.472-1.552.288-1.013.464-2.459.528-4.336l.128-3.552h8.208v9.44h1.616zm-8.128-5.696c-.053 1.451-.171 2.661-.352 3.632-.181.96-.469 1.648-.864 2.064h5.68v-7.68h-4.384l-.08 1.984zm13.514 7.568c-.864 0-1.642-.187-2.336-.56A4.16 4.16 0 01199.09 137c-.384-.672-.576-1.429-.576-2.272 0-.843.192-1.595.576-2.256a4.16 4.16 0 011.632-1.552c.694-.373 1.472-.56 2.336-.56.875 0 1.659.187 2.352.56a4.04 4.04 0 011.616 1.552c.395.661.592 1.413.592 2.256 0 .843-.197 1.6-.592 2.272a4.04 4.04 0 01-1.616 1.552c-.693.373-1.477.56-2.352.56zm0-1.712c.736 0 1.344-.245 1.824-.736s.72-1.136.72-1.936-.24-1.445-.72-1.936c-.48-.491-1.088-.736-1.824-.736s-1.344.245-1.824.736c-.469.491-.704 1.136-.704 1.936s.235 1.445.704 1.936c.48.491 1.088.736 1.824.736zm10.424 1.712c-.885 0-1.68-.187-2.384-.56A4.131 4.131 0 01209.45 137c-.395-.672-.592-1.429-.592-2.272 0-.843.197-1.595.592-2.256a4.16 4.16 0 011.632-1.552c.704-.373 1.504-.56 2.4-.56.843 0 1.579.171 2.208.512a3.31 3.31 0 011.44 1.472l-1.536.896a2.359 2.359 0 00-.928-.88 2.416 2.416 0 00-1.2-.304c-.747 0-1.365.245-1.856.736-.491.48-.736 1.125-.736 1.936 0 .811.24 1.461.72 1.952.491.48 1.115.72 1.872.72.437 0 .837-.096 1.2-.288.373-.203.683-.501.928-.896l1.536.896a3.5 3.5 0 01-1.456 1.488c-.629.341-1.36.512-2.192.512zm12.099-6.96h-2.992V139h-2v-6.848h-3.008v-1.696h8v1.696zm9.577-1.696l-4 9.232c-.373.928-.827 1.579-1.36 1.952-.533.384-1.179.576-1.936.576-.427 0-.848-.069-1.264-.208a2.806 2.806 0 01-1.024-.576l.8-1.472c.192.181.416.325.672.432.267.107.533.16.8.16.352 0 .64-.091.864-.272.235-.181.448-.485.64-.912l.144-.336-3.728-8.576h2.08l2.688 6.32 2.704-6.32h1.92zm9.581 0V139h-1.984v-6.848h-4.208V139h-2v-8.544h8.192zm10.699 4.32c0 .139-.011.336-.032.592h-6.704c.117.629.421 1.131.912 1.504.501.363 1.12.544 1.856.544.938 0 1.712-.309 2.32-.928l1.072 1.232c-.384.459-.87.805-1.456 1.04-.587.235-1.248.352-1.984.352-.939 0-1.766-.187-2.48-.56a4.098 4.098 0 01-1.664-1.552c-.384-.672-.576-1.429-.576-2.272 0-.832.186-1.579.56-2.24a4.067 4.067 0 011.584-1.568c.672-.373 1.429-.56 2.272-.56.832 0 1.573.187 2.224.56.661.363 1.173.88 1.536 1.552.373.661.56 1.429.56 2.304zm-4.32-2.816c-.64 0-1.184.192-1.632.576-.438.373-.704.875-.8 1.504h4.848c-.086-.619-.347-1.12-.784-1.504-.438-.384-.982-.576-1.632-.576zm6.507-1.504h2v3.472h4.304v-3.472h2V139h-2v-3.376h-4.304V139h-2v-8.544z" fill="#009F02"/><path d="M196.52 175.8V187h-2.08v-4.8h-5.792v4.8h-2.08v-11.2h2.08v4.624h5.792V175.8h2.08zm10.918 6.976c0 .139-.011.336-.032.592h-6.704c.117.629.421 1.131.912 1.504.501.363 1.12.544 1.856.544.938 0 1.712-.309 2.32-.928l1.072 1.232c-.384.459-.87.805-1.456 1.04-.587.235-1.248.352-1.984.352-.939 0-1.766-.187-2.48-.56a4.098 4.098 0 01-1.664-1.552c-.384-.672-.576-1.429-.576-2.272 0-.832.186-1.579.56-2.24a4.067 4.067 0 011.584-1.568c.672-.373 1.429-.56 2.272-.56.832 0 1.573.187 2.224.56.661.363 1.173.88 1.536 1.552.373.661.56 1.429.56 2.304zm-4.32-2.816c-.64 0-1.184.192-1.632.576-.438.373-.704.875-.8 1.504h4.848c-.086-.619-.347-1.12-.784-1.504-.438-.384-.982-.576-1.632-.576zm15.518 5.344v3.6h-1.872V187h-6.592v1.904h-1.856v-3.6h.4c.544-.021.912-.368 1.104-1.04.203-.683.336-1.643.4-2.88l.112-2.928h7.04v6.848h1.264zm-6.592-3.776c-.043.981-.123 1.781-.24 2.4-.117.619-.331 1.077-.64 1.376h4.208v-5.152h-3.28l-.048 1.376zm12.186 5.584c-.864 0-1.643-.187-2.336-.56a4.16 4.16 0 01-1.632-1.552c-.384-.672-.576-1.429-.576-2.272 0-.843.192-1.595.576-2.256a4.16 4.16 0 011.632-1.552c.693-.373 1.472-.56 2.336-.56.875 0 1.659.187 2.352.56a4.047 4.047 0 011.616 1.552c.395.661.592 1.413.592 2.256 0 .843-.197 1.6-.592 2.272a4.047 4.047 0 01-1.616 1.552c-.693.373-1.477.56-2.352.56zm0-1.712c.736 0 1.344-.245 1.824-.736s.72-1.136.72-1.936-.24-1.445-.72-1.936c-.48-.491-1.088-.736-1.824-.736s-1.344.245-1.824.736c-.469.491-.704 1.136-.704 1.936s.235 1.445.704 1.936c.48.491 1.088.736 1.824.736zm10.424 1.712c-.885 0-1.68-.187-2.384-.56a4.131 4.131 0 01-1.648-1.552c-.395-.672-.592-1.429-.592-2.272 0-.843.197-1.595.592-2.256a4.16 4.16 0 011.632-1.552c.704-.373 1.504-.56 2.4-.56.843 0 1.579.171 2.208.512a3.31 3.31 0 011.44 1.472l-1.536.896a2.359 2.359 0 00-.928-.88 2.416 2.416 0 00-1.2-.304c-.747 0-1.365.245-1.856.736-.491.48-.736 1.125-.736 1.936 0 .811.24 1.461.72 1.952.491.48 1.115.72 1.872.72.437 0 .837-.096 1.2-.288.373-.203.683-.501.928-.896l1.536.896a3.5 3.5 0 01-1.456 1.488c-.629.341-1.36.512-2.192.512zm12.099-6.96h-2.992V187h-2v-6.848h-3.008v-1.696h8v1.696zm9.577-1.696l-4 9.232c-.373.928-.827 1.579-1.36 1.952-.533.384-1.179.576-1.936.576-.427 0-.848-.069-1.264-.208a2.806 2.806 0 01-1.024-.576l.8-1.472c.192.181.416.325.672.432.267.107.533.16.8.16.352 0 .64-.091.864-.272.235-.181.448-.485.64-.912l.144-.336-3.728-8.576h2.08l2.688 6.32 2.704-6.32h1.92zm9.581 0V187h-1.984v-6.848h-4.208V187h-2v-8.544h8.192zm10.699 4.32c0 .139-.011.336-.032.592h-6.704c.117.629.421 1.131.912 1.504.501.363 1.12.544 1.856.544.938 0 1.712-.309 2.32-.928l1.072 1.232c-.384.459-.87.805-1.456 1.04-.587.235-1.248.352-1.984.352-.939 0-1.766-.187-2.48-.56A4.098 4.098 0 01268.45 185c-.384-.672-.576-1.429-.576-2.272 0-.832.186-1.579.56-2.24a4.067 4.067 0 011.584-1.568c.672-.373 1.429-.56 2.272-.56.832 0 1.573.187 2.224.56.661.363 1.173.88 1.536 1.552.373.661.56 1.429.56 2.304zm-4.32-2.816c-.64 0-1.184.192-1.632.576-.438.373-.704.875-.8 1.504h4.848c-.086-.619-.347-1.12-.784-1.504-.438-.384-.982-.576-1.632-.576zm6.507-1.504h2v3.472h4.304v-3.472h2V187h-2v-3.376h-4.304V187h-2v-8.544zM196.52 223.8V235h-2.08v-4.8h-5.792v4.8h-2.08v-11.2h2.08v4.624h5.792V223.8h2.08zm10.918 6.976c0 .139-.011.336-.032.592h-6.704c.117.629.421 1.131.912 1.504.501.363 1.12.544 1.856.544.938 0 1.712-.309 2.32-.928l1.072 1.232c-.384.459-.87.805-1.456 1.04-.587.235-1.248.352-1.984.352-.939 0-1.766-.187-2.48-.56a4.098 4.098 0 01-1.664-1.552c-.384-.672-.576-1.429-.576-2.272 0-.832.186-1.579.56-2.24a4.067 4.067 0 011.584-1.568c.672-.373 1.429-.56 2.272-.56.832 0 1.573.187 2.224.56.661.363 1.173.88 1.536 1.552.373.661.56 1.429.56 2.304zm-4.32-2.816c-.64 0-1.184.192-1.632.576-.438.373-.704.875-.8 1.504h4.848c-.086-.619-.347-1.12-.784-1.504-.438-.384-.982-.576-1.632-.576zm15.518 5.344v3.6h-1.872V235h-6.592v1.904h-1.856v-3.6h.4c.544-.021.912-.368 1.104-1.04.203-.683.336-1.643.4-2.88l.112-2.928h7.04v6.848h1.264zm-6.592-3.776c-.043.981-.123 1.781-.24 2.4-.117.619-.331 1.077-.64 1.376h4.208v-5.152h-3.28l-.048 1.376zm12.186 5.584c-.864 0-1.643-.187-2.336-.56a4.16 4.16 0 01-1.632-1.552c-.384-.672-.576-1.429-.576-2.272 0-.843.192-1.595.576-2.256a4.16 4.16 0 011.632-1.552c.693-.373 1.472-.56 2.336-.56.875 0 1.659.187 2.352.56a4.047 4.047 0 011.616 1.552c.395.661.592 1.413.592 2.256 0 .843-.197 1.6-.592 2.272a4.047 4.047 0 01-1.616 1.552c-.693.373-1.477.56-2.352.56zm0-1.712c.736 0 1.344-.245 1.824-.736s.72-1.136.72-1.936-.24-1.445-.72-1.936c-.48-.491-1.088-.736-1.824-.736s-1.344.245-1.824.736c-.469.491-.704 1.136-.704 1.936s.235 1.445.704 1.936c.48.491 1.088.736 1.824.736zm10.424 1.712c-.885 0-1.68-.187-2.384-.56a4.131 4.131 0 01-1.648-1.552c-.395-.672-.592-1.429-.592-2.272 0-.843.197-1.595.592-2.256a4.16 4.16 0 011.632-1.552c.704-.373 1.504-.56 2.4-.56.843 0 1.579.171 2.208.512a3.31 3.31 0 011.44 1.472l-1.536.896a2.359 2.359 0 00-.928-.88 2.416 2.416 0 00-1.2-.304c-.747 0-1.365.245-1.856.736-.491.48-.736 1.125-.736 1.936 0 .811.24 1.461.72 1.952.491.48 1.115.72 1.872.72.437 0 .837-.096 1.2-.288.373-.203.683-.501.928-.896l1.536.896a3.5 3.5 0 01-1.456 1.488c-.629.341-1.36.512-2.192.512zm12.099-6.96h-2.992V235h-2v-6.848h-3.008v-1.696h8v1.696zm9.577-1.696l-4 9.232c-.373.928-.827 1.579-1.36 1.952-.533.384-1.179.576-1.936.576-.427 0-.848-.069-1.264-.208a2.806 2.806 0 01-1.024-.576l.8-1.472c.192.181.416.325.672.432.267.107.533.16.8.16.352 0 .64-.091.864-.272.235-.181.448-.485.64-.912l.144-.336-3.728-8.576h2.08l2.688 6.32 2.704-6.32h1.92zm9.581 0V235h-1.984v-6.848h-4.208V235h-2v-8.544h8.192zm10.699 4.32c0 .139-.011.336-.032.592h-6.704c.117.629.421 1.131.912 1.504.501.363 1.12.544 1.856.544.938 0 1.712-.309 2.32-.928l1.072 1.232c-.384.459-.87.805-1.456 1.04-.587.235-1.248.352-1.984.352-.939 0-1.766-.187-2.48-.56A4.098 4.098 0 01268.45 233c-.384-.672-.576-1.429-.576-2.272 0-.832.186-1.579.56-2.24a4.067 4.067 0 011.584-1.568c.672-.373 1.429-.56 2.272-.56.832 0 1.573.187 2.224.56.661.363 1.173.88 1.536 1.552.373.661.56 1.429.56 2.304zm-4.32-2.816c-.64 0-1.184.192-1.632.576-.438.373-.704.875-.8 1.504h4.848c-.086-.619-.347-1.12-.784-1.504-.438-.384-.982-.576-1.632-.576zm6.507-1.504h2v3.472h4.304v-3.472h2V235h-2v-3.376h-4.304V235h-2v-8.544z" fill="red"/></g><defs><linearGradient id="paint0_linear" x1="322" y1="0" x2="0" y2="0" gradientUnits="userSpaceOnUse"><stop stop-color="#F8F8F8"/><stop offset="1" stop-color="#fff"/></linearGradient><clipPath id="clip0"><path fill="#fff" d="M0 0h322v265H0z"/></clipPath><filter id="filter0_dd" x="-3" y="-7" width="346" height="289" filterUnits="userSpaceOnUse" color-interpolation-filters="sRGB"><feFlood flood-opacity="0" result="BackgroundImageFix"/><feColorMatrix in="SourceAlpha" values="0 0 0 0 0 0 0 0 0 0 0 0 0 0 0 0 0 0 127 0" result="hardAlpha"/><feOffset dx="9" dy="5"/><feGaussianBlur stdDeviation="6"/><feColorMatrix values="0 0 0 0 0.858824 0 0 0 0 0.2 0 0 0 0 0.25098 0 0 0 0.384588 0"/><feBlend in2="BackgroundImageFix" result="effect1_dropShadow"/><feColorMatrix in="SourceAlpha" values="0 0 0 0 0 0 0 0 0 0 0 0 0 0 0 0 0 0 127 0" result="hardAlpha"/><feOffset dx="2" dy="2"/><feGaussianBlur stdDeviation="1"/><feColorMatrix values="0 0 0 0 0.858824 0 0 0 0 0.2 0 0 0 0 0.25098 0 0 0 0.328644 0"/><feBlend in2="effect1_dropShadow" result="effect2_dropShadow"/><feBlend in="SourceGraphic" in2="effect2_dropShadow" result="shape"/></filter></defs></svg>