<svg width="9" height="13" fill="none" xmlns="http://www.w3.org/2000/svg"><path d="M3.904 8.288c0-.576.128-1.05.384-1.424.266-.384.65-.8 1.152-1.248.384-.341.666-.635.848-.88.192-.256.288-.544.288-.864 0-.448-.182-.81-.544-1.088-.363-.277-.848-.416-1.456-.416-1.152 0-2.022.41-2.608 1.232L.416 2.592a4.432 4.432 0 011.776-1.44C2.917.811 3.77.64 4.752.64c1.194 0 2.144.261 2.848.784.714.512 1.072 1.221 1.072 2.128 0 .437-.075.821-.224 1.152-.14.33-.31.613-.512.848-.203.224-.47.485-.8.784-.406.363-.71.683-.912.96a1.7 1.7 0 00-.288.992H3.904zm1.024 3.824c-.374 0-.683-.117-.928-.352a1.248 1.248 0 01-.352-.896c0-.352.117-.645.352-.88.245-.235.554-.352.928-.352.362 0 .66.117.896.352.245.235.368.528.368.88s-.123.65-.368.896c-.235.235-.534.352-.896.352z" fill="#929292"/></svg>