<svg width="36" height="36" fill="none" xmlns="http://www.w3.org/2000/svg"><rect width="36" height="36" rx="4" fill="#9B51E0" fill-opacity=".2"/><path d="M27.82 8.268c-.665-.612-3.35-2.556-9.334-2.582 0 0-7.055-.424-10.494 2.72-1.915 1.91-2.588 4.704-2.66 8.167-.07 3.464-.162 9.954 6.113 11.714h.006l-.004 2.686s-.04 1.087.678 1.309c.869.269 1.378-.558 2.208-1.448a70.716 70.716 0 001.557-1.757c4.292.36 7.593-.463 7.967-.585.867-.28 5.77-.906 6.568-7.396.823-6.69-.398-10.921-2.605-12.828zm.727 12.348c-.673 5.42-4.65 5.76-5.384 5.994-.311.1-3.21.82-6.856.582 0 0-2.716 3.267-3.565 4.117-.133.133-.288.186-.392.16-.146-.036-.186-.208-.185-.46.003-.36.024-4.463.024-4.463s-.004 0 0 0c-5.309-1.47-5-6.994-4.94-9.886.06-2.893.606-5.263 2.225-6.857 2.91-2.627 8.902-2.234 8.902-2.234 5.06.022 7.486 1.541 8.048 2.05 1.867 1.594 2.819 5.408 2.123 10.995v.002z" fill="#9B51E0"/><path fill-rule="evenodd" clip-rule="evenodd" d="M18.326 14.423a.323.323 0 01.343-.301c.673.034 1.233.233 1.631.635.398.4.592.96.627 1.632a.321.321 0 01-.31.334.323.323 0 01-.342-.302c-.03-.576-.191-.967-.443-1.222-.251-.253-.634-.413-1.197-.442a.321.321 0 01-.31-.334z" fill="#9B51E0"/><path fill-rule="evenodd" clip-rule="evenodd" d="M18.326 12.487c.013-.188.162-.33.333-.315 1.308.104 2.36.593 3.126 1.51.758.907 1.118 2.035 1.092 3.359-.004.188-.146.337-.318.333-.172-.004-.308-.16-.304-.348.023-1.167-.29-2.12-.93-2.884-.636-.761-1.526-1.195-2.711-1.29-.171-.014-.3-.178-.288-.365z" fill="#9B51E0"/><path fill-rule="evenodd" clip-rule="evenodd" d="M17.675 10.563a.339.339 0 01.333-.344c1.919.014 3.54.684 4.843 2.016 1.313 1.342 1.962 3.17 1.979 5.44a.34.34 0 01-.328.349.339.339 0 01-.333-.344c-.016-2.127-.62-3.762-1.78-4.949-1.171-1.197-2.625-1.805-4.385-1.818a.34.34 0 01-.329-.35z" fill="#9B51E0"/><path d="M18.995 20.965s.46.038.707-.266l.483-.608c.233-.3.795-.493 1.345-.186.412.235.813.49 1.2.766.365.268 1.112.892 1.115.892.356.3.438.742.196 1.208l-.002.01c-.267.463-.607.88-1.005 1.237-.005.002-.005.004-.009.007-.346.289-.686.453-1.02.493a1.36 1.36 0 01-.583-.057l-.01-.017c-.515-.145-1.374-.508-2.805-1.297a16.708 16.708 0 01-2.356-1.556 12.35 12.35 0 01-1.06-.94l-.036-.036-.035-.036-.036-.035-.036-.036a12.351 12.351 0 01-.94-1.06 16.72 16.72 0 01-1.556-2.355c-.79-1.431-1.152-2.29-1.298-2.805l-.015-.01a1.359 1.359 0 01-.067-.434c-.003-.05 0-.1.01-.15.04-.333.205-.673.493-1.02.002-.005.005-.005.007-.01a5.027 5.027 0 011.237-1.003l.01-.003c.465-.242.907-.16 1.207.194.003.003.626.75.893 1.115.275.388.53.788.766 1.201.306.55.114 1.113-.187 1.345l-.607.482c-.307.248-.266.708-.266.708s.9 3.404 4.26 4.262z" fill="#9B51E0"/></svg>